<?xml version="1.0" encoding="UTF-8" standalone="no"?>
<!-- Created with Inkscape (http://www.inkscape.org/) -->

<svg
   xmlns:dc="http://purl.org/dc/elements/1.1/"
   xmlns:cc="http://creativecommons.org/ns#"
   xmlns:rdf="http://www.w3.org/1999/02/22-rdf-syntax-ns#"
   xmlns:svg="http://www.w3.org/2000/svg"
   xmlns="http://www.w3.org/2000/svg"
   version="1.1"
   width="138.218"
   height="46.723"
   viewBox="0 0 138.218 46.723"
   id="Layer_1"
   xml:space="preserve"><metadata
   id="metadata693"><rdf:RDF><cc:Work
       rdf:about=""><dc:format>image/svg+xml</dc:format><dc:type
         rdf:resource="http://purl.org/dc/dcmitype/StillImage" /><dc:title></dc:title></cc:Work></rdf:RDF></metadata><defs
   id="defs691" />
<g
   transform="translate(-33.944,-364.837)"
   id="g3">
	<path
   d="m 58.607,396.86 c 0,1.778 0,4.523 -3.319,4.523 -2.018,0 -2.831,-1.118 -3.314,-2.942 -1.776,2.117 -3.943,3.222 -6.584,3.222 -6.486,0 -11.446,-5.527 -11.446,-13.318 0,-7.593 5.096,-13.42 11.446,-13.42 2.544,0 5.039,1.022 6.584,3.17 0.195,-1.676 1.638,-2.872 3.314,-2.872 3.319,0 3.319,2.742 3.319,4.526 v 17.111 z m -12.263,-1.551 c 3.607,0 5.342,-3.642 5.342,-6.964 0,-3.319 -1.692,-7.059 -5.342,-7.059 -3.791,0 -5.475,3.739 -5.475,7.059 0,3.322 1.728,6.964 5.475,6.964 z"
   id="path5"
   style="fill:#fc4c02" />
	<path
   d="m 60.56,379.073 c 0,-2.318 1.454,-3.851 3.46,-3.851 1.931,0 3.021,1.065 3.46,2.872 1.302,-2.11 3.992,-3.17 6.589,-3.17 7.447,0 11.159,6.978 11.159,13.713 0,6.538 -4.434,13.025 -11.397,13.025 -2.169,0 -4.523,-0.819 -6.351,-2.406 v 8.459 c 0,2.308 -1.429,3.845 -3.46,3.845 -2.006,0 -3.46,-1.537 -3.46,-3.845 v -28.642 z m 12.36,16.236 c 3.604,0 5.38,-3.733 5.38,-6.964 0,-3.265 -1.776,-7.059 -5.38,-7.059 -3.704,0 -5.44,3.46 -5.44,6.826 0,3.357 1.638,7.197 5.44,7.197 z"
   id="path7"
   style="fill:#fc4c02" />
	<path
   d="m 94.213,368.639 c 0,2.167 -1.736,3.979 -3.905,3.979 -2.063,0 -3.889,-1.86 -3.889,-3.979 0,-1.969 1.825,-3.802 3.889,-3.802 2.077,0 3.905,1.776 3.905,3.802 z m -7.365,10.434 c 0,-2.318 1.442,-3.851 3.46,-3.851 2.034,0 3.466,1.532 3.466,3.851 v 18.448 c 0,2.318 -1.432,3.862 -3.466,3.862 -2.018,0 -3.46,-1.544 -3.46,-3.862 v -18.448 z"
   id="path9"
   style="fill:#fc4c02" />
	<path
   d="m 120.083,399.075 c 0,8.31 -5.439,12.485 -13.323,12.485 -2.839,0 -10.907,-1.391 -10.907,-5.174 0,-1.315 1.44,-3.046 2.79,-3.046 2.202,0 4.654,2.167 8.64,2.167 3.368,0 5.871,-1.966 5.871,-5.48 V 398.4 h -0.095 c -1.448,2.115 -3.802,3.263 -6.978,3.263 -7.259,0 -10.668,-6.393 -10.668,-13.271 0,-6.97 4.412,-13.467 11.392,-13.467 2.362,0 5.049,1.06 6.348,3.17 0.445,-1.807 1.538,-2.872 3.463,-2.872 2.029,0 3.466,1.532 3.466,3.851 v 20.001 z m -12.357,-17.789 c -3.609,0 -5.388,3.739 -5.388,6.961 0,3.699 1.779,7.062 5.388,7.062 3.69,0 5.429,-3.46 5.429,-6.822 -0.001,-3.366 -1.641,-7.201 -5.429,-7.201 z"
   id="path11"
   style="fill:#494949" />
	<path
   d="m 128.397,390.612 c 0.48,3.406 3.316,4.995 6.535,4.995 3.553,0 6.01,-2.78 7.826,-2.78 1.502,0 2.853,1.473 2.853,2.97 0,2.983 -6.156,5.866 -11.3,5.866 -7.796,0 -12.992,-5.668 -12.992,-13.318 0,-7.018 5.104,-13.42 12.398,-13.42 7.512,0 12.461,6.828 12.461,12.604 0,2.063 -0.909,3.083 -3.024,3.083 h -14.757 z m 10.861,-4.613 c -0.38,-3.039 -2.302,-5.29 -5.541,-5.29 -3.059,0 -5.136,2.354 -5.47,5.29 h 11.011 z"
   id="path13"
   style="fill:#494949" />
	<path
   d="m 154.371,390.693 c 0.466,3.428 3.319,5.001 6.543,5.001 3.555,0 5.999,-2.788 7.834,-2.788 1.483,0 2.831,1.494 2.831,2.983 0,2.978 -6.145,5.865 -11.287,5.865 -7.793,0 -12.995,-5.67 -12.995,-13.317 0,-7.023 5.092,-13.415 12.412,-13.415 7.498,0 12.453,6.828 12.453,12.596 0,2.072 -0.914,3.075 -3.035,3.075 h -14.756 z m 10.869,-4.612 c -0.379,-3.037 -2.316,-5.291 -5.529,-5.291 -3.078,0 -5.147,2.364 -5.48,5.291 h 11.009 z"
   id="path15"
   style="fill:#494949" />
</g>
<path
   d="M 834.193,201.263"
   id="path17"
   style="fill:none;stroke:#d0d1d2;stroke-width:0.48649999;stroke-miterlimit:10" />
<line
   id="line19"
   y2="27.928991"
   x2="721.52405"
   y1="165.34299"
   x1="786.23206"
   stroke-miterlimit="10"
   style="fill:none;stroke:#d1d3d4;stroke-width:0.69419998;stroke-miterlimit:10" />
<polyline
   id="polyline21"
   points="820.176,530.18 949.103,451.807   755.468,392.766 "
   stroke-miterlimit="10"
   style="fill:none;stroke:#d1d3d4;stroke-width:0.69419998;stroke-miterlimit:10"
   transform="translate(-33.944,-364.837)" />
<line
   id="line23"
   y2="123.714"
   x2="990.05603"
   y1="86.970009"
   x1="915.15906"
   stroke-miterlimit="10"
   style="fill:none;stroke:#d1d3d4;stroke-width:0.69419998;stroke-miterlimit:10" />
<line
   id="line25"
   y2="17.797003"
   x2="803.75"
   y1="165.34299"
   x1="786.23206"
   stroke-miterlimit="10"
   style="fill:none;stroke:#d1d3d4;stroke-width:0.69419998;stroke-miterlimit:10" />
<line
   id="line27"
   y2="-54.20599"
   x2="756.23505"
   y1="17.797003"
   x1="803.75"
   stroke-miterlimit="10"
   style="fill:none;stroke:#d1d2d3;stroke-width:0.69419998;stroke-miterlimit:10" />
<path
   d="m 860.18,-169.967 c -1.299,1.725 -55.459,187.764 -55.459,187.764"
   id="path29"
   style="fill:none;stroke:#d1d2d3;stroke-width:0.69419998;stroke-miterlimit:10" />
<line
   id="line31"
   y2="-172.45601"
   x2="861.479"
   y1="-85.757988"
   x1="738.55902"
   stroke-miterlimit="10"
   style="fill:none;stroke:#d1d2d3;stroke-width:0.69419998;stroke-miterlimit:10" />
<line
   id="line33"
   y2="-108.759"
   x2="951.57703"
   y1="-171.561"
   x1="860.18005"
   stroke-miterlimit="10"
   style="fill:none;stroke:#d1d3d4;stroke-width:0.69419998;stroke-miterlimit:10" />
<path
   d="m 625.928,-199.067 228.901,27.506 -228.901,-27.506 z"
   id="path35"
   style="fill:none;stroke:#d1d2d3;stroke-width:0.69419998;stroke-miterlimit:10" />
<polyline
   id="polyline37"
   points="895.423,47.083 891.513,50.021   802.666,116.741 705.617,41.503 659.872,165.77 "
   stroke-miterlimit="10"
   style="fill:none;stroke:#d1d3d4;stroke-width:0.69419998;stroke-miterlimit:10"
   transform="translate(-33.944,-364.837)" />
<line
   id="line39"
   y2="-323.33401"
   x2="667.94501"
   y1="-314.819"
   x1="861.479"
   stroke-miterlimit="10"
   style="fill:none;stroke:#d1d2d3;stroke-width:0.69419998;stroke-miterlimit:10" />
<polyline
   id="polyline41"
   points="334.496,171.636 445.343,46.346   595.445,167.205 432.937,119.16 445.343,50.018 "
   stroke-miterlimit="10"
   style="fill:none;stroke:#d1d3d4;stroke-width:0.69419998;stroke-miterlimit:10"
   transform="translate(-33.944,-364.837)" />
<polyline
   id="polyline43"
   points="696.161,45.76 594.154,166.334   565.662,61.679 701.889,41.503 "
   stroke-miterlimit="10"
   style="fill:none;stroke:#d1d3d4;stroke-width:0.69419998;stroke-miterlimit:10"
   transform="translate(-33.944,-364.837)" />
<line
   id="line45"
   y2="-364.83701"
   x2="715.08704"
   y1="-323.27701"
   x1="669.18701"
   stroke-miterlimit="10"
   style="fill:none;stroke:#d1d2d3;stroke-width:0.69419998;stroke-miterlimit:10" />
<line
   id="line47"
   y2="-364.83701"
   x2="467.26199"
   y1="-303.15799"
   x1="531.71802"
   stroke-miterlimit="10"
   style="fill:none;stroke:#a7a9ac;stroke-width:0.69419998;stroke-miterlimit:10" />
<polyline
   id="polyline49"
   points="514.014,429.656 514.26,429.656   514.813,429.656 521.834,420.9 500.696,393.658 512.964,393.658 514.014,429.656 500.696,393.332 508.146,361.119 479.313,342.494   463.631,310.04 484.002,275.847 508.948,262.307 500.313,229.483 512.476,194.442 547.219,184.935 577.42,192.498 594.534,165.77   624.934,147.794 659.872,165.77 676.414,192.562 706.312,184.935 739.159,192.498 753.206,229.483 745.99,261.252 772.503,279.079   790.77,309.413 774.209,342.169 745.586,360.169 753.206,391.898 747.283,422.131 712.177,437.787 676.582,430.873 660.371,455.928   625.181,474.922 597.612,460.711 578.381,430.041 548.396,437.521 "
   stroke-miterlimit="10"
   style="fill:none;stroke:#6d6f71;stroke-width:0.48649999;stroke-miterlimit:10"
   transform="translate(-33.944,-364.837)" />
<polyline
   id="polyline51"
   points="548.396,437.521 514.26,429.656   549.448,426.725 "
   stroke-miterlimit="10"
   style="fill:none;stroke:#6d6f71;stroke-width:0.48649999;stroke-miterlimit:10"
   transform="translate(-33.944,-364.837)" />
<polyline
   id="polyline53"
   points="548.396,426.98 548.966,437.113   572.07,420.008 590.114,426.088 578.381,430.873 603.334,449.197 597.859,460.291 625.568,463.451 625.91,475.385 650.799,450.656   660.965,456.332 665.557,427.225 677.314,430.627 680.677,420.008 712.584,438.168 713.424,427.145 748.098,421.629   739.664,415.953 753.722,391.387 742.422,390.33 745.99,361.859 735.531,365.683 742.227,351.318 774.613,342.413 766.18,333.006   790.754,310.04 779.638,310.04 772.503,279.079 766.668,287.521 746.001,262.161 740.64,273.821 736.003,256.71 746.234,262.063 "
   stroke-miterlimit="10"
   style="fill:none;stroke:#6d6f71;stroke-width:0.48649999;stroke-miterlimit:10"
   transform="translate(-33.944,-364.837)" />
<polyline
   id="polyline55"
   points="736.342,257.117 753.722,230.197   742.215,229.483 738.283,193.227 733.502,201.821 706.312,183.738 706.986,196.589 676.907,192.498 680.395,202.062   665.236,196.589 675.855,193.655 "
   stroke-miterlimit="10"
   style="fill:none;stroke:#6d6f71;stroke-width:0.48649999;stroke-miterlimit:10"
   transform="translate(-33.944,-364.837)" />
<polyline
   id="polyline57"
   points="666.125,195.901 659.872,166.548   651.075,172.428 623.8,147.794 624.261,159.902 594.534,165.77 603.334,171.847 577.99,192.82 588.855,195.429 "
   stroke-miterlimit="10"
   style="fill:none;stroke:#6d6f71;stroke-width:0.48649999;stroke-miterlimit:10"
   transform="translate(-33.944,-364.837)" />
<polyline
   id="polyline59"
   points="588.855,195.429 573.531,202.455   577.42,192.498 549.045,196.226 547.661,184.932 523.909,201.414 512.964,194.442 512.395,228.898 501.936,229.483 520.262,258.009   512.964,273.553 508.948,262.874 519.717,259.373 "
   stroke-miterlimit="10"
   style="fill:none;stroke:#6d6f71;stroke-width:0.48649999;stroke-miterlimit:10"
   transform="translate(-33.944,-364.837)" />
<polyline
   id="polyline61"
   points="508.146,262.307 489.372,286.17   484.002,277.384 476.562,309.009 463.631,310.04 486.37,333.413 479.324,342.166 512.839,349.388 "
   stroke-miterlimit="10"
   style="fill:none;stroke:#6d6f71;stroke-width:0.48649999;stroke-miterlimit:10"
   transform="translate(-33.944,-364.837)" />
<polyline
   id="polyline63"
   points="512.964,349.06 509.232,361.119   522.287,354.252 514.26,349.388 "
   stroke-miterlimit="10"
   style="fill:none;stroke:#6d6f71;stroke-width:0.48649999;stroke-miterlimit:10"
   transform="translate(-33.944,-364.837)" />
<polyline
   id="polyline65"
   points="523.426,354.252 519.717,366.575   508.669,361.466 "
   stroke-miterlimit="10"
   style="fill:none;stroke:#6d6f71;stroke-width:0.48649999;stroke-miterlimit:10"
   transform="translate(-33.944,-364.837)" />
<line
   id="line67"
   y2="72.949989"
   x2="513.07501"
   y1="56.952"
   x1="488.34299"
   stroke-miterlimit="10"
   style="fill:none;stroke:#6d6f71;stroke-width:0.48649999;stroke-miterlimit:10" />
<line
   id="line69"
   y2="-4.4229984"
   x2="473.10599"
   y1="27.928991"
   x1="479.01999"
   stroke-miterlimit="10"
   style="fill:none;stroke:#6d6f71;stroke-width:0.48649999;stroke-miterlimit:10" />
<line
   id="line71"
   y2="61.655003"
   x2="513.479"
   y1="65.712013"
   x1="544.43701"
   stroke-miterlimit="10"
   style="fill:none;stroke:#6d6f71;stroke-width:0.48649999;stroke-miterlimit:10" />
<polyline
   id="polyline73"
   points="572.518,419.197 578.882,430.709   584.252,415.496 "
   stroke-miterlimit="10"
   style="fill:none;stroke:#6d6f71;stroke-width:0.48649999;stroke-miterlimit:10"
   transform="translate(-33.944,-364.837)" />
<line
   id="line75"
   y2="50.198002"
   x2="550.30804"
   y1="53.467991"
   x1="539.34302"
   stroke-miterlimit="10"
   style="fill:none;stroke:#6d6f71;stroke-width:0.48649999;stroke-miterlimit:10" />
<line
   id="line77"
   y2="49.166996"
   x2="549.80304"
   y1="61.892002"
   x1="556.17004"
   stroke-miterlimit="10"
   style="fill:none;stroke:#6d6f71;stroke-width:0.48649999;stroke-miterlimit:10" />
<polyline
   id="polyline79"
   points="512.558,349.87 518.881,366.987   501.287,393.09 "
   stroke-miterlimit="10"
   style="fill:none;stroke:#6d6f71;stroke-width:0.48649999;stroke-miterlimit:10"
   transform="translate(-33.944,-364.837)" />
<path
   d="m 488.706,56.063 23.961,5.592 c 0,0 25.279,-7.258 25.906,-7.295 0.627,-0.035 -10.904,-42.762 -10.904,-42.762 l -41.512,-9.86 -7.138,26.515 8.917,26.918"
   id="path81"
   style="fill:none;stroke:#6d6f71;stroke-width:0.48649999;stroke-miterlimit:10" />
<polyline
   id="polyline83"
   points="512.839,349.388 487.265,334.63   475.932,310.549 490.421,286.873 512.964,272.506 534.612,310.821 512.964,349.624 "
   stroke-miterlimit="10"
   style="fill:none;stroke:#6d6f71;stroke-width:0.48649999;stroke-miterlimit:10"
   transform="translate(-33.944,-364.837)" />
<polyline
   id="polyline85"
   points="519.717,259.373 511.882,228.925   522.65,202.455 548.017,196.589 573.206,202.957 561.613,245.361 520.587,259.373 "
   stroke-miterlimit="10"
   style="fill:none;stroke:#6d6f71;stroke-width:0.48649999;stroke-miterlimit:10"
   transform="translate(-33.944,-364.837)" />
<polyline
   id="polyline87"
   points="588.855,195.429 603.334,170.765   624.773,159.902 650.642,173.339 664.91,195.901 629.234,218.281 589.586,195.901 "
   stroke-miterlimit="10"
   style="fill:none;stroke:#6d6f71;stroke-width:0.48649999;stroke-miterlimit:10"
   transform="translate(-33.944,-364.837)" />
<polyline
   id="polyline89"
   points="680.802,202.144 708.288,196.226   733.071,202.455 741.871,229.483 736.003,257.458 691.502,245.765 680.802,202.455 "
   stroke-miterlimit="10"
   style="fill:none;stroke:#6d6f71;stroke-width:0.48649999;stroke-miterlimit:10"
   transform="translate(-33.944,-364.837)" />
<polyline
   id="polyline91"
   points="740.125,273.74 767.476,287.879   778.101,310.04 765.691,333.912 741.871,350.969 719.963,311.357 740.418,273.007 "
   stroke-miterlimit="10"
   style="fill:none;stroke:#6d6f71;stroke-width:0.48649999;stroke-miterlimit:10"
   transform="translate(-33.944,-364.837)" />
<polyline
   id="polyline93"
   points="734.254,366.501 741.526,390.74   739.501,415.791 712.909,427.943 680.477,419.764 691.174,376.435 734.254,366.501 "
   stroke-miterlimit="10"
   style="fill:none;stroke:#6d6f71;stroke-width:0.48649999;stroke-miterlimit:10"
   transform="translate(-33.944,-364.837)" />
<polyline
   id="polyline95"
   points="637.506,397.223 669.575,414.332   680.802,379.372 656.94,382.306 638.316,396.85 "
   stroke-miterlimit="10"
   style="fill:none;stroke:#6d6f71;stroke-width:0.48649999;stroke-miterlimit:10"
   transform="translate(-33.944,-364.837)" />
<polyline
   id="polyline97"
   points="584.252,415.035 616.343,398.682   597.936,380.681 575.799,379.71 584.252,415.035 "
   stroke-miterlimit="10"
   style="fill:none;stroke:#6d6f71;stroke-width:0.48649999;stroke-miterlimit:10"
   transform="translate(-33.944,-364.837)" />
<polyline
   id="polyline99"
   points="522.65,354.575 560.398,364.053   556.748,341.843 542.154,322.142 523.909,353.521 "
   stroke-miterlimit="10"
   style="fill:none;stroke:#6d6f71;stroke-width:0.48649999;stroke-miterlimit:10"
   transform="translate(-33.944,-364.837)" />
<polyline
   id="polyline101"
   points="541.91,301.305 524.641,269.032   558.677,259.709 555.745,282.981 543.206,299.846 "
   stroke-miterlimit="10"
   style="fill:none;stroke:#6d6f71;stroke-width:0.48649999;stroke-miterlimit:10"
   transform="translate(-33.944,-364.837)" />
<polyline
   id="polyline103"
   points="575.446,244.322 598.261,240.417   616.771,226.549 584.721,206.52 575.446,243.493 "
   stroke-miterlimit="10"
   style="fill:none;stroke:#6d6f71;stroke-width:0.48649999;stroke-miterlimit:10"
   transform="translate(-33.944,-364.837)" />
<polyline
   id="polyline105"
   points="637.506,226.549 637.891,226.842   657.694,241.79 680.802,244.952 670.102,208.321 637.506,225.975 665.638,197.764 "
   stroke-miterlimit="10"
   style="fill:none;stroke:#6d6f71;stroke-width:0.48649999;stroke-miterlimit:10"
   transform="translate(-33.944,-364.837)" />
<polyline
   id="polyline107"
   points="694.437,259.373 697.371,282.011   712.787,301.227 730.991,269.113 694.583,258.89 "
   stroke-miterlimit="10"
   style="fill:none;stroke:#6d6f71;stroke-width:0.48649999;stroke-miterlimit:10"
   transform="translate(-33.944,-364.837)" />
<polyline
   id="polyline109"
   points="712.177,322.142 730.991,354.461   694.437,364.053 697.371,340.141 712.177,321.486 "
   stroke-miterlimit="10"
   style="fill:none;stroke:#6d6f71;stroke-width:0.48649999;stroke-miterlimit:10"
   transform="translate(-33.944,-364.837)" />
<line
   id="line111"
   y2="-0.78399098"
   x2="525.94501"
   y1="2.1499996"
   x1="485.77298"
   stroke-miterlimit="10"
   style="fill:none;stroke:#6d6f71;stroke-width:0.48649999;stroke-miterlimit:10" />
<path
   d="M 538.943,4.007"
   id="path113"
   style="fill:none;stroke:#6d6f71;stroke-width:0.48649999;stroke-miterlimit:10" />
<polyline
   id="polyline115"
   points="561.613,364.053 561.613,377.116   575.799,379.71 "
   stroke-miterlimit="10"
   style="fill:none;stroke:#6d6f71;stroke-width:0.48649999;stroke-miterlimit:10"
   transform="translate(-33.944,-364.837)" />
<path
   d="M 538.574,1.738"
   id="path117"
   style="fill:none;stroke:#6d6f71;stroke-width:0.48649999;stroke-miterlimit:10" />
<line
   id="line119"
   y2="12.278997"
   x2="527.01904"
   y1="-10.584986"
   x1="488.70602"
   stroke-miterlimit="10"
   style="fill:none;stroke:#6d6f71;stroke-width:0.48649999;stroke-miterlimit:10" />
<line
   id="line121"
   y2="52.494999"
   x2="538.57404"
   y1="15.215002"
   x1="541.505"
   stroke-miterlimit="10"
   style="fill:none;stroke:#6d6f71;stroke-width:0.48649999;stroke-miterlimit:10" />
<line
   id="line123"
   y2="49.494999"
   x2="550.13605"
   y1="12.928991"
   x1="527.83502"
   stroke-miterlimit="10"
   style="fill:none;stroke:#6d6f71;stroke-width:0.48649999;stroke-miterlimit:10" />
<line
   id="line125"
   y2="39.519993"
   x2="592.45404"
   y1="50.198002"
   x1="550.76605"
   stroke-miterlimit="10"
   style="fill:none;stroke:#6d6f71;stroke-width:0.48649999;stroke-miterlimit:10" />
<path
   d="M 562.855,14.535"
   id="path127"
   style="fill:none;stroke:#6d6f71;stroke-width:0.48649999;stroke-miterlimit:10" />
<path
   d="M 538.574,1.738"
   id="path129"
   style="fill:none;stroke:#6d6f71;stroke-width:0.48649999;stroke-miterlimit:10" />
<path
   d="M 538.98,2.145"
   id="path131"
   style="fill:none;stroke:#6d6f71;stroke-width:0.48649999;stroke-miterlimit:10" />
<line
   id="line133"
   y2="4.2540035"
   x2="569.75104"
   y1="14.535009"
   x1="541.85504"
   stroke-miterlimit="10"
   style="fill:none;stroke:#6d6f71;stroke-width:0.48649999;stroke-miterlimit:10" />
<polyline
   id="polyline135"
   points="602.073,369.921 569.581,336.496   568.507,287.765 601.507,254.925 650.313,252.759 685.707,286.74 686.035,333.912 651.075,369.574 603.334,370.708 "
   stroke-miterlimit="10"
   style="fill:none;stroke:#6d6f71;stroke-width:0.48649999;stroke-miterlimit:10"
   transform="translate(-33.944,-364.837)" />
<polyline
   id="polyline137"
   points="598.18,380.052 602.621,369.015   616.343,397.766 637.506,398.357 665.236,426.729 "
   stroke-miterlimit="10"
   style="fill:none;stroke:#6d6f71;stroke-width:0.48649999;stroke-miterlimit:10"
   transform="translate(-33.944,-364.837)" />
<polyline
   id="polyline139"
   points="627.209,403.631 616.75,397.373   590.478,426.729 627.209,403.631 665.236,426.17 651.075,450.061 626.477,463.225 602.911,450.061 590.114,426.98 "
   stroke-miterlimit="10"
   style="fill:none;stroke:#6d6f71;stroke-width:0.48649999;stroke-miterlimit:10"
   transform="translate(-33.944,-364.837)" />
<line
   id="line141"
   y2="38.470005"
   x2="593.02405"
   y1="33.355991"
   x1="603.15503"
   stroke-miterlimit="10"
   style="fill:none;stroke:#6d6f71;stroke-width:0.48649999;stroke-miterlimit:10" />
<path
   d="m 604.209,33.356 13.47,-29.178 c 0,0 5.749,12.562 5.827,12.884 l 29.19,-45.056"
   id="path143"
   style="fill:none;stroke:#6d6f71;stroke-width:0.48649999;stroke-miterlimit:10" />
<polyline
   id="polyline145"
   points="626.225,404.357 670.367,415.035   665.236,427.145 "
   stroke-miterlimit="10"
   style="fill:none;stroke:#6d6f71;stroke-width:0.48649999;stroke-miterlimit:10"
   transform="translate(-33.944,-364.837)" />
<path
   d="M 569.751,5.323"
   id="path147"
   style="fill:none;stroke:#6d6f71;stroke-width:0.48649999;stroke-miterlimit:10" />
<line
   id="line149"
   y2="53.872013"
   x2="647.50806"
   y1="61.333012"
   x1="631.29205"
   stroke-miterlimit="10"
   style="fill:none;stroke:#6d6f71;stroke-width:0.48649999;stroke-miterlimit:10" />
<path
   d="m 647.508,54.767 c -0.162,0 -11.351,-4.301 -11.351,-4.301"
   id="path151"
   style="fill:none;stroke:#6d6f71;stroke-width:0.48649999;stroke-miterlimit:10" />
<line
   id="line153"
   y2="11.597998"
   x2="657.55804"
   y1="49.494999"
   x1="635.63104"
   stroke-miterlimit="10"
   style="fill:none;stroke:#6d6f71;stroke-width:0.48649999;stroke-miterlimit:10" />
<polyline
   id="polyline155"
   points="680.477,378.979 680.479,380.394   680.533,420.371 "
   stroke-miterlimit="10"
   style="fill:none;stroke:#6d6f71;stroke-width:0.48649999;stroke-miterlimit:10"
   transform="translate(-33.944,-364.837)" />
<path
   d="M 645.895,14.535 C 644.992,14.468 617.832,4.819 617.832,4.819"
   id="path157"
   style="fill:none;stroke:#6d6f71;stroke-width:0.48649999;stroke-miterlimit:10" />
<polyline
   id="polyline159"
   points="690.046,377.441 679.18,378.656   693.693,364.053 691.102,375.008 "
   stroke-miterlimit="10"
   style="fill:none;stroke:#6d6f71;stroke-width:0.48649999;stroke-miterlimit:10"
   transform="translate(-33.944,-364.837)" />
<line
   id="line161"
   y2="0.44199169"
   x2="660.49304"
   y1="-29.212"
   x1="652.091"
   stroke-miterlimit="10"
   style="fill:none;stroke:#6d6f71;stroke-width:0.48649999;stroke-miterlimit:10" />
<line
   id="line163"
   y2="-29.212"
   x2="651.15405"
   y1="-25.17901"
   x1="662.66705"
   stroke-miterlimit="10"
   style="fill:none;stroke:#6d6f71;stroke-width:0.48649999;stroke-miterlimit:10" />
<line
   id="line165"
   y2="-42.695004"
   x2="677.05902"
   y1="-29.925013"
   x1="652.69702"
   stroke-miterlimit="10"
   style="fill:none;stroke:#6d6f71;stroke-width:0.48649999;stroke-miterlimit:10" />
<line
   id="line167"
   y2="-63.610012"
   x2="677.39203"
   y1="-77.857994"
   x1="651.15405"
   stroke-miterlimit="10"
   style="fill:none;stroke:#6d6f71;stroke-width:0.48649999;stroke-miterlimit:10" />
<line
   id="line169"
   y2="-77.857994"
   x2="652.69702"
   y1="-81.601006"
   x1="663.23206"
   stroke-miterlimit="10"
   style="fill:none;stroke:#6d6f71;stroke-width:0.48649999;stroke-miterlimit:10" />
<polyline
   id="polyline171"
   points="711.613,300.738 719.963,311.357   712.714,322.142 712.714,300.332 "
   stroke-miterlimit="10"
   style="fill:none;stroke:#6d6f71;stroke-width:0.48649999;stroke-miterlimit:10"
   transform="translate(-33.944,-364.837)" />
<polyline
   id="polyline173"
   points="694.437,364.053 733.584,366.049   730.663,353.9 692.232,376.061 "
   stroke-miterlimit="10"
   style="fill:none;stroke:#6d6f71;stroke-width:0.48649999;stroke-miterlimit:10"
   transform="translate(-33.944,-364.837)" />
<polyline
   id="polyline175"
   points="745.586,360.169 744.667,359.792   731.328,354.336 741.526,351.983 745.586,359.766 "
   stroke-miterlimit="10"
   style="fill:none;stroke:#6d6f71;stroke-width:0.48649999;stroke-miterlimit:10"
   transform="translate(-33.944,-364.837)" />
<line
   id="line177"
   y2="-53.102993"
   x2="684.72003"
   y1="-10.937006"
   x1="696.19305"
   stroke-miterlimit="10"
   style="fill:none;stroke:#6d6f71;stroke-width:0.48649999;stroke-miterlimit:10" />
<line
   id="line179"
   y2="-15.055994"
   x2="708.16504"
   y1="-42.827999"
   x1="678.40704"
   stroke-miterlimit="10"
   style="fill:none;stroke:#6d6f71;stroke-width:0.48649999;stroke-miterlimit:10" />
<line
   id="line181"
   y2="-30.925013"
   x2="731.74701"
   y1="-4.2040043"
   x1="712.04602"
   stroke-miterlimit="10"
   style="fill:none;stroke:#6d6f71;stroke-width:0.48649999;stroke-miterlimit:10" />
<line
   id="line183"
   y2="26.385992"
   x2="719.341"
   y1="2.6300106"
   x1="700.31006"
   stroke-miterlimit="10"
   style="fill:none;stroke:#6d6f71;stroke-width:0.48649999;stroke-miterlimit:10" />
<line
   id="line185"
   y2="26.385992"
   x2="707.927"
   y1="56.630009"
   x1="713.26105"
   stroke-miterlimit="10"
   style="fill:none;stroke:#6d6f71;stroke-width:0.48649999;stroke-miterlimit:10" />
<line
   id="line187"
   y2="51.428989"
   x2="704.513"
   y1="72.931007"
   x1="678.96503"
   stroke-miterlimit="10"
   style="fill:none;stroke:#6d6f71;stroke-width:0.48649999;stroke-miterlimit:10" />
<line
   id="line189"
   y2="62.178989"
   x2="677.66901"
   y1="66.522011"
   x1="642.96906"
   stroke-miterlimit="10"
   style="fill:none;stroke:#6d6f71;stroke-width:0.48649999;stroke-miterlimit:10" />
<line
   id="line191"
   y2="85.224007"
   x2="617.32703"
   y1="66.035988"
   x1="643.20703"
   stroke-miterlimit="10"
   style="fill:none;stroke:#6d6f71;stroke-width:0.48649999;stroke-miterlimit:10" />
<line
   id="line193"
   y2="99.034004"
   x2="593.24506"
   y1="91.091011"
   x1="625.20605"
   stroke-miterlimit="10"
   style="fill:none;stroke:#6d6f71;stroke-width:0.48649999;stroke-miterlimit:10" />
<line
   id="line195"
   y2="85.224007"
   x2="569.39001"
   y1="110.085"
   x1="591.62402"
   stroke-miterlimit="10"
   style="fill:none;stroke:#6d6f71;stroke-width:0.48649999;stroke-miterlimit:10" />
<line
   id="line197"
   y2="64.670998"
   x2="557.10901"
   y1="95.453987"
   x1="563.52502"
   stroke-miterlimit="10"
   style="fill:none;stroke:#6d6f71;stroke-width:0.48649999;stroke-miterlimit:10" />
<line
   id="line199"
   y2="-29.721003"
   x2="453.64001"
   y1="-3.7180119"
   x1="473.66699"
   stroke-miterlimit="10"
   style="fill:none;stroke:#6d6f71;stroke-width:0.48649999;stroke-miterlimit:10" />
<line
   id="line201"
   y2="-54.450008"
   x2="443.01901"
   y1="-23.23501"
   x1="445.36899"
   stroke-miterlimit="10"
   style="fill:none;stroke:#6d6f71;stroke-width:0.48649999;stroke-miterlimit:10" />
<line
   id="line203"
   y2="-78.045006"
   x2="455.927"
   y1="-54.450008"
   x1="429.85599"
   stroke-miterlimit="10"
   style="fill:none;stroke:#6d6f71;stroke-width:0.48649999;stroke-miterlimit:10" />
<line
   id="line205"
   y2="-91.830009"
   x2="477.138"
   y1="-88.349998"
   x1="450.05801"
   stroke-miterlimit="10"
   style="fill:none;stroke:#6d6f71;stroke-width:0.48649999;stroke-miterlimit:10" />
<line
   id="line207"
   y2="-135.595"
   x2="477.47699"
   y1="-103.34899"
   x1="474.202"
   stroke-miterlimit="10"
   style="fill:none;stroke:#6d6f71;stroke-width:0.48649999;stroke-miterlimit:10" />
<line
   id="line209"
   y2="-162.612"
   x2="488.91"
   y1="-135.354"
   x1="467.26199"
   stroke-miterlimit="10"
   style="fill:none;stroke:#6d6f71;stroke-width:0.48649999;stroke-miterlimit:10" />
<line
   id="line211"
   y2="-167.461"
   x2="514.45203"
   y1="-169.99101"
   x1="479.74899"
   stroke-miterlimit="10"
   style="fill:none;stroke:#6d6f71;stroke-width:0.48649999;stroke-miterlimit:10" />
<line
   id="line213"
   y2="-162.53101"
   x2="539.26202"
   y1="-179.90201"
   x1="513.07501"
   stroke-miterlimit="10"
   style="fill:none;stroke:#6d6f71;stroke-width:0.48649999;stroke-miterlimit:10" />
<line
   id="line215"
   y2="-199.067"
   x2="560.59003"
   y1="-169.408"
   x1="555.19702"
   stroke-miterlimit="10"
   style="fill:none;stroke:#6d6f71;stroke-width:0.48649999;stroke-miterlimit:10" />
<line
   id="line217"
   y2="-216.612"
   x2="589.36804"
   y1="-192.99001"
   x1="569.93805"
   stroke-miterlimit="10"
   style="fill:none;stroke:#6d6f71;stroke-width:0.48649999;stroke-miterlimit:10" />
<line
   id="line219"
   y2="-199.067"
   x2="626.13104"
   y1="-204.802"
   x1="590.56702"
   stroke-miterlimit="10"
   style="fill:none;stroke:#6d6f71;stroke-width:0.48649999;stroke-miterlimit:10" />
<line
   id="line221"
   y2="-170.802"
   x2="643.92303"
   y1="-191.498"
   x1="617.13104"
   stroke-miterlimit="10"
   style="fill:none;stroke:#6d6f71;stroke-width:0.48649999;stroke-miterlimit:10" />
<line
   id="line223"
   y2="-180.692"
   x2="672.36804"
   y1="-163.26001"
   x1="646.85803"
   stroke-miterlimit="10"
   style="fill:none;stroke:#6d6f71;stroke-width:0.48649999;stroke-miterlimit:10" />
<line
   id="line225"
   y2="-171.97601"
   x2="704.18201"
   y1="-169.828"
   x1="673.61304"
   stroke-miterlimit="10"
   style="fill:none;stroke:#6d6f71;stroke-width:0.48649999;stroke-miterlimit:10" />
<line
   id="line227"
   y2="-135.045"
   x2="719.18103"
   y1="-162.93501"
   x1="698.58704"
   stroke-miterlimit="10"
   style="fill:none;stroke:#6d6f71;stroke-width:0.48649999;stroke-miterlimit:10" />
<line
   id="line229"
   y2="-102.52999"
   x2="712.44806"
   y1="-135.045"
   x1="707.927"
   stroke-miterlimit="10"
   style="fill:none;stroke:#6d6f71;stroke-width:0.48649999;stroke-miterlimit:10" />
<polyline
   id="polyline231"
   points="736.003,257.96 731.8,268.387   738.934,271.408 "
   stroke-miterlimit="10"
   style="fill:none;stroke:#6d6f71;stroke-width:0.48649999;stroke-miterlimit:10"
   transform="translate(-33.944,-364.837)" />
<line
   id="line233"
   y2="-101.55898"
   x2="710.18903"
   y1="-96.693993"
   x1="697.21002"
   stroke-miterlimit="10"
   style="fill:none;stroke:#6d6f71;stroke-width:0.48649999;stroke-miterlimit:10" />
<line
   id="line235"
   y2="-85.760002"
   x2="737.328"
   y1="-91.830009"
   x1="705.72003"
   stroke-miterlimit="10"
   style="fill:none;stroke:#6d6f71;stroke-width:0.48649999;stroke-miterlimit:10" />
<line
   id="line237"
   y2="-54.20599"
   x2="756.23505"
   y1="-77.316002"
   x1="732.88"
   stroke-miterlimit="10"
   style="fill:none;stroke:#6d6f71;stroke-width:0.48649999;stroke-miterlimit:10" />
<line
   id="line239"
   y2="-23.639002"
   x2="740.91003"
   y1="-54.20599"
   x1="744.63904"
   stroke-miterlimit="10"
   style="fill:none;stroke:#6d6f71;stroke-width:0.48649999;stroke-miterlimit:10" />
<line
   id="line241"
   y2="-91.830009"
   x2="704.99005"
   y1="-63.610012"
   x1="677.66901"
   stroke-miterlimit="10"
   style="fill:none;stroke:#6d6f71;stroke-width:0.48649999;stroke-miterlimit:10" />
<line
   id="line243"
   y2="-52.020992"
   x2="685.61505"
   y1="-95.723991"
   x1="697.04706"
   stroke-miterlimit="10"
   style="fill:none;stroke:#6d6f71;stroke-width:0.48649999;stroke-miterlimit:10" />
<line
   id="line245"
   y2="-105.46401"
   x2="660.70605"
   y1="-106.87701"
   x1="701.02002"
   stroke-miterlimit="10"
   style="fill:none;stroke:#6d6f71;stroke-width:0.48649999;stroke-miterlimit:10" />
<line
   id="line247"
   y2="-96.450005"
   x2="696.19305"
   y1="-119.072"
   x1="657.55804"
   stroke-miterlimit="10"
   style="fill:none;stroke:#6d6f71;stroke-width:0.48649999;stroke-miterlimit:10" />
<polyline
   id="polyline249"
   points="679.262,244.322 652.019,252.251   657.288,240.981 "
   stroke-miterlimit="10"
   style="fill:none;stroke:#6d6f71;stroke-width:0.48649999;stroke-miterlimit:10"
   transform="translate(-33.944,-364.837)" />
<line
   id="line251"
   y2="-77.351006"
   x2="652.091"
   y1="-123.449"
   x1="622.99603"
   stroke-miterlimit="10"
   style="fill:none;stroke:#6d6f71;stroke-width:0.48649999;stroke-miterlimit:10" />
<line
   id="line253"
   y2="-112.078"
   x2="617.77106"
   y1="-82.826012"
   x1="662.789"
   stroke-miterlimit="10"
   style="fill:none;stroke:#6d6f71;stroke-width:0.48649999;stroke-miterlimit:10" />
<polyline
   id="polyline255"
   points="685.922,286.17 694.437,259.373   680.802,244.952 691.502,246.169 693.045,257.458 "
   stroke-miterlimit="10"
   style="fill:none;stroke:#6d6f71;stroke-width:0.48649999;stroke-miterlimit:10"
   transform="translate(-33.944,-364.837)" />
<line
   id="line257"
   y2="-32.018002"
   x2="652.90802"
   y1="-83.558983"
   x1="663.427"
   stroke-miterlimit="10"
   style="fill:none;stroke:#6d6f71;stroke-width:0.48649999;stroke-miterlimit:10" />
<line
   id="line259"
   y2="-27.196985"
   x2="662.789"
   y1="-77.717003"
   x1="652.09406"
   stroke-miterlimit="10"
   style="fill:none;stroke:#6d6f71;stroke-width:0.48649999;stroke-miterlimit:10" />
<line
   id="line261"
   y2="-24.869989"
   x2="663.427"
   y1="5.8710079"
   x1="619.37103"
   stroke-miterlimit="10"
   style="fill:none;stroke:#6d6f71;stroke-width:0.48649999;stroke-miterlimit:10" />
<path
   d="M 653.675,-28.33"
   id="path263"
   style="fill:none;stroke:#6d6f71;stroke-width:0.48649999;stroke-miterlimit:10" />
<line
   id="line265"
   y2="5.8710079"
   x2="617.83105"
   y1="15.215002"
   x1="564.88605"
   stroke-miterlimit="10"
   style="fill:none;stroke:#6d6f71;stroke-width:0.48649999;stroke-miterlimit:10" />
<line
   id="line267"
   y2="17.469"
   x2="622.99603"
   y1="5.3230038"
   x1="568.98102"
   stroke-miterlimit="10"
   style="fill:none;stroke:#6d6f71;stroke-width:0.48649999;stroke-miterlimit:10" />
<path
   d="M 537.638,1.521"
   id="path269"
   style="fill:none;stroke:#6d6f71;stroke-width:0.48649999;stroke-miterlimit:10" />
<polyline
   id="polyline271"
   points="562.259,364.053 568.263,335.034   558.045,340.55 "
   stroke-miterlimit="10"
   style="fill:none;stroke:#6d6f71;stroke-width:0.48649999;stroke-miterlimit:10"
   transform="translate(-33.944,-364.837)" />
<path
   d="M 560.857,13.997"
   id="path273"
   style="fill:none;stroke:#6d6f71;stroke-width:0.48649999;stroke-miterlimit:10" />
<line
   id="line275"
   y2="-42.101009"
   x2="507.86301"
   y1="-16.523005"
   x1="479.74899"
   stroke-miterlimit="10"
   style="fill:none;stroke:#6d6f71;stroke-width:0.48649999;stroke-miterlimit:10" />
<polyline
   id="polyline277"
   points="522.65,354.252 534.612,311.357   541.66,321.955 542.154,300.738 534.612,310.821 "
   stroke-miterlimit="10"
   style="fill:none;stroke:#6d6f71;stroke-width:0.48649999;stroke-miterlimit:10"
   transform="translate(-33.944,-364.837)" />
<line
   id="line279"
   y2="-64.098991"
   x2="508.81198"
   y1="-91.037987"
   x1="479.74899"
   stroke-miterlimit="10"
   style="fill:none;stroke:#6d6f71;stroke-width:0.48649999;stroke-miterlimit:10" />
<line
   id="line281"
   y2="-96.66201"
   x2="490.69699"
   y1="-53.771999"
   x1="501.76401"
   stroke-miterlimit="10"
   style="fill:none;stroke:#6d6f71;stroke-width:0.48649999;stroke-miterlimit:10" />
<polyline
   id="polyline283"
   points="557.234,340.021 557.234,342.169   602.16,370.16 "
   stroke-miterlimit="10"
   style="fill:none;stroke:#6d6f71;stroke-width:0.48649999;stroke-miterlimit:10"
   transform="translate(-33.944,-364.837)" />
<line
   id="line285"
   y2="-28.804987"
   x2="534.70404"
   y1="14.872992"
   x1="563.52502"
   stroke-miterlimit="10"
   style="fill:none;stroke:#6d6f71;stroke-width:0.48649999;stroke-miterlimit:10" />
<line
   id="line287"
   y2="-77.779991"
   x2="534.70404"
   y1="-23.719995"
   x1="523.51801"
   stroke-miterlimit="10"
   style="fill:none;stroke:#6d6f71;stroke-width:0.48649999;stroke-miterlimit:10" />
<line
   id="line289"
   y2="-29.803003"
   x2="533.94202"
   y1="-82.826012"
   x1="521.80103"
   stroke-miterlimit="10"
   style="fill:none;stroke:#6d6f71;stroke-width:0.48649999;stroke-miterlimit:10" />
<line
   id="line291"
   y2="-62.813992"
   x2="507.71597"
   y1="-75.732994"
   x1="532.72406"
   stroke-miterlimit="10"
   style="fill:none;stroke:#6d6f71;stroke-width:0.48649999;stroke-miterlimit:10" />
<line
   id="line293"
   y2="-42.101009"
   x2="510.34402"
   y1="-28.804987"
   x1="533.94202"
   stroke-miterlimit="10"
   style="fill:none;stroke:#6d6f71;stroke-width:0.48649999;stroke-miterlimit:10" />
<line
   id="line295"
   y2="-77.779991"
   x2="534.70404"
   y1="-82.826012"
   x1="521.80103"
   stroke-miterlimit="10"
   style="fill:none;stroke:#6d6f71;stroke-width:0.48649999;stroke-miterlimit:10" />
<line
   id="line297"
   y2="-111.755"
   x2="568.677"
   y1="-83.192009"
   x1="521.80103"
   stroke-miterlimit="10"
   style="fill:none;stroke:#6d6f71;stroke-width:0.48649999;stroke-miterlimit:10" />
<line
   id="line299"
   y2="-122.69199"
   x2="563.52502"
   y1="-77.779991"
   x1="534.70404"
   stroke-miterlimit="10"
   style="fill:none;stroke:#6d6f71;stroke-width:0.48649999;stroke-miterlimit:10" />
<polyline
   id="polyline301"
   points="558.677,259.373 559.938,258.242   575.446,244.322 563.154,245.765 "
   stroke-miterlimit="10"
   style="fill:none;stroke:#6d6f71;stroke-width:0.48649999;stroke-miterlimit:10"
   transform="translate(-33.944,-364.837)" />
<line
   id="line303"
   y2="-118.79499"
   x2="528.24902"
   y1="-106.17001"
   x1="525.94501"
   stroke-miterlimit="10"
   style="fill:none;stroke:#6d6f71;stroke-width:0.48649999;stroke-miterlimit:10" />
<polyline
   id="polyline305"
   points="575.446,246.042 601.382,253.672   598.18,242.145 "
   stroke-miterlimit="10"
   style="fill:none;stroke:#6d6f71;stroke-width:0.48649999;stroke-miterlimit:10"
   transform="translate(-33.944,-364.837)" />
<line
   id="line307"
   y2="-78.080986"
   x2="534.763"
   y1="-105.12798"
   x1="525.35901"
   stroke-miterlimit="10"
   style="fill:none;stroke:#6d6f71;stroke-width:0.48649999;stroke-miterlimit:10" />
<line
   id="line309"
   y2="14.535009"
   x2="542.20001"
   y1="-1.587"
   x1="527.66901"
   stroke-miterlimit="10"
   style="fill:none;stroke:#6d6f71;stroke-width:0.48649999;stroke-miterlimit:10" />
<line
   id="line311"
   y2="-137.31401"
   x2="582.82703"
   y1="-112.078"
   x1="569.93805"
   stroke-miterlimit="10"
   style="fill:none;stroke:#6d6f71;stroke-width:0.48649999;stroke-miterlimit:10" />
<line
   id="line313"
   y2="-112.98899"
   x2="617.77106"
   y1="-136.856"
   x1="603.07404"
   stroke-miterlimit="10"
   style="fill:none;stroke:#6d6f71;stroke-width:0.48649999;stroke-miterlimit:10" />
<line
   id="line315"
   y2="-123.856"
   x2="622.67902"
   y1="-111.755"
   x1="569.39001"
   stroke-miterlimit="10"
   style="fill:none;stroke:#6d6f71;stroke-width:0.48649999;stroke-miterlimit:10" />
<line
   id="line317"
   y2="-112.48299"
   x2="617.13104"
   y1="-123.449"
   x1="564.88605"
   stroke-miterlimit="10"
   style="fill:none;stroke:#6d6f71;stroke-width:0.48649999;stroke-miterlimit:10" />
<polyline
   id="polyline319"
   points="616.771,225.869 637.506,226.549   628.871,217.793 616.343,227.523 "
   stroke-miterlimit="10"
   style="fill:none;stroke:#6d6f71;stroke-width:0.48649999;stroke-miterlimit:10"
   transform="translate(-33.944,-364.837)" />
<line
   id="line321"
   y2="-160.74701"
   x2="646.85803"
   y1="-120.51499"
   x1="645.89502"
   stroke-miterlimit="10"
   style="fill:none;stroke:#6d6f71;stroke-width:0.48649999;stroke-miterlimit:10" />
<line
   id="line323"
   y2="-120.51499"
   x2="657.203"
   y1="-157.91"
   x1="636.802"
   stroke-miterlimit="10"
   style="fill:none;stroke:#6d6f71;stroke-width:0.48649999;stroke-miterlimit:10" />
<line
   id="line325"
   y2="-161.55701"
   x2="647.992"
   y1="-155.47801"
   x1="635.09906"
   stroke-miterlimit="10"
   style="fill:none;stroke:#6d6f71;stroke-width:0.48649999;stroke-miterlimit:10" />
<line
   id="line327"
   y2="-157.58701"
   x2="635.09906"
   y1="-169.408"
   x1="631.29205"
   stroke-miterlimit="10"
   style="fill:none;stroke:#6d6f71;stroke-width:0.48649999;stroke-miterlimit:10" />
<path
   d="m 635.099,-155.944 c -0.563,-0.182 -40.801,9.388 -40.801,9.388"
   id="path329"
   style="fill:none;stroke:#6d6f71;stroke-width:0.48649999;stroke-miterlimit:10" />
<path
   d="M 550.308,-156.516"
   id="path331"
   style="fill:none;stroke:#6d6f71;stroke-width:0.48649999;stroke-miterlimit:10" />
<line
   id="line333"
   y2="-146.15201"
   x2="595.20605"
   y1="-156.85501"
   x1="550.77704"
   stroke-miterlimit="10"
   style="fill:none;stroke:#6d6f71;stroke-width:0.48649999;stroke-miterlimit:10" />
<polyline
   id="polyline335"
   points="615.694,227.197 589.423,194.602   584.252,208.321 573.531,203.768 575.446,243.905 "
   stroke-miterlimit="10"
   style="fill:none;stroke:#6d6f71;stroke-width:0.48649999;stroke-miterlimit:10"
   transform="translate(-33.944,-364.837)" />
<line
   id="line337"
   y2="-155.944"
   x2="548.66705"
   y1="-119.47601"
   x1="527.66901"
   stroke-miterlimit="10"
   style="fill:none;stroke:#6d6f71;stroke-width:0.48649999;stroke-miterlimit:10" />
<line
   id="line339"
   y2="-105.46401"
   x2="524.73303"
   y1="-104.44399"
   x1="485.19803"
   stroke-miterlimit="10"
   style="fill:none;stroke:#6d6f71;stroke-width:0.48649999;stroke-miterlimit:10" />
<line
   id="line341"
   y2="-119.47601"
   x2="527.09705"
   y1="-97.451012"
   x1="490.69699"
   stroke-miterlimit="10"
   style="fill:none;stroke:#6d6f71;stroke-width:0.48649999;stroke-miterlimit:10" />
<polygon
   points="651.075,286.17 627.189,277.615 603.882,286.17 593.049,310.04 603.334,333.912 627.189,345.1 651.075,333.909 660.963,310.04 "
   transform="translate(-33.944,-364.837)"
   id="polygon343"
   style="fill:none;stroke:#6d6f71;stroke-width:0.48649999;stroke-miterlimit:10" />
<polyline
   id="polyline345"
   points="612.764,310.04 627.189,295.564   640.434,310.04 612.126,310.04 604.666,285.899 "
   stroke-miterlimit="10"
   style="fill:none;stroke:#6d6f71;stroke-width:0.48649999;stroke-miterlimit:10"
   transform="translate(-33.944,-364.837)" />
<polyline
   id="polyline347"
   points="612.764,310.04 626.398,323.696   640.434,311.065 "
   stroke-miterlimit="10"
   style="fill:none;stroke:#6d6f71;stroke-width:0.48649999;stroke-miterlimit:10"
   transform="translate(-33.944,-364.837)" />
<line
   id="line349"
   y2="-41.140987"
   x2="592.45404"
   y1="-68.12899"
   x1="594.29803"
   stroke-miterlimit="10"
   style="fill:none;stroke:#6d6f71;stroke-width:0.48649999;stroke-miterlimit:10" />
<polyline
   id="polyline351"
   points="613.408,310.04 603.882,332.691   627.189,323.696 627.672,346.714 "
   stroke-miterlimit="10"
   style="fill:none;stroke:#6d6f71;stroke-width:0.48649999;stroke-miterlimit:10"
   transform="translate(-33.944,-364.837)" />
<line
   id="line353"
   y2="-41.140987"
   x2="594.29803"
   y1="-31.739008"
   x1="617.13104"
   stroke-miterlimit="10"
   style="fill:none;stroke:#6d6f71;stroke-width:0.48649999;stroke-miterlimit:10" />
<line
   id="line355"
   y2="-32.615017"
   x2="617.83105"
   y1="-54.796993"
   x1="606.49005"
   stroke-miterlimit="10"
   style="fill:none;stroke:#6d6f71;stroke-width:0.48649999;stroke-miterlimit:10" />
<line
   id="line357"
   y2="-53.771999"
   x2="607.01904"
   y1="-53.771999"
   x1="625.20605"
   stroke-miterlimit="10"
   style="fill:none;stroke:#6d6f71;stroke-width:0.48649999;stroke-miterlimit:10" />
<line
   id="line359"
   y2="-54.635006"
   x2="607.01904"
   y1="-77.566002"
   x1="616.11505"
   stroke-miterlimit="10"
   style="fill:none;stroke:#6d6f71;stroke-width:0.48649999;stroke-miterlimit:10" />
<line
   id="line361"
   y2="-77.030998"
   x2="614.70203"
   y1="-69.273003"
   x1="593.24506"
   stroke-miterlimit="10"
   style="fill:none;stroke:#6d6f71;stroke-width:0.48649999;stroke-miterlimit:10" />
<line
   id="line363"
   y2="-85.760002"
   x2="592.28101"
   y1="-70.734001"
   x1="593.06201"
   stroke-miterlimit="10"
   style="fill:none;stroke:#6d6f71;stroke-width:0.48649999;stroke-miterlimit:10" />
<line
   id="line365"
   y2="-68.749992"
   x2="593.72803"
   y1="-79.730003"
   x1="568.98102"
   stroke-miterlimit="10"
   style="fill:none;stroke:#6d6f71;stroke-width:0.48649999;stroke-miterlimit:10" />
<line
   id="line367"
   y2="-53.771999"
   x2="561.47705"
   y1="-54.635006"
   x1="577.04504"
   stroke-miterlimit="10"
   style="fill:none;stroke:#6d6f71;stroke-width:0.48649999;stroke-miterlimit:10" />
<polyline
   id="polyline369"
   points="650.059,334.386 604.666,333.912   602.925,288.28 650.321,285.899 652.019,332.819 "
   stroke-miterlimit="10"
   style="fill:none;stroke:#6d6f71;stroke-width:0.48649999;stroke-miterlimit:10"
   transform="translate(-33.944,-364.837)" />
<polyline
   id="polyline371"
   points="593.447,309.158 626.881,276.82   662.299,310.633 626.615,345.1 594.534,310.633 "
   stroke-miterlimit="10"
   style="fill:none;stroke:#6d6f71;stroke-width:0.48649999;stroke-miterlimit:10"
   transform="translate(-33.944,-364.837)" />
<path
   d="m 593.276,-217.043 c -19.306,0 -36.558,16.921 -49.228,44.771 -28.658,-10.733 -52.828,-10.5 -66.463,3.14 -7.191,7.216 -10.836,17.315 -10.836,30.058 0,10.804 2.704,23.156 7.704,36.392 -27.842,12.667 -44.766,29.911 -44.766,49.2 0,19.292 16.924,36.536 44.766,49.203 -5.003,13.236 -7.704,25.579 -7.704,36.382 0,12.756 3.645,22.867 10.836,30.084 13.648,13.629 37.816,13.865 66.469,3.129 12.667,27.85 29.916,44.77 49.222,44.77 19.278,0 36.524,-16.916 49.194,-44.77 28.65,10.736 52.82,10.5 66.457,-3.129 7.2,-7.217 10.831,-17.328 10.831,-30.084 0,-10.803 -2.698,-23.151 -7.698,-36.385 27.842,-12.664 44.75,-29.911 44.75,-49.2 0,-19.286 -16.908,-36.53 -44.753,-49.194 5.003,-13.239 7.701,-25.594 7.701,-36.397 0,-12.743 -3.631,-22.842 -10.831,-30.058 -13.637,-13.638 -37.807,-13.874 -66.457,-3.143 -12.67,-27.848 -29.916,-44.769 -49.194,-44.769 z"
   id="path373"
   style="fill:none;stroke:#6d6e71;stroke-width:0.97299999;stroke-miterlimit:10" />
<polyline
   id="polyline375"
   points="820.176,530.18 748.922,458.859   625.568,474.922 "
   stroke-miterlimit="10"
   style="fill:none;stroke:#d1d3d4;stroke-width:0.69419998;stroke-miterlimit:10"
   transform="translate(-33.944,-364.837)" />
<line
   id="line377"
   y2="94.096992"
   x2="717.20404"
   y1="164.08499"
   x1="783.31805"
   stroke-miterlimit="10"
   style="fill:none;stroke:#d1d3d4;stroke-width:0.48649999;stroke-miterlimit:10" />
<line
   id="line379"
   y2="-343.25201"
   x2="604.20905"
   y1="-303.15799"
   x1="531.71802"
   stroke-miterlimit="10"
   style="fill:none;stroke:#a7a9ac;stroke-width:0.69419998;stroke-miterlimit:10" />
<line
   id="line381"
   y2="-300.737"
   x2="930.651"
   y1="-314.819"
   x1="860.18005"
   stroke-miterlimit="10"
   style="fill:none;stroke:#d1d3d4;stroke-width:0.69419998;stroke-miterlimit:10" />
<path
   d="m 855.068,-169.967 c 0,-2.82 2.287,-5.111 5.106,-5.111 2.826,0 5.117,2.292 5.117,5.111 0,2.82 -2.291,5.109 -5.117,5.109 -2.819,0 -5.106,-2.289 -5.106,-5.109 z"
   id="path383"
   style="fill:#d0d1d2" />
<path
   d="m 659.424,-323.337 c 0,-4.697 3.808,-8.512 8.515,-8.512 4.699,0 8.521,3.815 8.521,8.512 0,4.702 -3.821,8.518 -8.521,8.518 -4.707,0 -8.515,-3.816 -8.515,-8.518 z"
   id="path385"
   style="fill:#bbbcbe" />
<path
   d="m 402.881,-318.494 c 0,-4.697 3.811,-8.515 8.513,-8.515 4.702,0 8.521,3.818 8.521,8.515 0,4.702 -3.818,8.518 -8.521,8.518 -4.703,0 -8.513,-3.816 -8.513,-8.518 z"
   id="path387"
   style="fill:#d0d1d2" />
<path
   d="m 777.717,165.339 c 0,-4.695 3.808,-8.514 8.513,-8.514 4.705,0 8.523,3.818 8.523,8.514 0,4.703 -3.818,8.52 -8.523,8.52 -4.705,0 -8.513,-3.817 -8.513,-8.52 z"
   id="path389"
   style="fill:#a5a8ab" />
<path
   d="m 529.299,-303.158 c 0,-1.337 1.085,-2.422 2.419,-2.422 1.34,0 2.424,1.085 2.424,2.422 0,1.337 -1.084,2.421 -2.424,2.421 -1.334,0 -2.419,-1.084 -2.419,-2.421 z"
   id="path391"
   style="fill:#6d6e71" />
<path
   d="m 801.324,17.797 c 0,-1.334 1.088,-2.419 2.427,-2.419 1.335,0 2.416,1.085 2.416,2.419 0,1.337 -1.081,2.422 -2.416,2.422 -1.34,10e-4 -2.427,-1.085 -2.427,-2.422 z"
   id="path393"
   style="fill:#6d6f71" />
<circle
   cx="334.49399"
   cy="171.636"
   r="2.421"
   transform="translate(-33.944,-364.837)"
   id="circle395"
   style="fill:#6d6e71" />
<path
   d="m 943.063,-108.764 c 0,-4.697 3.81,-8.513 8.513,-8.513 4.705,0 8.522,3.815 8.522,8.513 0,4.702 -3.817,8.518 -8.522,8.518 -4.704,-0.001 -8.513,-3.816 -8.513,-8.518 z"
   id="path397"
   style="fill:#6d6e71" />
<path
   d="m 853.271,-314.822 c 0,-3.807 3.088,-6.899 6.903,-6.899 3.815,0 6.913,3.092 6.913,6.899 0,3.815 -3.098,6.907 -6.913,6.907 -3.815,0 -6.903,-3.091 -6.903,-6.907 z"
   id="path399"
   style="fill:#6d6e71" />
<path
   d="m 708.074,94.02 c 0,-3.809 3.092,-6.902 6.898,-6.902 3.815,0 6.912,3.094 6.912,6.902 0,3.812 -3.097,6.906 -6.912,6.906 -3.807,0.001 -6.898,-3.093 -6.898,-6.906 z"
   id="path401"
   style="fill:#6d6e71" />
<path
   d="m 915.167,82.77 c 2.312,0 4.191,1.883 4.191,4.199 0,2.32 -1.879,4.199 -4.191,4.199 -2.322,0 -4.204,-1.879 -4.204,-4.199 0,-2.316 1.882,-4.199 4.204,-4.199 z"
   id="path403"
   style="fill:#d0d1d2" />
<path
   d="m 398.686,-249.983 c 2.316,0 4.195,1.882 4.195,4.2 0,2.319 -1.879,4.198 -4.195,4.198 -2.321,0 -4.201,-1.879 -4.201,-4.198 10e-4,-2.318 1.88,-4.2 4.201,-4.2 z"
   id="path405"
   style="fill:#a5a8ab" />
<path
   d="m 769.788,-251.944 c 2.312,0 4.197,1.879 4.197,4.198 0,2.321 -1.885,4.201 -4.197,4.201 -2.321,0 -4.201,-1.879 -4.201,-4.201 0,-2.319 1.88,-4.198 4.201,-4.198 z"
   id="path407"
   style="fill:#a5a8ab" />
<path
   d="m 684.072,138.965 c 2.316,0 4.201,1.881 4.201,4.197 0,2.32 -1.885,4.199 -4.201,4.199 -2.315,0 -4.197,-1.879 -4.197,-4.199 -10e-4,-2.316 1.881,-4.197 4.197,-4.197 z"
   id="path409"
   style="fill:#d0d1d2" />
<path
   d="m 604.209,-347.45 c 2.319,0 4.198,1.879 4.198,4.198 0,2.318 -1.879,4.198 -4.198,4.198 -2.315,0 -4.198,-1.879 -4.198,-4.198 0,-2.319 1.883,-4.198 4.198,-4.198 z"
   id="path411"
   style="fill:#d0d1d2" />
<path
   d="m 930.654,-304.935 c 2.316,0 4.195,1.879 4.195,4.198 0,2.319 -1.879,4.198 -4.195,4.198 -2.318,0 -4.203,-1.879 -4.203,-4.198 0,-2.319 1.884,-4.198 4.203,-4.198 z"
   id="path413"
   style="fill:#d0d1d2" />
<path
   d="M 480.07,64.819"
   id="path415"
   style="fill:#059a4c" />
<path
   d="M 479.749,-16.523"
   id="path417"
   style="fill:#059a4c" />
<circle
   cx="593.44702"
   cy="310.04099"
   r="2.9330001"
   transform="translate(-33.944,-364.837)"
   id="circle419"
   style="fill:#fc4c02" />
<path
   d="m 578.814,-56.414 c 0.895,0 1.616,0.724 1.616,1.616 0,0.892 -0.722,1.616 -1.616,1.616 -0.89,0 -1.611,-0.724 -1.611,-1.616 0,-0.892 0.721,-1.616 1.611,-1.616 z"
   id="path421"
   style="fill:#fc4c02" />
<path
   d="m 429.687,-60.519 c 3.162,0 5.722,2.562 5.722,5.722 0,3.16 -2.56,5.722 -5.722,5.722 -3.157,0 -5.722,-2.563 -5.722,-5.722 0,-3.159 2.566,-5.722 5.722,-5.722 z"
   id="path423"
   style="fill:#fc4c02" />
<path
   d="m 474.202,-6.649 c 1.619,0 2.937,1.315 2.937,2.937 0,1.616 -1.318,2.929 -2.937,2.929 -1.619,0 -2.935,-1.312 -2.935,-2.929 0,-1.623 1.315,-2.937 2.935,-2.937 z"
   id="path425"
   style="fill:#fc4c02" />
<path
   d="m 474.202,-105.462 c 1.619,0 2.937,1.312 2.937,2.932 0,1.622 -1.318,2.934 -2.937,2.934 -1.619,0 -2.935,-1.312 -2.935,-2.934 0,-1.619 1.315,-2.932 2.935,-2.932 z"
   id="path427"
   style="fill:#fc4c02" />
<path
   d="m 543.476,-175.274 c 1.625,0 2.938,1.312 2.938,2.937 0,1.617 -1.312,2.929 -2.938,2.929 -1.615,0 -2.931,-1.312 -2.931,-2.929 0,-1.624 1.316,-2.937 2.931,-2.937 z"
   id="path429"
   style="fill:#fc4c02" />
<circle
   cx="573.20599"
   cy="202.957"
   r="2.934"
   transform="translate(-33.944,-364.837)"
   id="circle431"
   style="fill:#fc4c02" />
<path
   d="m 590.317,-219.975 c 1.619,0 2.929,1.312 2.929,2.932 0,1.622 -1.31,2.934 -2.929,2.934 -1.624,0 -2.934,-1.312 -2.934,-2.934 0,-1.619 1.31,-2.932 2.934,-2.932 z"
   id="path433"
   style="fill:#fc4c02" />
<path
   d="m 642.963,-175.274 c 1.622,0 2.932,1.312 2.932,2.937 0,1.617 -1.31,2.929 -2.932,2.929 -1.616,0 -2.929,-1.312 -2.929,-2.929 10e-4,-1.624 1.313,-2.937 2.929,-2.937 z"
   id="path435"
   style="fill:#fc4c02" />
<path
   d="m 704.99,-175.274 c 1.622,0 2.938,1.312 2.938,2.937 0,1.617 -1.315,2.929 -2.938,2.929 -1.615,0 -2.931,-1.312 -2.931,-2.929 0,-1.624 1.315,-2.937 2.931,-2.937 z"
   id="path437"
   style="fill:#fc4c02" />
<path
   d="m 712.046,-110.405 c 4.081,0 7.393,3.306 7.393,7.392 0,4.079 -3.312,7.384 -7.393,7.384 -4.081,0 -7.39,-3.306 -7.39,-7.384 0.001,-4.086 3.309,-7.392 7.39,-7.392 z"
   id="path439"
   style="fill:#fc4c02" />
<path
   d="m 756.81,-57.729 c 1.621,0 2.932,1.312 2.932,2.931 0,1.622 -1.311,2.934 -2.932,2.934 -1.616,0 -2.929,-1.312 -2.929,-2.934 0,-1.618 1.313,-2.931 2.929,-2.931 z"
   id="path441"
   style="fill:#fc4c02" />
<circle
   cx="745.98999"
   cy="360.63501"
   r="2.9330001"
   transform="translate(-33.944,-364.837)"
   id="circle443"
   style="fill:#fc4c02" />
<path
   d="m 642.963,58.956 c 3.913,0 7.083,3.17 7.083,7.084 0,3.908 -3.17,7.082 -7.083,7.082 -3.91,0 -7.077,-3.174 -7.077,-7.082 0,-3.914 3.167,-7.084 7.077,-7.084 z"
   id="path445"
   style="fill:#fc4c02" />
<path
   d="m 713.787,54.362 c 1.621,0 2.937,1.312 2.937,2.936 0,1.617 -1.315,2.934 -2.937,2.934 -1.622,0 -2.932,-1.316 -2.932,-2.934 10e-4,-1.623 1.31,-2.936 2.932,-2.936 z"
   id="path447"
   style="fill:#fc4c02" />
<path
   d="m 591.624,107.155 c 1.621,0 2.937,1.312 2.937,2.932 0,1.62 -1.315,2.934 -2.937,2.934 -1.616,0 -2.932,-1.314 -2.932,-2.934 0,-1.62 1.316,-2.932 2.932,-2.932 z"
   id="path449"
   style="fill:#fc4c02" />
<path
   d="m 544.434,56.071 c 5.51,0 9.968,4.463 9.968,9.969 0,5.502 -4.458,9.965 -9.968,9.965 -5.5,0 -9.964,-4.463 -9.964,-9.965 0,-5.506 4.464,-9.969 9.964,-9.969 z"
   id="path451"
   style="fill:#fc4c02" />
<path
   d="m 480.064,61.888 c 1.622,0 2.938,1.312 2.938,2.934 0,1.619 -1.315,2.932 -2.938,2.932 -1.616,0 -2.926,-1.312 -2.926,-2.932 0,-1.622 1.31,-2.934 2.926,-2.934 z"
   id="path453"
   style="fill:#fc4c02" />
<path
   d="m 466.746,12.593 c 8.965,0 16.23,7.265 16.23,16.236 0,8.957 -7.265,16.221 -16.23,16.221 -8.965,0 -16.227,-7.264 -16.227,-16.221 0,-8.971 7.263,-16.236 16.227,-16.236 z"
   id="path455"
   style="fill:#fc4c02" />
<circle
   cx="512.96399"
   cy="393.659"
   r="2.9330001"
   transform="translate(-33.944,-364.837)"
   id="circle457"
   style="fill:#fc4c02" />
<path
   d="m 444.922,-25.602 c 1.616,0 2.932,1.312 2.932,2.934 0,1.619 -1.315,2.931 -2.932,2.931 -1.622,0 -2.934,-1.312 -2.934,-2.931 0,-1.622 1.313,-2.934 2.934,-2.934 z"
   id="path459"
   style="fill:#fc4c02" />
<path
   d="m 452.993,-33.857 c 1.622,0 2.934,1.31 2.934,2.934 0,1.616 -1.312,2.929 -2.934,2.929 -1.619,0 -2.935,-1.312 -2.935,-2.929 0,-1.624 1.315,-2.934 2.935,-2.934 z"
   id="path461"
   style="fill:#fc4c02" />
<circle
   cx="489.871"
   cy="286.17001"
   r="2.934"
   transform="translate(-33.944,-364.837)"
   id="circle463"
   style="fill:#fc4c02" />
<path
   d="m 450.058,-91.284 c 1.622,0 2.935,1.312 2.935,2.934 0,1.619 -1.312,2.932 -2.935,2.932 -1.616,0 -2.931,-1.312 -2.931,-2.932 0,-1.622 1.315,-2.934 2.931,-2.934 z"
   id="path465"
   style="fill:#fc4c02" />
<path
   d="m 466.746,-138.288 c 1.622,0 2.935,1.315 2.935,2.934 0,1.619 -1.312,2.934 -2.935,2.934 -1.616,0 -2.929,-1.315 -2.929,-2.934 10e-4,-1.618 1.313,-2.934 2.929,-2.934 z"
   id="path467"
   style="fill:#fc4c02" />
<circle
   cx="511.88199"
   cy="229.483"
   r="5.0630002"
   transform="translate(-33.944,-364.837)"
   id="circle469"
   style="fill:#fc4c02" />
<path
   d="m 514.073,-173.074 c 2.669,0 4.827,2.159 4.827,4.827 0,2.663 -2.158,4.825 -4.827,4.825 -2.663,0 -4.824,-2.162 -4.824,-4.825 -0.001,-2.669 2.161,-4.827 4.824,-4.827 z"
   id="path471"
   style="fill:#fc4c02" />
<path
   d="m 513.275,-182.837 c 1.622,0 2.935,1.312 2.935,2.935 0,1.616 -1.312,2.931 -2.935,2.931 -1.618,0 -2.931,-1.315 -2.931,-2.931 0,-1.623 1.313,-2.935 2.931,-2.935 z"
   id="path473"
   style="fill:#fc4c02" />
<path
   d="m 560.59,-206.117 c 3.895,0 7.051,3.154 7.051,7.05 0,3.892 -3.156,7.048 -7.051,7.048 -3.894,0 -7.05,-3.156 -7.05,-7.048 0,-3.896 3.157,-7.05 7.05,-7.05 z"
   id="path475"
   style="fill:#fc4c02" />
<circle
   cx="603.33398"
   cy="171.636"
   r="2.934"
   transform="translate(-33.944,-364.837)"
   id="circle477"
   style="fill:#fc4c02" />
<path
   d="m 617.131,-194.432 c 1.622,0 2.932,1.315 2.932,2.934 0,1.619 -1.31,2.934 -2.932,2.934 -1.619,0 -2.937,-1.315 -2.937,-2.934 0.001,-1.619 1.318,-2.934 2.937,-2.934 z"
   id="path479"
   style="fill:#fc4c02" />
<path
   d="m 625.928,-202.001 c 1.622,0 2.932,1.315 2.932,2.934 0,1.619 -1.31,2.932 -2.932,2.932 -1.616,0 -2.932,-1.312 -2.932,-2.932 0,-1.619 1.316,-2.934 2.932,-2.934 z"
   id="path481"
   style="fill:#fc4c02" />
<path
   d="m 672.368,-182.837 c 1.619,0 2.932,1.312 2.932,2.935 0,1.616 -1.312,2.931 -2.932,2.931 -1.622,0 -2.932,-1.315 -2.932,-2.931 0,-1.623 1.309,-2.935 2.932,-2.935 z"
   id="path483"
   style="fill:#fc4c02" />
<path
   d="m 673.613,-171.182 c 1.621,0 2.934,1.312 2.934,2.934 0,1.619 -1.312,2.932 -2.934,2.932 -1.614,0 -2.935,-1.312 -2.935,-2.932 0,-1.621 1.32,-2.934 2.935,-2.934 z"
   id="path485"
   style="fill:#fc4c02" />
<path
   d="m 707.927,-138.288 c 1.616,0 2.929,1.315 2.929,2.934 0,1.619 -1.312,2.934 -2.929,2.934 -1.622,0 -2.938,-1.315 -2.938,-2.934 10e-4,-1.618 1.316,-2.934 2.938,-2.934 z"
   id="path487"
   style="fill:#fc4c02" />
<path
   d="m 719.758,-138.288 c 1.622,0 2.94,1.315 2.94,2.934 0,1.619 -1.318,2.934 -2.94,2.934 -1.613,0 -2.926,-1.315 -2.926,-2.934 0,-1.618 1.313,-2.934 2.926,-2.934 z"
   id="path489"
   style="fill:#fc4c02" />
<path
   d="m 732.236,-33.862 c 1.619,0 2.932,1.312 2.932,2.937 0,1.619 -1.312,2.931 -2.932,2.931 -1.622,0 -2.935,-1.312 -2.935,-2.931 0,-1.625 1.313,-2.937 2.935,-2.937 z"
   id="path491"
   style="fill:#fc4c02" />
<path
   d="m 740.259,-25.602 c 1.619,0 2.938,1.315 2.938,2.934 0,1.619 -1.318,2.934 -2.938,2.934 -1.615,0 -2.931,-1.315 -2.931,-2.934 0,-1.619 1.316,-2.934 2.931,-2.934 z"
   id="path493"
   style="fill:#fc4c02" />
<path
   d="m 732.236,-79.892 c 1.619,0 2.932,1.312 2.932,2.934 0,1.616 -1.312,2.932 -2.932,2.932 -1.622,0 -2.935,-1.315 -2.935,-2.932 0,-1.622 1.313,-2.934 2.935,-2.934 z"
   id="path495"
   style="fill:#fc4c02" />
<circle
   cx="772.50299"
   cy="279.078"
   r="2.9330001"
   transform="translate(-33.944,-364.837)"
   id="circle497"
   style="fill:#fc4c02" />
<path
   d="m 707.927,22.968 c 1.616,0 2.929,1.312 2.929,2.936 0,1.619 -1.312,2.932 -2.929,2.932 -1.622,0 -2.938,-1.312 -2.938,-2.932 10e-4,-1.624 1.316,-2.936 2.938,-2.936 z"
   id="path499"
   style="fill:#fc4c02" />
<path
   d="m 719.758,16.346 c 5.929,0 10.72,4.797 10.72,10.719 0,5.918 -4.791,10.717 -10.72,10.717 -5.914,0 -10.711,-4.799 -10.711,-10.717 0,-5.922 4.797,-10.719 10.711,-10.719 z"
   id="path501"
   style="fill:#fc4c02" />
<circle
   cx="713.42401"
   cy="426.724"
   r="4.5929999"
   transform="translate(-33.944,-364.837)"
   id="circle503"
   style="fill:#fc4c02" />
<path
   d="m 678.233,70.015 c 1.622,0 2.935,1.312 2.935,2.936 0,1.617 -1.312,2.93 -2.935,2.93 -1.618,0 -2.934,-1.312 -2.934,-2.93 0,-1.624 1.316,-2.936 2.934,-2.936 z"
   id="path505"
   style="fill:#fc4c02" />
<path
   d="m 627.019,88.157 c 1.621,0 2.934,1.312 2.934,2.934 0,1.619 -1.312,2.932 -2.934,2.932 -1.617,0 -2.932,-1.312 -2.932,-2.932 0,-1.621 1.315,-2.934 2.932,-2.934 z"
   id="path507"
   style="fill:#fc4c02" />
<path
   d="m 617.128,79.675 c 3.067,0 5.551,2.484 5.551,5.551 0,3.064 -2.483,5.549 -5.551,5.549 -3.062,0 -5.545,-2.484 -5.545,-5.549 0,-3.067 2.484,-5.551 5.545,-5.551 z"
   id="path509"
   style="fill:#fc4c02" />
<path
   d="m 569.388,79.712 c 3.048,0 5.513,2.469 5.513,5.514 0,3.039 -2.465,5.508 -5.513,5.508 -3.041,0 -5.506,-2.469 -5.506,-5.508 0,-3.045 2.465,-5.514 5.506,-5.514 z"
   id="path511"
   style="fill:#fc4c02" />
<circle
   cx="597.46899"
   cy="460.29199"
   r="2.9330001"
   transform="translate(-33.944,-364.837)"
   id="circle513"
   style="fill:#fc4c02" />
<path
   d="m 514.073,70.018 c 1.622,0 2.932,1.312 2.932,2.934 0,1.619 -1.31,2.932 -2.932,2.932 -1.619,0 -2.932,-1.312 -2.932,-2.932 0,-1.621 1.312,-2.934 2.932,-2.934 z"
   id="path515"
   style="fill:#fc4c02" />
<path
   d="m 514.073,58.954 c 1.622,0 2.932,1.314 2.932,2.934 0,1.62 -1.31,2.932 -2.932,2.932 -1.619,0 -2.932,-1.312 -2.932,-2.932 0,-1.62 1.312,-2.934 2.932,-2.934 z"
   id="path517"
   style="fill:#fc4c02" />
<path
   d="m 538.568,51.429 c 1.622,0 2.938,1.312 2.938,2.934 0,1.619 -1.315,2.932 -2.938,2.932 -1.618,0 -2.931,-1.312 -2.931,-2.932 0,-1.622 1.313,-2.934 2.931,-2.934 z"
   id="path519"
   style="fill:#fc4c02" />
<path
   d="m 488.706,53.132 c 1.622,0 2.932,1.312 2.932,2.934 0,1.619 -1.31,2.932 -2.932,2.932 -1.621,0 -2.934,-1.312 -2.934,-2.932 0.001,-1.622 1.313,-2.934 2.934,-2.934 z"
   id="path521"
   style="fill:#fc4c02" />
<circle
   cx="519.71698"
   cy="366.987"
   r="1.2690001"
   transform="translate(-33.944,-364.837)"
   id="circle523"
   style="fill:#fc4c02" />
<circle
   cx="475.93201"
   cy="310.04099"
   r="2.9330001"
   transform="translate(-33.944,-364.837)"
   id="circle525"
   style="fill:#fc4c02" />
<path
   d="m 479.02,-96.806 c 3.054,0 5.521,2.476 5.521,5.524 0,3.048 -2.468,5.521 -5.521,5.521 -3.051,0 -5.521,-2.473 -5.521,-5.521 0,-3.048 2.47,-5.524 5.521,-5.524 z"
   id="path527"
   style="fill:#fc4c02" />
<path
   d="m 485.773,-106.999 c 0.852,0 1.534,0.686 1.534,1.538 0,0.843 -0.683,1.532 -1.534,1.532 -0.847,0 -1.538,-0.689 -1.538,-1.532 0,-0.852 0.691,-1.538 1.538,-1.538 z"
   id="path529"
   style="fill:#fc4c02" />
<path
   d="m 488.706,-165.316 c 1.622,0 2.932,1.315 2.932,2.934 0,1.619 -1.31,2.932 -2.932,2.932 -1.621,0 -2.934,-1.312 -2.934,-2.932 0.001,-1.619 1.313,-2.934 2.934,-2.934 z"
   id="path531"
   style="fill:#fc4c02" />
<path
   d="m 590.317,-207.866 c 1.622,0 2.935,1.312 2.935,2.934 0,1.616 -1.312,2.931 -2.935,2.931 -1.618,0 -2.931,-1.315 -2.931,-2.931 0,-1.622 1.313,-2.934 2.931,-2.934 z"
   id="path533"
   style="fill:#fc4c02" />
<path
   d="m 594.558,-148.343 c 0.984,0 1.79,0.8 1.79,1.787 0,0.987 -0.806,1.787 -1.79,1.787 -0.986,0 -1.784,-0.8 -1.784,-1.787 0,-0.987 0.798,-1.787 1.784,-1.787 z"
   id="path535"
   style="fill:#fc4c02" />
<path
   d="m 527.669,-120.932 c 1.025,0 1.86,0.835 1.86,1.863 0,1.028 -0.835,1.86 -1.86,1.86 -1.03,0 -1.863,-0.833 -1.863,-1.86 0,-1.027 0.833,-1.863 1.863,-1.863 z"
   id="path537"
   style="fill:#fc4c02" />
<path
   d="m 500.665,-55.267 c 0.987,0 1.79,0.8 1.79,1.79 0,0.984 -0.803,1.787 -1.79,1.787 -0.986,0 -1.784,-0.803 -1.784,-1.787 0,-0.989 0.798,-1.79 1.784,-1.79 z"
   id="path539"
   style="fill:#fc4c02" />
<path
   d="m 527.669,9.347 c 1.616,0 2.932,1.312 2.932,2.935 0,1.618 -1.315,2.934 -2.932,2.934 -1.621,0 -2.937,-1.315 -2.937,-2.934 10e-4,-1.622 1.316,-2.935 2.937,-2.935 z"
   id="path541"
   style="fill:#fc4c02" />
<path
   d="m 593.262,36.845 c 1.077,0 1.95,0.873 1.95,1.953 0,1.072 -0.873,1.947 -1.95,1.947 -1.074,0 -1.947,-0.875 -1.947,-1.947 0,-1.08 0.873,-1.953 1.947,-1.953 z"
   id="path543"
   style="fill:#fc4c02" />
<path
   d="m 541.505,11.598 c 1.621,0 2.932,1.312 2.932,2.937 0,1.619 -1.311,2.932 -2.932,2.932 -1.622,0 -2.932,-1.312 -2.932,-2.932 10e-4,-1.624 1.31,-2.937 2.932,-2.937 z"
   id="path545"
   style="fill:#fc4c02" />
<path
   d="m 550.302,47.263 c 1.621,0 2.932,1.312 2.932,2.936 0,1.621 -1.311,2.934 -2.932,2.934 -1.616,0 -2.932,-1.312 -2.932,-2.934 0,-1.624 1.316,-2.936 2.932,-2.936 z"
   id="path547"
   style="fill:#fc4c02" />
<path
   d="m 582.39,27.561 c 2.97,0 5.373,2.404 5.373,5.367 0,2.965 -2.403,5.363 -5.373,5.363 -2.958,0 -5.357,-2.398 -5.357,-5.363 0,-2.962 2.399,-5.367 5.357,-5.367 z"
   id="path549"
   style="fill:#fc4c02" />
<path
   d="m 563.525,12.279 c 1.621,0 2.934,1.315 2.934,2.937 0,1.616 -1.312,2.932 -2.934,2.932 -1.622,0 -2.935,-1.315 -2.935,-2.932 0,-1.622 1.313,-2.937 2.935,-2.937 z"
   id="path551"
   style="fill:#fc4c02" />
<circle
   cx="602.62097"
   cy="369.92099"
   r="2.934"
   transform="translate(-33.944,-364.837)"
   id="circle553"
   style="fill:#fc4c02" />
<circle
   cx="568.64801"
   cy="336.02899"
   r="5.8520002"
   transform="translate(-33.944,-364.837)"
   id="circle555"
   style="fill:#fc4c02" />
<path
   d="m 534.704,-80.711 c 1.621,0 2.934,1.312 2.934,2.934 0,1.616 -1.312,2.932 -2.934,2.932 -1.622,0 -2.938,-1.315 -2.938,-2.932 0.001,-1.622 1.316,-2.934 2.938,-2.934 z"
   id="path557"
   style="fill:#fc4c02" />
<path
   d="m 568.677,-113.64 c 1.039,0 1.888,0.843 1.888,1.887 0,1.044 -0.849,1.885 -1.888,1.885 -1.044,0 -1.888,-0.84 -1.888,-1.885 0,-1.044 0.844,-1.887 1.888,-1.887 z"
   id="path559"
   style="fill:#fc4c02" />
<path
   d="m 617.131,-115.01 c 1.622,0 2.932,1.312 2.932,2.932 0,1.619 -1.31,2.931 -2.932,2.931 -1.619,0 -2.937,-1.312 -2.937,-2.931 0.001,-1.619 1.318,-2.932 2.937,-2.932 z"
   id="path561"
   style="fill:#fc4c02" />
<path
   d="m 651.763,-82.856 c 2.764,0 4.998,2.237 4.998,4.998 0,2.755 -2.234,4.993 -4.998,4.993 -2.755,0 -4.992,-2.237 -4.992,-4.993 0,-2.761 2.237,-4.998 4.992,-4.998 z"
   id="path563"
   style="fill:#fc4c02" />
<circle
   cx="686.03497"
   cy="335.62399"
   r="2.9330001"
   transform="translate(-33.944,-364.837)"
   id="circle565"
   style="fill:#fc4c02" />
<circle
   cx="651.07202"
   cy="369.922"
   r="1.8049999"
   transform="translate(-33.944,-364.837)"
   id="circle567"
   style="fill:#fc4c02" />
<path
   d="m 488.706,-13.519 c 1.622,0 2.932,1.312 2.932,2.934 0,1.619 -1.31,2.932 -2.932,2.932 -1.621,0 -2.934,-1.312 -2.934,-2.932 0.001,-1.621 1.313,-2.934 2.934,-2.934 z"
   id="path569"
   style="fill:#fc4c02" />
<path
   d="m 478.895,-18.383 c 1.622,0 2.934,1.312 2.934,2.934 0,1.619 -1.312,2.931 -2.934,2.931 -1.616,0 -2.931,-1.312 -2.931,-2.931 0,-1.622 1.315,-2.934 2.931,-2.934 z"
   id="path571"
   style="fill:#fc4c02" />
<circle
   cx="560.39301"
   cy="364.05301"
   r="2.934"
   transform="translate(-33.944,-364.837)"
   id="circle573"
   style="fill:#fc4c02" />
<path
   d="m 508.207,-45.626 c 1.616,0 2.934,1.312 2.934,2.931 0,1.622 -1.317,2.935 -2.934,2.935 -1.619,0 -2.932,-1.312 -2.932,-2.935 0.001,-1.619 1.313,-2.931 2.932,-2.931 z"
   id="path575"
   style="fill:#fc4c02" />
<path
   d="m 523.515,-26.654 c 1.621,0 2.934,1.312 2.934,2.934 0,1.619 -1.312,2.934 -2.934,2.934 -1.616,0 -2.934,-1.315 -2.934,-2.934 0,-1.622 1.318,-2.934 2.934,-2.934 z"
   id="path577"
   style="fill:#fc4c02" />
<path
   d="m 508.207,-66.07 c 1.087,0 1.972,0.881 1.972,1.972 0,1.087 -0.885,1.971 -1.972,1.971 -1.085,0 -1.972,-0.884 -1.972,-1.971 10e-4,-1.091 0.887,-1.972 1.972,-1.972 z"
   id="path579"
   style="fill:#fc4c02" />
<circle
   cx="523.909"
   cy="268.17499"
   r="2.934"
   transform="translate(-33.944,-364.837)"
   id="circle581"
   style="fill:#fc4c02" />
<path
   d="m 524.733,-108.396 c 1.616,0 2.937,1.312 2.937,2.934 0,1.619 -1.32,2.932 -2.937,2.932 -1.622,0 -2.932,-1.312 -2.932,-2.932 0,-1.621 1.31,-2.934 2.932,-2.934 z"
   id="path583"
   style="fill:#fc4c02" />
<path
   d="m 520.928,-93.451 c 5.396,0 9.763,4.369 9.763,9.757 0,5.388 -4.366,9.757 -9.763,9.757 -5.383,0 -9.752,-4.369 -9.752,-9.757 0,-5.389 4.369,-9.757 9.752,-9.757 z"
   id="path585"
   style="fill:#fc4c02" />
<circle
   cx="597.46899"
   cy="241.388"
   r="2.934"
   transform="translate(-33.944,-364.837)"
   id="circle587"
   style="fill:#fc4c02" />
<path
   d="m 541.502,-126.383 c 3.24,0 5.868,2.627 5.868,5.871 0,3.24 -2.628,5.865 -5.868,5.865 -3.24,0 -5.865,-2.625 -5.865,-5.865 0,-3.243 2.625,-5.871 5.865,-5.871 z"
   id="path589"
   style="fill:#fc4c02" />
<path
   d="m 550.302,-159.45 c 1.621,0 2.932,1.315 2.932,2.934 0,1.622 -1.311,2.934 -2.932,2.934 -1.616,0 -2.932,-1.312 -2.932,-2.934 0,-1.619 1.316,-2.934 2.932,-2.934 z"
   id="path591"
   style="fill:#fc4c02" />
<circle
   cx="616.34003"
   cy="226.549"
   r="2.934"
   transform="translate(-33.944,-364.837)"
   id="circle593"
   style="fill:#fc4c02" />
<circle
   cx="588.854"
   cy="195.42999"
   r="2.9330001"
   transform="translate(-33.944,-364.837)"
   id="circle595"
   style="fill:#fc4c02" />
<path
   d="m 631.286,-172.339 c 1.622,0 2.935,1.312 2.935,2.932 0,1.622 -1.312,2.934 -2.935,2.934 -1.616,0 -2.932,-1.312 -2.932,-2.934 10e-4,-1.62 1.316,-2.932 2.932,-2.932 z"
   id="path597"
   style="fill:#fc4c02" />
<path
   d="m 622.996,-125.431 c 1.096,0 1.979,0.887 1.979,1.982 0,1.095 -0.884,1.985 -1.979,1.985 -1.098,0 -1.981,-0.889 -1.981,-1.985 0,-1.096 0.884,-1.982 1.981,-1.982 z"
   id="path599"
   style="fill:#fc4c02" />
<path
   d="m 603.562,-141.222 c 1.618,0 2.928,1.312 2.928,2.934 0,1.619 -1.31,2.934 -2.928,2.934 -1.622,0 -2.938,-1.315 -2.938,-2.934 0,-1.621 1.316,-2.934 2.938,-2.934 z"
   id="path601"
   style="fill:#fc4c02" />
<path
   d="m 645.895,-123.449 c 1.622,0 2.937,1.312 2.937,2.934 0,1.616 -1.314,2.932 -2.937,2.932 -1.613,0 -2.926,-1.315 -2.926,-2.932 0,-1.621 1.313,-2.934 2.926,-2.934 z"
   id="path603"
   style="fill:#fc4c02" />
<path
   d="m 635.666,-160.419 c 2.155,0 3.905,1.749 3.905,3.902 0,2.156 -1.75,3.899 -3.905,3.899 -2.156,0 -3.899,-1.744 -3.899,-3.899 0,-2.153 1.743,-3.902 3.899,-3.902 z"
   id="path605"
   style="fill:#fc4c02" />
<circle
   cx="680.802"
   cy="202.45399"
   r="2.9330001"
   transform="translate(-33.944,-364.837)"
   id="circle607"
   style="fill:#fc4c02" />
<path
   d="m 657.558,-123.226 c 2.295,0 4.157,1.86 4.157,4.16 0,2.294 -1.862,4.154 -4.157,4.154 -2.294,0 -4.154,-1.86 -4.154,-4.154 0,-2.3 1.86,-4.16 4.154,-4.16 z"
   id="path609"
   style="fill:#fc4c02" />
<circle
   cx="736.00299"
   cy="257.45801"
   r="2.934"
   transform="translate(-33.944,-364.837)"
   id="circle611"
   style="fill:#fc4c02" />
<circle
   cx="697.37097"
   cy="282.01099"
   r="1.641"
   transform="translate(-33.944,-364.837)"
   id="circle613"
   style="fill:#fc4c02" />
<path
   d="m 678.228,-70.732 c 3.939,0 7.132,3.187 7.132,7.127 0,3.932 -3.192,7.121 -7.132,7.121 -3.927,0 -7.119,-3.189 -7.119,-7.121 0,-3.94 3.192,-7.127 7.119,-7.127 z"
   id="path615"
   style="fill:#fc4c02" />
<circle
   cx="694.43701"
   cy="259.37399"
   r="2.9330001"
   transform="translate(-33.944,-364.837)"
   id="circle617"
   style="fill:#fc4c02" />
<circle
   cx="730.13702"
   cy="268.388"
   r="2.9330001"
   transform="translate(-33.944,-364.837)"
   id="circle619"
   style="fill:#fc4c02" />
<path
   d="m 686.016,-54.778 c 0.722,0 1.302,0.581 1.302,1.299 0,0.719 -0.58,1.302 -1.302,1.302 -0.716,0 -1.299,-0.583 -1.299,-1.302 0,-0.719 0.583,-1.299 1.299,-1.299 z"
   id="path621"
   style="fill:#fc4c02" />
<path
   d="m 707.927,-16.802 c 1.616,0 2.929,1.312 2.929,2.934 0,1.619 -1.312,2.931 -2.929,2.931 -1.622,0 -2.938,-1.312 -2.938,-2.931 10e-4,-1.622 1.316,-2.934 2.938,-2.934 z"
   id="path623"
   style="fill:#fc4c02" />
<path
   d="m 706.181,-94.764 c 1.615,0 2.934,1.312 2.934,2.934 0,1.622 -1.318,2.935 -2.934,2.935 -1.619,0 -2.935,-1.312 -2.935,-2.935 0,-1.621 1.316,-2.934 2.935,-2.934 z"
   id="path625"
   style="fill:#fc4c02" />
<circle
   cx="778.58301"
   cy="310.04099"
   r="2.9330001"
   transform="translate(-33.944,-364.837)"
   id="circle627"
   style="fill:#fc4c02" />
<path
   d="m 699.124,-165.316 c 1.622,0 2.935,1.315 2.935,2.934 0,1.619 -1.312,2.932 -2.935,2.932 -1.616,0 -2.932,-1.312 -2.932,-2.932 10e-4,-1.619 1.316,-2.934 2.932,-2.934 z"
   id="path629"
   style="fill:#fc4c02" />
<circle
   cx="694.43701"
   cy="364.05499"
   r="2.931"
   transform="translate(-33.944,-364.837)"
   id="circle631"
   style="fill:#fc4c02" />
<circle
   cx="730.13702"
   cy="354.25101"
   r="2.9330001"
   transform="translate(-33.944,-364.837)"
   id="circle633"
   style="fill:#fc4c02" />
<circle
   cx="697.37097"
   cy="339.23499"
   r="2.934"
   transform="translate(-33.944,-364.837)"
   id="circle635"
   style="fill:#fc4c02" />
<circle
   cx="712.177"
   cy="322.14401"
   r="2.9330001"
   transform="translate(-33.944,-364.837)"
   id="circle637"
   style="fill:#fc4c02" />
<path
   d="m 704.99,47.263 c 1.622,0 2.938,1.312 2.938,2.936 0,1.621 -1.315,2.934 -2.938,2.934 -1.615,0 -2.931,-1.312 -2.931,-2.934 0,-1.624 1.315,-2.936 2.931,-2.936 z"
   id="path639"
   style="fill:#fc4c02" />
<circle
   cx="680.802"
   cy="419.198"
   r="2.9330001"
   transform="translate(-33.944,-364.837)"
   id="circle641"
   style="fill:#fc4c02" />
<path
   d="m 700.31,-1.27 c 1.621,0 2.937,1.312 2.937,2.934 0,1.619 -1.315,2.935 -2.937,2.935 -1.613,0 -2.926,-1.315 -2.926,-2.935 0,-1.621 1.313,-2.934 2.926,-2.934 z"
   id="path643"
   style="fill:#fc4c02" />
<path
   d="m 657.558,5.8 c 3.206,0 5.804,2.595 5.804,5.798 0,3.205 -2.598,5.801 -5.804,5.801 -3.202,0 -5.797,-2.596 -5.797,-5.801 0,-3.203 2.595,-5.798 5.797,-5.798 z"
   id="path645"
   style="fill:#fc4c02" />
<path
   d="m 635.666,47.263 c 1.622,0 2.937,1.312 2.937,2.936 0,1.621 -1.314,2.934 -2.937,2.934 -1.616,0 -2.932,-1.312 -2.932,-2.934 10e-4,-1.624 1.316,-2.936 2.932,-2.936 z"
   id="path647"
   style="fill:#fc4c02" />
<path
   d="m 603.562,29.995 c 1.618,0 2.928,1.312 2.928,2.934 0,1.622 -1.31,2.934 -2.928,2.934 -1.622,0 -2.938,-1.312 -2.938,-2.934 0,-1.622 1.316,-2.934 2.938,-2.934 z"
   id="path649"
   style="fill:#fc4c02" />
<path
   d="m 622.996,14.535 c 1.622,0 2.932,1.312 2.932,2.935 0,1.619 -1.31,2.932 -2.932,2.932 -1.618,0 -2.934,-1.313 -2.934,-2.932 10e-4,-1.623 1.316,-2.935 2.934,-2.935 z"
   id="path651"
   style="fill:#fc4c02" />
<path
   d="m 645.895,12.929 c 0.893,0 1.608,0.719 1.608,1.605 0,0.884 -0.716,1.603 -1.608,1.603 -0.881,0 -1.597,-0.719 -1.597,-1.603 0,-0.886 0.716,-1.605 1.597,-1.605 z"
   id="path653"
   style="fill:#fc4c02" />
<path
   d="m 591.624,95.454 c 1.621,0 2.937,1.312 2.937,2.934 0,1.619 -1.315,2.932 -2.937,2.932 -1.616,0 -2.932,-1.312 -2.932,-2.932 10e-4,-1.621 1.316,-2.934 2.932,-2.934 z"
   id="path655"
   style="fill:#fc4c02" />
<path
   d="m 556.17,58.956 c 1.622,0 2.935,1.312 2.935,2.936 0,1.617 -1.312,2.93 -2.935,2.93 -1.619,0 -2.937,-1.312 -2.937,-2.93 0.001,-1.624 1.318,-2.936 2.937,-2.936 z"
   id="path657"
   style="fill:#fc4c02" />
<path
   d="m 631.286,58.956 c 1.622,0 2.935,1.312 2.935,2.936 0,1.617 -1.312,2.93 -2.935,2.93 -1.616,0 -2.932,-1.312 -2.932,-2.93 10e-4,-1.624 1.316,-2.936 2.932,-2.936 z"
   id="path659"
   style="fill:#fc4c02" />
<circle
   cx="512.96399"
   cy="194.44299"
   r="2.9330001"
   transform="translate(-33.944,-364.837)"
   id="circle661"
   style="fill:#fc4c02" />
<path
   d="m 627.015,-63.329 c 4.714,0 8.532,3.824 8.532,8.534 0,4.705 -3.818,8.526 -8.532,8.526 -4.707,0 -8.525,-3.821 -8.525,-8.526 0,-4.71 3.818,-8.534 8.525,-8.534 z"
   id="path663"
   style="fill:#fc4c02" />
<path
   d="m 606.49,-57.729 c 1.628,0 2.938,1.312 2.938,2.931 0,1.622 -1.31,2.934 -2.938,2.934 -1.615,0 -2.928,-1.312 -2.928,-2.934 0,-1.618 1.312,-2.931 2.928,-2.931 z"
   id="path665"
   style="fill:#fc4c02" />
<path
   d="m 563.885,-36.439 c 3.04,-3.037 7.976,-3.037 11.016,0 3.042,3.045 3.042,7.973 -0.006,11.018 -3.034,3.042 -7.97,3.042 -11.01,0.002 -3.04,-3.047 -3.04,-7.974 0,-11.02 z"
   id="path667"
   style="fill:#fc4c02" />
<path
   d="m 615.054,-80.741 c 1.149,-1.147 3.005,-1.145 4.151,0 1.147,1.144 1.147,3.002 -0.003,4.146 -1.144,1.15 -2.999,1.15 -4.148,0 -1.144,-1.144 -1.144,-3.002 0,-4.146 z"
   id="path669"
   style="fill:#fc4c02" />
<path
   d="m 573.575,-82.854 c 2.321,2.308 2.321,6.064 0,8.379 -2.311,2.316 -6.056,2.316 -8.374,-0.002 -2.316,-2.313 -2.316,-6.069 0,-8.377 2.313,-2.316 6.063,-2.316 8.374,0 z"
   id="path671"
   style="fill:#fc4c02" />
<path
   d="m 619.202,-33 c 1.15,1.145 1.15,3 0,4.146 -1.144,1.147 -2.999,1.147 -4.148,-0.003 -1.137,-1.144 -1.145,-2.999 0,-4.144 1.149,-1.144 3.005,-1.144 4.148,10e-4 z"
   id="path673"
   style="fill:#fc4c02" />
<path
   d="m 593.245,-23.693 c 2.191,0 3.962,1.771 3.962,3.959 0,2.186 -1.771,3.957 -3.962,3.957 -2.18,0 -3.953,-1.771 -3.953,-3.957 0,-2.188 1.774,-3.959 3.953,-3.959 z"
   id="path675"
   style="fill:#fc4c02" />
<path
   d="m 593.245,-44.075 c 1.622,0 2.938,1.315 2.938,2.934 0,1.619 -1.315,2.934 -2.938,2.934 -1.616,0 -2.929,-1.315 -2.929,-2.934 10e-4,-1.619 1.313,-2.934 2.929,-2.934 z"
   id="path677"
   style="fill:#fc4c02" />
<path
   d="m 593.245,-90.153 c 1.622,0 2.938,1.312 2.938,2.934 0,1.619 -1.315,2.931 -2.938,2.931 -1.616,0 -2.929,-1.312 -2.929,-2.931 10e-4,-1.622 1.313,-2.934 2.929,-2.934 z"
   id="path679"
   style="fill:#fc4c02" />
<path
   d="m 593.245,-74.845 c 3.084,0 5.573,2.495 5.573,5.575 0,3.072 -2.489,5.57 -5.573,5.57 -3.072,0 -5.572,-2.498 -5.572,-5.57 0,-3.081 2.5,-5.575 5.572,-5.575 z"
   id="path681"
   style="fill:#fc4c02" />
<path
   d="m 593.245,-59.678 c 2.698,0 4.882,2.186 4.882,4.881 0,2.696 -2.184,4.876 -4.882,4.876 -2.689,0 -4.878,-2.18 -4.878,-4.876 0.001,-2.696 2.189,-4.881 4.878,-4.881 z"
   id="path683"
   style="fill:#fc4c02" />
<path
   d="M 542.261,14.873"
   id="path685"
   style="fill:#fc4c02" />
<path
   d="M 478.895,-15.449"
   id="path687"
   style="fill:#059a4c" />
</svg>