<?xml version="1.0" encoding="UTF-8" standalone="no"?>
<!-- Created with Inkscape (http://www.inkscape.org/) -->

<svg
   xmlns:dc="http://purl.org/dc/elements/1.1/"
   xmlns:cc="http://creativecommons.org/ns#"
   xmlns:rdf="http://www.w3.org/1999/02/22-rdf-syntax-ns#"
   xmlns:svg="http://www.w3.org/2000/svg"
   xmlns="http://www.w3.org/2000/svg"
   version="1.1"
   width="1024"
   height="768"
   viewBox="0 0 1024 768"
   id="Layer_1"
   xml:space="preserve"><metadata
   id="metadata69"><rdf:RDF><cc:Work
       rdf:about=""><dc:format>image/svg+xml</dc:format><dc:type
         rdf:resource="http://purl.org/dc/dcmitype/StillImage" /><dc:title></dc:title></cc:Work></rdf:RDF></metadata><defs
   id="defs67" />
<rect
   width="1024"
   height="768"
   x="0"
   y="0"
   id="rect3"
   style="fill:#fc4c02;fill-opacity:1" />
<g
   id="g5">
	<path
   d="m 58.607,673.328 c 0,1.778 0,4.523 -3.319,4.523 -2.018,0 -2.831,-1.118 -3.314,-2.942 -1.776,2.117 -3.943,3.222 -6.584,3.222 -6.486,0 -11.446,-5.527 -11.446,-13.318 0,-7.593 5.096,-13.42 11.446,-13.42 2.544,0 5.039,1.022 6.584,3.17 0.195,-1.676 1.638,-2.872 3.314,-2.872 3.319,0 3.319,2.742 3.319,4.526 v 17.111 z m -12.263,-1.552 c 3.607,0 5.342,-3.642 5.342,-6.964 0,-3.319 -1.692,-7.059 -5.342,-7.059 -3.791,0 -5.475,3.739 -5.475,7.059 0,3.323 1.728,6.964 5.475,6.964 z"
   id="path7"
   style="fill:#ffffff" />
	<path
   d="m 60.56,655.541 c 0,-2.318 1.454,-3.851 3.46,-3.851 1.931,0 3.021,1.065 3.46,2.872 1.302,-2.11 3.992,-3.17 6.589,-3.17 7.447,0 11.159,6.978 11.159,13.713 0,6.538 -4.434,13.025 -11.397,13.025 -2.169,0 -4.523,-0.819 -6.351,-2.406 v 8.459 c 0,2.308 -1.429,3.845 -3.46,3.845 -2.006,0 -3.46,-1.537 -3.46,-3.845 v -28.642 z m 12.36,16.235 c 3.604,0 5.38,-3.733 5.38,-6.964 0,-3.265 -1.776,-7.059 -5.38,-7.059 -3.704,0 -5.44,3.46 -5.44,6.826 0,3.358 1.638,7.197 5.44,7.197 z"
   id="path9"
   style="fill:#ffffff" />
	<path
   d="m 94.213,645.106 c 0,2.167 -1.736,3.979 -3.905,3.979 -2.063,0 -3.889,-1.86 -3.889,-3.979 0,-1.969 1.825,-3.802 3.889,-3.802 2.077,10e-4 3.905,1.777 3.905,3.802 z m -7.365,10.435 c 0,-2.318 1.442,-3.851 3.46,-3.851 2.034,0 3.466,1.532 3.466,3.851 v 18.448 c 0,2.318 -1.432,3.862 -3.466,3.862 -2.018,0 -3.46,-1.544 -3.46,-3.862 v -18.448 z"
   id="path11"
   style="fill:#ffffff" />
	<path
   d="m 120.083,675.543 c 0,8.31 -5.439,12.485 -13.323,12.485 -2.839,0 -10.907,-1.391 -10.907,-5.174 0,-1.315 1.44,-3.046 2.79,-3.046 2.202,0 4.654,2.167 8.64,2.167 3.368,0 5.871,-1.966 5.871,-5.48 v -1.627 h -0.095 c -1.448,2.115 -3.802,3.263 -6.978,3.263 -7.259,0 -10.668,-6.393 -10.668,-13.271 0,-6.97 4.412,-13.467 11.392,-13.467 2.362,0 5.049,1.06 6.348,3.17 0.445,-1.807 1.538,-2.872 3.463,-2.872 2.029,0 3.466,1.532 3.466,3.851 v 20.001 z m -12.357,-17.789 c -3.609,0 -5.388,3.739 -5.388,6.961 0,3.699 1.779,7.062 5.388,7.062 3.69,0 5.429,-3.46 5.429,-6.822 -0.001,-3.366 -1.641,-7.201 -5.429,-7.201 z"
   id="path13"
   style="fill:#ffffff" />
	<path
   d="m 128.397,667.08 c 0.48,3.406 3.316,4.995 6.535,4.995 3.553,0 6.01,-2.78 7.826,-2.78 1.502,0 2.853,1.473 2.853,2.97 0,2.983 -6.156,5.866 -11.3,5.866 -7.796,0 -12.992,-5.668 -12.992,-13.318 0,-7.018 5.104,-13.42 12.398,-13.42 7.512,0 12.461,6.828 12.461,12.604 0,2.063 -0.909,3.083 -3.024,3.083 h -14.757 z m 10.861,-4.613 c -0.38,-3.039 -2.302,-5.29 -5.541,-5.29 -3.059,0 -5.136,2.354 -5.47,5.29 h 11.011 z"
   id="path15"
   style="fill:#ffffff" />
	<path
   d="m 154.371,667.161 c 0.466,3.428 3.319,5.001 6.543,5.001 3.555,0 5.999,-2.788 7.834,-2.788 1.483,0 2.831,1.494 2.831,2.983 0,2.978 -6.145,5.865 -11.287,5.865 -7.793,0 -12.995,-5.67 -12.995,-13.317 0,-7.023 5.092,-13.415 12.412,-13.415 7.498,0 12.453,6.828 12.453,12.596 0,2.072 -0.914,3.075 -3.035,3.075 h -14.756 z m 10.869,-4.612 c -0.379,-3.037 -2.316,-5.291 -5.529,-5.291 -3.078,0 -5.147,2.364 -5.48,5.291 h 11.009 z"
   id="path17"
   style="fill:#ffffff" />
</g>
<path
   d="M 804.062,741.318"
   id="path19"
   style="fill:none;stroke:#d0d1d2;stroke-width:1.33399999;stroke-miterlimit:10" />
<path
   d="m 781.081,183.03 c 0,3.091 -2.501,5.595 -5.595,5.595 -3.087,0 -5.583,-2.504 -5.583,-5.595 0,-3.085 2.496,-5.585 5.583,-5.585 3.094,0 5.595,2.5 5.595,5.585 z"
   id="path21"
   style="fill:#ffffff" />
<line
   fill="none"
   stroke="#FFFFFF"
   stroke-width="0.6855"
   stroke-miterlimit="10"
   x1="867.698"
   y1="311.56299"
   x2="823.63898"
   y2="676.85199"
   id="line23"
   style="fill:none;stroke:#ffffff;stroke-width:0.68550003;stroke-miterlimit:10" />
<line
   fill="none"
   stroke="#FFFFFF"
   stroke-width="0.6855"
   stroke-miterlimit="10"
   x1="727.34399"
   y1="566.03497"
   x2="823.63898"
   y2="672.39398"
   id="line25"
   style="fill:none;stroke:#ffffff;stroke-width:0.68550003;stroke-miterlimit:10" />
<polyline
   fill="none"
   stroke="#FFFFFF"
   stroke-width="0.6855"
   stroke-miterlimit="10"
   points="823.639,672.394 956.787,540.081   867.698,311.563 1024.375,247.283 "
   id="polyline27"
   style="fill:none;stroke:#ffffff;stroke-width:0.68550003;stroke-miterlimit:10" />
<line
   fill="none"
   stroke="#FFFFFF"
   stroke-width="0.6855"
   stroke-miterlimit="10"
   x1="268.70499"
   y1="769.30701"
   x2="507.29999"
   y2="593.69397"
   id="line29"
   style="fill:none;stroke:#ffffff;stroke-width:0.68550003;stroke-miterlimit:10" />
<polygon
   points="429.283,364.875 507.3,593.694 679.87,237.954 "
   id="polygon31"
   style="fill:none;stroke:#ffffff;stroke-width:0.68550003;stroke-miterlimit:10" />
<line
   fill="none"
   stroke="#FFFFFF"
   stroke-width="0.6855"
   stroke-miterlimit="10"
   x1="507.29999"
   y1="593.69397"
   x2="727.34399"
   y2="566.03497"
   id="line33"
   style="fill:none;stroke:#ffffff;stroke-width:0.68550003;stroke-miterlimit:10" />
<polyline
   fill="none"
   stroke="#FFFFFF"
   stroke-width="0.6855"
   stroke-miterlimit="10"
   points="0.212,459.839 271.174,414.134   0,174.976 "
   id="polyline35"
   style="fill:none;stroke:#ffffff;stroke-width:0.68550003;stroke-miterlimit:10" />
<line
   fill="none"
   stroke="#FFFFFF"
   stroke-width="0.6855"
   stroke-miterlimit="10"
   x1="271.17401"
   y1="414.134"
   x2="474.39499"
   y2="194.519"
   id="line37"
   style="fill:none;stroke:#ffffff;stroke-width:0.68550003;stroke-miterlimit:10" />
<line
   fill="none"
   stroke="#FFFFFF"
   stroke-width="0.6855"
   stroke-miterlimit="10"
   x1="679.87799"
   y1="229.03101"
   x2="474.39499"
   y2="194.519"
   id="line39"
   style="fill:none;stroke:#ffffff;stroke-width:0.68550003;stroke-miterlimit:10" />
<path
   d="m 259.67,414.13 c 0,-6.342 5.12,-11.508 11.494,-11.508 6.357,0 11.517,5.166 11.517,11.508 0,6.348 -5.16,11.5 -11.517,11.5 -6.373,0 -11.494,-5.152 -11.494,-11.5 z"
   id="path41"
   style="fill:#ffffff" />
<path
   d="m 660.357,229.037 c 0,-10.78 8.733,-19.522 19.513,-19.522 10.784,0 19.519,8.742 19.519,19.522 0,10.776 -8.734,19.511 -19.519,19.511 -10.779,-0.001 -19.513,-8.736 -19.513,-19.511 z"
   id="path43"
   style="fill:#ffffff" />
<path
   d="m 954.619,537.077 c 0,-6.542 5.302,-11.845 11.844,-11.845 6.529,0 11.841,5.303 11.841,11.845 0,6.539 -5.312,11.839 -11.841,11.839 -6.542,0 -11.844,-5.3 -11.844,-11.839 z"
   id="path45"
   style="fill:#ffffff" />
<path
   d="m 802.313,672.405 c 0,-11.782 9.551,-21.321 21.308,-21.321 11.768,0 21.325,9.539 21.325,21.321 0,11.761 -9.558,21.3 -21.325,21.3 -11.757,0 -21.308,-9.539 -21.308,-21.3 z"
   id="path47"
   style="fill:#ffffff" />
<path
   d="m 423.987,364.875 c 0,-2.922 2.376,-5.287 5.284,-5.287 2.932,0 5.304,2.364 5.304,5.287 0,2.923 -2.373,5.291 -5.304,5.291 -2.908,0 -5.284,-2.368 -5.284,-5.291 z"
   id="path49"
   style="fill:#ffffff" />
<path
   d="m 719.735,566.035 c 0,-4.199 3.412,-7.61 7.608,-7.61 4.199,0 7.617,3.411 7.617,7.61 0,4.199 -3.418,7.604 -7.617,7.604 -4.196,10e-4 -7.608,-3.405 -7.608,-7.604 z"
   id="path51"
   style="fill:#ffffff" />
<path
   d="m 932.81,676.856 c 0,-4.207 3.42,-7.616 7.616,-7.616 4.203,0 7.61,3.409 7.61,7.616 0,4.199 -3.407,7.604 -7.61,7.604 -4.197,0 -7.616,-3.404 -7.616,-7.604 z"
   id="path53"
   style="fill:#ffffff" />
<path
   d="m 733.789,382.101 c 0,-4.209 3.416,-7.616 7.612,-7.616 4.2,0 7.611,3.406 7.611,7.616 0,4.196 -3.411,7.603 -7.611,7.603 -4.196,-0.001 -7.612,-3.407 -7.612,-7.603 z"
   id="path55"
   style="fill:#ffffff" />
<path
   d="m 862.953,311.563 c 0,-2.625 2.13,-4.746 4.745,-4.746 2.62,0 4.74,2.121 4.74,4.746 0,2.616 -2.12,4.745 -4.74,4.745 -2.615,0 -4.745,-2.129 -4.745,-4.745 z"
   id="path57"
   style="fill:#ffffff" />
<path
   d="m 466.787,194.519 c 0,-4.209 3.404,-7.616 7.603,-7.616 4.204,0 7.618,3.407 7.618,7.616 0,4.196 -3.414,7.605 -7.618,7.605 -4.199,0 -7.603,-3.409 -7.603,-7.605 z"
   id="path59"
   style="fill:#ffffff" />
<path
   d="m 268.598,544.164 c 0,-4.21 3.402,-7.613 7.603,-7.613 4.207,0 7.616,3.403 7.616,7.613 0,4.202 -3.409,7.609 -7.616,7.609 -4.201,0 -7.603,-3.407 -7.603,-7.609 z"
   id="path61"
   style="fill:#ffffff" />
<path
   d="m 489.131,593.692 c 0,-10.041 8.13,-18.188 18.169,-18.188 10.029,0 18.18,8.147 18.18,18.188 0,10.044 -8.151,18.172 -18.18,18.172 -10.038,0 -18.169,-8.128 -18.169,-18.172 z"
   id="path63"
   style="fill:#ffffff" />
</svg>