<?xml version="1.0" encoding="UTF-8" standalone="no"?>
<!-- Created with Inkscape (http://www.inkscape.org/) -->

<svg
   xmlns:dc="http://purl.org/dc/elements/1.1/"
   xmlns:cc="http://creativecommons.org/ns#"
   xmlns:rdf="http://www.w3.org/1999/02/22-rdf-syntax-ns#"
   xmlns:svg="http://www.w3.org/2000/svg"
   xmlns="http://www.w3.org/2000/svg"
   version="1.1"
   width="692.08978"
   height="566.35675"
   viewBox="0 0 692.08977 566.35676"
   id="Layer_1"
   xml:space="preserve"><metadata
   id="metadata693"><rdf:RDF><cc:Work
       rdf:about=""><dc:format>image/svg+xml</dc:format><dc:type
         rdf:resource="http://purl.org/dc/dcmitype/StillImage" /><dc:title></dc:title></cc:Work></rdf:RDF></metadata><defs
   id="defs691" />

<path
   d="M 536.06401,566.35675"
   id="path17"
   style="fill:none;stroke:#d0d1d2;stroke-width:0.48649999;stroke-miterlimit:10" />
<line
   id="line19"
   y2="393.02274"
   x2="423.39505"
   y1="530.43677"
   x1="488.10306"
   stroke-miterlimit="10"
   style="fill:none;stroke:#d1d3d4;stroke-width:0.69419998;stroke-miterlimit:10" />
<polyline
   id="polyline21"
   points="820.176,530.18 949.103,451.807   755.468,392.766 "
   stroke-miterlimit="10"
   style="fill:none;stroke:#d1d3d4;stroke-width:0.69419998;stroke-miterlimit:10"
   transform="translate(-332.07299,0.25675)" />
<line
   id="line23"
   y2="488.80774"
   x2="691.92706"
   y1="452.06375"
   x1="617.03009"
   stroke-miterlimit="10"
   style="fill:none;stroke:#d1d3d4;stroke-width:0.69419998;stroke-miterlimit:10" />
<line
   id="line25"
   y2="382.89075"
   x2="505.621"
   y1="530.43677"
   x1="488.10306"
   stroke-miterlimit="10"
   style="fill:none;stroke:#d1d3d4;stroke-width:0.69419998;stroke-miterlimit:10" />
<line
   id="line27"
   y2="310.88776"
   x2="458.10605"
   y1="382.89075"
   x1="505.621"
   stroke-miterlimit="10"
   style="fill:none;stroke:#d1d2d3;stroke-width:0.69419998;stroke-miterlimit:10" />
<path
   d="m 562.05101,195.12675 c -1.299,1.725 -55.459,187.764 -55.459,187.764"
   id="path29"
   style="fill:none;stroke:#d1d2d3;stroke-width:0.69419998;stroke-miterlimit:10" />
<line
   id="line31"
   y2="192.63774"
   x2="563.35004"
   y1="279.33575"
   x1="440.43002"
   stroke-miterlimit="10"
   style="fill:none;stroke:#d1d2d3;stroke-width:0.69419998;stroke-miterlimit:10" />
<line
   id="line33"
   y2="256.33475"
   x2="653.44806"
   y1="193.53275"
   x1="562.05109"
   stroke-miterlimit="10"
   style="fill:none;stroke:#d1d3d4;stroke-width:0.69419998;stroke-miterlimit:10" />
<path
   d="m 327.79901,166.02675 228.901,27.506 -228.901,-27.506 z"
   id="path35"
   style="fill:none;stroke:#d1d2d3;stroke-width:0.69419998;stroke-miterlimit:10" />
<polyline
   id="polyline37"
   points="895.423,47.083 891.513,50.021   802.666,116.741 705.617,41.503 659.872,165.77 "
   stroke-miterlimit="10"
   style="fill:none;stroke:#d1d3d4;stroke-width:0.69419998;stroke-miterlimit:10"
   transform="translate(-332.07299,0.25675)" />
<line
   id="line39"
   y2="41.759735"
   x2="369.81601"
   y1="50.27475"
   x1="563.35004"
   stroke-miterlimit="10"
   style="fill:none;stroke:#d1d2d3;stroke-width:0.69419998;stroke-miterlimit:10" />
<polyline
   id="polyline41"
   points="334.496,171.636 445.343,46.346   595.445,167.205 432.937,119.16 445.343,50.018 "
   stroke-miterlimit="10"
   style="fill:none;stroke:#d1d3d4;stroke-width:0.69419998;stroke-miterlimit:10"
   transform="translate(-332.07299,0.25675)" />
<polyline
   id="polyline43"
   points="696.161,45.76 594.154,166.334   565.662,61.679 701.889,41.503 "
   stroke-miterlimit="10"
   style="fill:none;stroke:#d1d3d4;stroke-width:0.69419998;stroke-miterlimit:10"
   transform="translate(-332.07299,0.25675)" />
<line
   id="line45"
   y2="0.25674438"
   x2="416.95804"
   y1="41.816742"
   x1="371.05801"
   stroke-miterlimit="10"
   style="fill:none;stroke:#d1d2d3;stroke-width:0.69419998;stroke-miterlimit:10" />
<line
   id="line47"
   y2="0.25674438"
   x2="169.13301"
   y1="61.93576"
   x1="233.58904"
   stroke-miterlimit="10"
   style="fill:none;stroke:#a7a9ac;stroke-width:0.69419998;stroke-miterlimit:10" />
<polyline
   id="polyline49"
   points="514.014,429.656 514.26,429.656   514.813,429.656 521.834,420.9 500.696,393.658 512.964,393.658 514.014,429.656 500.696,393.332 508.146,361.119 479.313,342.494   463.631,310.04 484.002,275.847 508.948,262.307 500.313,229.483 512.476,194.442 547.219,184.935 577.42,192.498 594.534,165.77   624.934,147.794 659.872,165.77 676.414,192.562 706.312,184.935 739.159,192.498 753.206,229.483 745.99,261.252 772.503,279.079   790.77,309.413 774.209,342.169 745.586,360.169 753.206,391.898 747.283,422.131 712.177,437.787 676.582,430.873 660.371,455.928   625.181,474.922 597.612,460.711 578.381,430.041 548.396,437.521 "
   stroke-miterlimit="10"
   style="fill:none;stroke:#6d6f71;stroke-width:0.48649999;stroke-miterlimit:10"
   transform="translate(-332.07299,0.25675)" />
<polyline
   id="polyline51"
   points="548.396,437.521 514.26,429.656   549.448,426.725 "
   stroke-miterlimit="10"
   style="fill:none;stroke:#6d6f71;stroke-width:0.48649999;stroke-miterlimit:10"
   transform="translate(-332.07299,0.25675)" />
<polyline
   id="polyline53"
   points="548.396,426.98 548.966,437.113   572.07,420.008 590.114,426.088 578.381,430.873 603.334,449.197 597.859,460.291 625.568,463.451 625.91,475.385 650.799,450.656   660.965,456.332 665.557,427.225 677.314,430.627 680.677,420.008 712.584,438.168 713.424,427.145 748.098,421.629   739.664,415.953 753.722,391.387 742.422,390.33 745.99,361.859 735.531,365.683 742.227,351.318 774.613,342.413 766.18,333.006   790.754,310.04 779.638,310.04 772.503,279.079 766.668,287.521 746.001,262.161 740.64,273.821 736.003,256.71 746.234,262.063 "
   stroke-miterlimit="10"
   style="fill:none;stroke:#6d6f71;stroke-width:0.48649999;stroke-miterlimit:10"
   transform="translate(-332.07299,0.25675)" />
<polyline
   id="polyline55"
   points="736.342,257.117 753.722,230.197   742.215,229.483 738.283,193.227 733.502,201.821 706.312,183.738 706.986,196.589 676.907,192.498 680.395,202.062   665.236,196.589 675.855,193.655 "
   stroke-miterlimit="10"
   style="fill:none;stroke:#6d6f71;stroke-width:0.48649999;stroke-miterlimit:10"
   transform="translate(-332.07299,0.25675)" />
<polyline
   id="polyline57"
   points="666.125,195.901 659.872,166.548   651.075,172.428 623.8,147.794 624.261,159.902 594.534,165.77 603.334,171.847 577.99,192.82 588.855,195.429 "
   stroke-miterlimit="10"
   style="fill:none;stroke:#6d6f71;stroke-width:0.48649999;stroke-miterlimit:10"
   transform="translate(-332.07299,0.25675)" />
<polyline
   id="polyline59"
   points="588.855,195.429 573.531,202.455   577.42,192.498 549.045,196.226 547.661,184.932 523.909,201.414 512.964,194.442 512.395,228.898 501.936,229.483 520.262,258.009   512.964,273.553 508.948,262.874 519.717,259.373 "
   stroke-miterlimit="10"
   style="fill:none;stroke:#6d6f71;stroke-width:0.48649999;stroke-miterlimit:10"
   transform="translate(-332.07299,0.25675)" />
<polyline
   id="polyline61"
   points="508.146,262.307 489.372,286.17   484.002,277.384 476.562,309.009 463.631,310.04 486.37,333.413 479.324,342.166 512.839,349.388 "
   stroke-miterlimit="10"
   style="fill:none;stroke:#6d6f71;stroke-width:0.48649999;stroke-miterlimit:10"
   transform="translate(-332.07299,0.25675)" />
<polyline
   id="polyline63"
   points="512.964,349.06 509.232,361.119   522.287,354.252 514.26,349.388 "
   stroke-miterlimit="10"
   style="fill:none;stroke:#6d6f71;stroke-width:0.48649999;stroke-miterlimit:10"
   transform="translate(-332.07299,0.25675)" />
<polyline
   id="polyline65"
   points="523.426,354.252 519.717,366.575   508.669,361.466 "
   stroke-miterlimit="10"
   style="fill:none;stroke:#6d6f71;stroke-width:0.48649999;stroke-miterlimit:10"
   transform="translate(-332.07299,0.25675)" />
<line
   id="line67"
   y2="438.04373"
   x2="214.94603"
   y1="422.04575"
   x1="190.214"
   stroke-miterlimit="10"
   style="fill:none;stroke:#6d6f71;stroke-width:0.48649999;stroke-miterlimit:10" />
<line
   id="line69"
   y2="360.67075"
   x2="174.97701"
   y1="393.02274"
   x1="180.89101"
   stroke-miterlimit="10"
   style="fill:none;stroke:#6d6f71;stroke-width:0.48649999;stroke-miterlimit:10" />
<line
   id="line71"
   y2="426.74875"
   x2="215.35002"
   y1="430.80576"
   x1="246.30803"
   stroke-miterlimit="10"
   style="fill:none;stroke:#6d6f71;stroke-width:0.48649999;stroke-miterlimit:10" />
<polyline
   id="polyline73"
   points="572.518,419.197 578.882,430.709   584.252,415.496 "
   stroke-miterlimit="10"
   style="fill:none;stroke:#6d6f71;stroke-width:0.48649999;stroke-miterlimit:10"
   transform="translate(-332.07299,0.25675)" />
<line
   id="line75"
   y2="415.29175"
   x2="252.17906"
   y1="418.56174"
   x1="241.21404"
   stroke-miterlimit="10"
   style="fill:none;stroke:#6d6f71;stroke-width:0.48649999;stroke-miterlimit:10" />
<line
   id="line77"
   y2="414.26074"
   x2="251.67406"
   y1="426.98575"
   x1="258.04105"
   stroke-miterlimit="10"
   style="fill:none;stroke:#6d6f71;stroke-width:0.48649999;stroke-miterlimit:10" />
<polyline
   id="polyline79"
   points="512.558,349.87 518.881,366.987   501.287,393.09 "
   stroke-miterlimit="10"
   style="fill:none;stroke:#6d6f71;stroke-width:0.48649999;stroke-miterlimit:10"
   transform="translate(-332.07299,0.25675)" />
<path
   d="m 190.57701,421.15675 23.961,5.592 c 0,0 25.279,-7.258 25.906,-7.295 0.627,-0.035 -10.904,-42.762 -10.904,-42.762 l -41.512,-9.86 -7.138,26.515 8.917,26.918"
   id="path81"
   style="fill:none;stroke:#6d6f71;stroke-width:0.48649999;stroke-miterlimit:10" />
<polyline
   id="polyline83"
   points="512.839,349.388 487.265,334.63   475.932,310.549 490.421,286.873 512.964,272.506 534.612,310.821 512.964,349.624 "
   stroke-miterlimit="10"
   style="fill:none;stroke:#6d6f71;stroke-width:0.48649999;stroke-miterlimit:10"
   transform="translate(-332.07299,0.25675)" />
<polyline
   id="polyline85"
   points="519.717,259.373 511.882,228.925   522.65,202.455 548.017,196.589 573.206,202.957 561.613,245.361 520.587,259.373 "
   stroke-miterlimit="10"
   style="fill:none;stroke:#6d6f71;stroke-width:0.48649999;stroke-miterlimit:10"
   transform="translate(-332.07299,0.25675)" />
<polyline
   id="polyline87"
   points="588.855,195.429 603.334,170.765   624.773,159.902 650.642,173.339 664.91,195.901 629.234,218.281 589.586,195.901 "
   stroke-miterlimit="10"
   style="fill:none;stroke:#6d6f71;stroke-width:0.48649999;stroke-miterlimit:10"
   transform="translate(-332.07299,0.25675)" />
<polyline
   id="polyline89"
   points="680.802,202.144 708.288,196.226   733.071,202.455 741.871,229.483 736.003,257.458 691.502,245.765 680.802,202.455 "
   stroke-miterlimit="10"
   style="fill:none;stroke:#6d6f71;stroke-width:0.48649999;stroke-miterlimit:10"
   transform="translate(-332.07299,0.25675)" />
<polyline
   id="polyline91"
   points="740.125,273.74 767.476,287.879   778.101,310.04 765.691,333.912 741.871,350.969 719.963,311.357 740.418,273.007 "
   stroke-miterlimit="10"
   style="fill:none;stroke:#6d6f71;stroke-width:0.48649999;stroke-miterlimit:10"
   transform="translate(-332.07299,0.25675)" />
<polyline
   id="polyline93"
   points="734.254,366.501 741.526,390.74   739.501,415.791 712.909,427.943 680.477,419.764 691.174,376.435 734.254,366.501 "
   stroke-miterlimit="10"
   style="fill:none;stroke:#6d6f71;stroke-width:0.48649999;stroke-miterlimit:10"
   transform="translate(-332.07299,0.25675)" />
<polyline
   id="polyline95"
   points="637.506,397.223 669.575,414.332   680.802,379.372 656.94,382.306 638.316,396.85 "
   stroke-miterlimit="10"
   style="fill:none;stroke:#6d6f71;stroke-width:0.48649999;stroke-miterlimit:10"
   transform="translate(-332.07299,0.25675)" />
<polyline
   id="polyline97"
   points="584.252,415.035 616.343,398.682   597.936,380.681 575.799,379.71 584.252,415.035 "
   stroke-miterlimit="10"
   style="fill:none;stroke:#6d6f71;stroke-width:0.48649999;stroke-miterlimit:10"
   transform="translate(-332.07299,0.25675)" />
<polyline
   id="polyline99"
   points="522.65,354.575 560.398,364.053   556.748,341.843 542.154,322.142 523.909,353.521 "
   stroke-miterlimit="10"
   style="fill:none;stroke:#6d6f71;stroke-width:0.48649999;stroke-miterlimit:10"
   transform="translate(-332.07299,0.25675)" />
<polyline
   id="polyline101"
   points="541.91,301.305 524.641,269.032   558.677,259.709 555.745,282.981 543.206,299.846 "
   stroke-miterlimit="10"
   style="fill:none;stroke:#6d6f71;stroke-width:0.48649999;stroke-miterlimit:10"
   transform="translate(-332.07299,0.25675)" />
<polyline
   id="polyline103"
   points="575.446,244.322 598.261,240.417   616.771,226.549 584.721,206.52 575.446,243.493 "
   stroke-miterlimit="10"
   style="fill:none;stroke:#6d6f71;stroke-width:0.48649999;stroke-miterlimit:10"
   transform="translate(-332.07299,0.25675)" />
<polyline
   id="polyline105"
   points="637.506,226.549 637.891,226.842   657.694,241.79 680.802,244.952 670.102,208.321 637.506,225.975 665.638,197.764 "
   stroke-miterlimit="10"
   style="fill:none;stroke:#6d6f71;stroke-width:0.48649999;stroke-miterlimit:10"
   transform="translate(-332.07299,0.25675)" />
<polyline
   id="polyline107"
   points="694.437,259.373 697.371,282.011   712.787,301.227 730.991,269.113 694.583,258.89 "
   stroke-miterlimit="10"
   style="fill:none;stroke:#6d6f71;stroke-width:0.48649999;stroke-miterlimit:10"
   transform="translate(-332.07299,0.25675)" />
<polyline
   id="polyline109"
   points="712.177,322.142 730.991,354.461   694.437,364.053 697.371,340.141 712.177,321.486 "
   stroke-miterlimit="10"
   style="fill:none;stroke:#6d6f71;stroke-width:0.48649999;stroke-miterlimit:10"
   transform="translate(-332.07299,0.25675)" />
<line
   id="line111"
   y2="364.30975"
   x2="227.81602"
   y1="367.24374"
   x1="187.644"
   stroke-miterlimit="10"
   style="fill:none;stroke:#6d6f71;stroke-width:0.48649999;stroke-miterlimit:10" />
<path
   d="M 240.81401,369.10075"
   id="path113"
   style="fill:none;stroke:#6d6f71;stroke-width:0.48649999;stroke-miterlimit:10" />
<polyline
   id="polyline115"
   points="561.613,364.053 561.613,377.116   575.799,379.71 "
   stroke-miterlimit="10"
   style="fill:none;stroke:#6d6f71;stroke-width:0.48649999;stroke-miterlimit:10"
   transform="translate(-332.07299,0.25675)" />
<path
   d="M 240.44501,366.83175"
   id="path117"
   style="fill:none;stroke:#6d6f71;stroke-width:0.48649999;stroke-miterlimit:10" />
<line
   id="line119"
   y2="377.37274"
   x2="228.89006"
   y1="354.50876"
   x1="190.57704"
   stroke-miterlimit="10"
   style="fill:none;stroke:#6d6f71;stroke-width:0.48649999;stroke-miterlimit:10" />
<line
   id="line121"
   y2="417.58875"
   x2="240.44505"
   y1="380.30875"
   x1="243.37602"
   stroke-miterlimit="10"
   style="fill:none;stroke:#6d6f71;stroke-width:0.48649999;stroke-miterlimit:10" />
<line
   id="line123"
   y2="414.58875"
   x2="252.00706"
   y1="378.02274"
   x1="229.70604"
   stroke-miterlimit="10"
   style="fill:none;stroke:#6d6f71;stroke-width:0.48649999;stroke-miterlimit:10" />
<line
   id="line125"
   y2="404.61374"
   x2="294.32504"
   y1="415.29175"
   x1="252.63707"
   stroke-miterlimit="10"
   style="fill:none;stroke:#6d6f71;stroke-width:0.48649999;stroke-miterlimit:10" />
<path
   d="M 264.72601,379.62875"
   id="path127"
   style="fill:none;stroke:#6d6f71;stroke-width:0.48649999;stroke-miterlimit:10" />
<path
   d="M 240.44501,366.83175"
   id="path129"
   style="fill:none;stroke:#6d6f71;stroke-width:0.48649999;stroke-miterlimit:10" />
<path
   d="M 240.85101,367.23875"
   id="path131"
   style="fill:none;stroke:#6d6f71;stroke-width:0.48649999;stroke-miterlimit:10" />
<line
   id="line133"
   y2="369.34775"
   x2="271.62204"
   y1="379.62875"
   x1="243.72606"
   stroke-miterlimit="10"
   style="fill:none;stroke:#6d6f71;stroke-width:0.48649999;stroke-miterlimit:10" />
<polyline
   id="polyline135"
   points="602.073,369.921 569.581,336.496   568.507,287.765 601.507,254.925 650.313,252.759 685.707,286.74 686.035,333.912 651.075,369.574 603.334,370.708 "
   stroke-miterlimit="10"
   style="fill:none;stroke:#6d6f71;stroke-width:0.48649999;stroke-miterlimit:10"
   transform="translate(-332.07299,0.25675)" />
<polyline
   id="polyline137"
   points="598.18,380.052 602.621,369.015   616.343,397.766 637.506,398.357 665.236,426.729 "
   stroke-miterlimit="10"
   style="fill:none;stroke:#6d6f71;stroke-width:0.48649999;stroke-miterlimit:10"
   transform="translate(-332.07299,0.25675)" />
<polyline
   id="polyline139"
   points="627.209,403.631 616.75,397.373   590.478,426.729 627.209,403.631 665.236,426.17 651.075,450.061 626.477,463.225 602.911,450.061 590.114,426.98 "
   stroke-miterlimit="10"
   style="fill:none;stroke:#6d6f71;stroke-width:0.48649999;stroke-miterlimit:10"
   transform="translate(-332.07299,0.25675)" />
<line
   id="line141"
   y2="403.56375"
   x2="294.89505"
   y1="398.44974"
   x1="305.02603"
   stroke-miterlimit="10"
   style="fill:none;stroke:#6d6f71;stroke-width:0.48649999;stroke-miterlimit:10" />
<path
   d="m 306.08001,398.44975 13.47,-29.178 c 0,0 5.749,12.562 5.827,12.884 l 29.19,-45.056"
   id="path143"
   style="fill:none;stroke:#6d6f71;stroke-width:0.48649999;stroke-miterlimit:10" />
<polyline
   id="polyline145"
   points="626.225,404.357 670.367,415.035   665.236,427.145 "
   stroke-miterlimit="10"
   style="fill:none;stroke:#6d6f71;stroke-width:0.48649999;stroke-miterlimit:10"
   transform="translate(-332.07299,0.25675)" />
<path
   d="M 271.62201,370.41675"
   id="path147"
   style="fill:none;stroke:#6d6f71;stroke-width:0.48649999;stroke-miterlimit:10" />
<line
   id="line149"
   y2="418.96576"
   x2="349.37906"
   y1="426.42676"
   x1="333.16306"
   stroke-miterlimit="10"
   style="fill:none;stroke:#6d6f71;stroke-width:0.48649999;stroke-miterlimit:10" />
<path
   d="m 349.37901,419.86075 c -0.162,0 -11.351,-4.301 -11.351,-4.301"
   id="path151"
   style="fill:none;stroke:#6d6f71;stroke-width:0.48649999;stroke-miterlimit:10" />
<line
   id="line153"
   y2="376.69174"
   x2="359.42905"
   y1="414.58875"
   x1="337.50204"
   stroke-miterlimit="10"
   style="fill:none;stroke:#6d6f71;stroke-width:0.48649999;stroke-miterlimit:10" />
<polyline
   id="polyline155"
   points="680.477,378.979 680.479,380.394   680.533,420.371 "
   stroke-miterlimit="10"
   style="fill:none;stroke:#6d6f71;stroke-width:0.48649999;stroke-miterlimit:10"
   transform="translate(-332.07299,0.25675)" />
<path
   d="m 347.76601,379.62875 c -0.903,-0.067 -28.063,-9.716 -28.063,-9.716"
   id="path157"
   style="fill:none;stroke:#6d6f71;stroke-width:0.48649999;stroke-miterlimit:10" />
<polyline
   id="polyline159"
   points="690.046,377.441 679.18,378.656   693.693,364.053 691.102,375.008 "
   stroke-miterlimit="10"
   style="fill:none;stroke:#6d6f71;stroke-width:0.48649999;stroke-miterlimit:10"
   transform="translate(-332.07299,0.25675)" />
<line
   id="line161"
   y2="365.53574"
   x2="362.36404"
   y1="335.88174"
   x1="353.96201"
   stroke-miterlimit="10"
   style="fill:none;stroke:#6d6f71;stroke-width:0.48649999;stroke-miterlimit:10" />
<line
   id="line163"
   y2="335.88174"
   x2="353.02505"
   y1="339.91473"
   x1="364.53806"
   stroke-miterlimit="10"
   style="fill:none;stroke:#6d6f71;stroke-width:0.48649999;stroke-miterlimit:10" />
<line
   id="line165"
   y2="322.39874"
   x2="378.93002"
   y1="335.16873"
   x1="354.56802"
   stroke-miterlimit="10"
   style="fill:none;stroke:#6d6f71;stroke-width:0.48649999;stroke-miterlimit:10" />
<line
   id="line167"
   y2="301.48373"
   x2="379.26303"
   y1="287.23575"
   x1="353.02505"
   stroke-miterlimit="10"
   style="fill:none;stroke:#6d6f71;stroke-width:0.48649999;stroke-miterlimit:10" />
<line
   id="line169"
   y2="287.23575"
   x2="354.56802"
   y1="283.49274"
   x1="365.10306"
   stroke-miterlimit="10"
   style="fill:none;stroke:#6d6f71;stroke-width:0.48649999;stroke-miterlimit:10" />
<polyline
   id="polyline171"
   points="711.613,300.738 719.963,311.357   712.714,322.142 712.714,300.332 "
   stroke-miterlimit="10"
   style="fill:none;stroke:#6d6f71;stroke-width:0.48649999;stroke-miterlimit:10"
   transform="translate(-332.07299,0.25675)" />
<polyline
   id="polyline173"
   points="694.437,364.053 733.584,366.049   730.663,353.9 692.232,376.061 "
   stroke-miterlimit="10"
   style="fill:none;stroke:#6d6f71;stroke-width:0.48649999;stroke-miterlimit:10"
   transform="translate(-332.07299,0.25675)" />
<polyline
   id="polyline175"
   points="745.586,360.169 744.667,359.792   731.328,354.336 741.526,351.983 745.586,359.766 "
   stroke-miterlimit="10"
   style="fill:none;stroke:#6d6f71;stroke-width:0.48649999;stroke-miterlimit:10"
   transform="translate(-332.07299,0.25675)" />
<line
   id="line177"
   y2="311.99075"
   x2="386.59103"
   y1="354.15674"
   x1="398.06406"
   stroke-miterlimit="10"
   style="fill:none;stroke:#6d6f71;stroke-width:0.48649999;stroke-miterlimit:10" />
<line
   id="line179"
   y2="350.03775"
   x2="410.03604"
   y1="322.26575"
   x1="380.27805"
   stroke-miterlimit="10"
   style="fill:none;stroke:#6d6f71;stroke-width:0.48649999;stroke-miterlimit:10" />
<line
   id="line181"
   y2="334.16873"
   x2="433.61801"
   y1="360.88974"
   x1="413.91702"
   stroke-miterlimit="10"
   style="fill:none;stroke:#6d6f71;stroke-width:0.48649999;stroke-miterlimit:10" />
<line
   id="line183"
   y2="391.47974"
   x2="421.21201"
   y1="367.72375"
   x1="402.18106"
   stroke-miterlimit="10"
   style="fill:none;stroke:#6d6f71;stroke-width:0.48649999;stroke-miterlimit:10" />
<line
   id="line185"
   y2="391.47974"
   x2="409.798"
   y1="421.72375"
   x1="415.13205"
   stroke-miterlimit="10"
   style="fill:none;stroke:#6d6f71;stroke-width:0.48649999;stroke-miterlimit:10" />
<line
   id="line187"
   y2="416.52274"
   x2="406.384"
   y1="438.02475"
   x1="380.83603"
   stroke-miterlimit="10"
   style="fill:none;stroke:#6d6f71;stroke-width:0.48649999;stroke-miterlimit:10" />
<line
   id="line189"
   y2="427.27274"
   x2="379.54001"
   y1="431.61575"
   x1="344.84006"
   stroke-miterlimit="10"
   style="fill:none;stroke:#6d6f71;stroke-width:0.48649999;stroke-miterlimit:10" />
<line
   id="line191"
   y2="450.31775"
   x2="319.19803"
   y1="431.12973"
   x1="345.07803"
   stroke-miterlimit="10"
   style="fill:none;stroke:#6d6f71;stroke-width:0.48649999;stroke-miterlimit:10" />
<line
   id="line193"
   y2="464.12775"
   x2="295.11606"
   y1="456.18475"
   x1="327.07706"
   stroke-miterlimit="10"
   style="fill:none;stroke:#6d6f71;stroke-width:0.48649999;stroke-miterlimit:10" />
<line
   id="line195"
   y2="450.31775"
   x2="271.26102"
   y1="475.17874"
   x1="293.49503"
   stroke-miterlimit="10"
   style="fill:none;stroke:#6d6f71;stroke-width:0.48649999;stroke-miterlimit:10" />
<line
   id="line197"
   y2="429.76474"
   x2="258.98001"
   y1="460.54773"
   x1="265.39603"
   stroke-miterlimit="10"
   style="fill:none;stroke:#6d6f71;stroke-width:0.48649999;stroke-miterlimit:10" />
<line
   id="line199"
   y2="335.37274"
   x2="155.51103"
   y1="361.37573"
   x1="175.53801"
   stroke-miterlimit="10"
   style="fill:none;stroke:#6d6f71;stroke-width:0.48649999;stroke-miterlimit:10" />
<line
   id="line201"
   y2="310.64374"
   x2="144.89003"
   y1="341.85873"
   x1="147.24001"
   stroke-miterlimit="10"
   style="fill:none;stroke:#6d6f71;stroke-width:0.48649999;stroke-miterlimit:10" />
<line
   id="line203"
   y2="287.04874"
   x2="157.79802"
   y1="310.64374"
   x1="131.72701"
   stroke-miterlimit="10"
   style="fill:none;stroke:#6d6f71;stroke-width:0.48649999;stroke-miterlimit:10" />
<line
   id="line205"
   y2="273.26373"
   x2="179.00902"
   y1="276.74374"
   x1="151.92903"
   stroke-miterlimit="10"
   style="fill:none;stroke:#6d6f71;stroke-width:0.48649999;stroke-miterlimit:10" />
<line
   id="line207"
   y2="229.49875"
   x2="179.34801"
   y1="261.74475"
   x1="176.07301"
   stroke-miterlimit="10"
   style="fill:none;stroke:#6d6f71;stroke-width:0.48649999;stroke-miterlimit:10" />
<line
   id="line209"
   y2="202.48175"
   x2="190.78102"
   y1="229.73975"
   x1="169.13301"
   stroke-miterlimit="10"
   style="fill:none;stroke:#6d6f71;stroke-width:0.48649999;stroke-miterlimit:10" />
<line
   id="line211"
   y2="197.63275"
   x2="216.32304"
   y1="195.10274"
   x1="181.62001"
   stroke-miterlimit="10"
   style="fill:none;stroke:#6d6f71;stroke-width:0.48649999;stroke-miterlimit:10" />
<line
   id="line213"
   y2="202.56274"
   x2="241.13304"
   y1="185.19174"
   x1="214.94603"
   stroke-miterlimit="10"
   style="fill:none;stroke:#6d6f71;stroke-width:0.48649999;stroke-miterlimit:10" />
<line
   id="line215"
   y2="166.02675"
   x2="262.46103"
   y1="195.68575"
   x1="257.06802"
   stroke-miterlimit="10"
   style="fill:none;stroke:#6d6f71;stroke-width:0.48649999;stroke-miterlimit:10" />
<line
   id="line217"
   y2="148.48175"
   x2="291.23904"
   y1="172.10374"
   x1="271.80905"
   stroke-miterlimit="10"
   style="fill:none;stroke:#6d6f71;stroke-width:0.48649999;stroke-miterlimit:10" />
<line
   id="line219"
   y2="166.02675"
   x2="328.00204"
   y1="160.29175"
   x1="292.43802"
   stroke-miterlimit="10"
   style="fill:none;stroke:#6d6f71;stroke-width:0.48649999;stroke-miterlimit:10" />
<line
   id="line221"
   y2="194.29175"
   x2="345.79404"
   y1="173.59575"
   x1="319.00204"
   stroke-miterlimit="10"
   style="fill:none;stroke:#6d6f71;stroke-width:0.48649999;stroke-miterlimit:10" />
<line
   id="line223"
   y2="184.40175"
   x2="374.23904"
   y1="201.83374"
   x1="348.72903"
   stroke-miterlimit="10"
   style="fill:none;stroke:#6d6f71;stroke-width:0.48649999;stroke-miterlimit:10" />
<line
   id="line225"
   y2="193.11774"
   x2="406.05301"
   y1="195.26575"
   x1="375.48404"
   stroke-miterlimit="10"
   style="fill:none;stroke:#6d6f71;stroke-width:0.48649999;stroke-miterlimit:10" />
<line
   id="line227"
   y2="230.04875"
   x2="421.05203"
   y1="202.15874"
   x1="400.45804"
   stroke-miterlimit="10"
   style="fill:none;stroke:#6d6f71;stroke-width:0.48649999;stroke-miterlimit:10" />
<line
   id="line229"
   y2="262.56375"
   x2="414.31906"
   y1="230.04875"
   x1="409.798"
   stroke-miterlimit="10"
   style="fill:none;stroke:#6d6f71;stroke-width:0.48649999;stroke-miterlimit:10" />
<polyline
   id="polyline231"
   points="736.003,257.96 731.8,268.387   738.934,271.408 "
   stroke-miterlimit="10"
   style="fill:none;stroke:#6d6f71;stroke-width:0.48649999;stroke-miterlimit:10"
   transform="translate(-332.07299,0.25675)" />
<line
   id="line233"
   y2="263.53476"
   x2="412.06003"
   y1="268.39975"
   x1="399.08102"
   stroke-miterlimit="10"
   style="fill:none;stroke:#6d6f71;stroke-width:0.48649999;stroke-miterlimit:10" />
<line
   id="line235"
   y2="279.33374"
   x2="439.19901"
   y1="273.26373"
   x1="407.59103"
   stroke-miterlimit="10"
   style="fill:none;stroke:#6d6f71;stroke-width:0.48649999;stroke-miterlimit:10" />
<line
   id="line237"
   y2="310.88776"
   x2="458.10605"
   y1="287.77774"
   x1="434.75101"
   stroke-miterlimit="10"
   style="fill:none;stroke:#6d6f71;stroke-width:0.48649999;stroke-miterlimit:10" />
<line
   id="line239"
   y2="341.45474"
   x2="442.78104"
   y1="310.88776"
   x1="446.51004"
   stroke-miterlimit="10"
   style="fill:none;stroke:#6d6f71;stroke-width:0.48649999;stroke-miterlimit:10" />
<line
   id="line241"
   y2="273.26373"
   x2="406.86105"
   y1="301.48373"
   x1="379.54001"
   stroke-miterlimit="10"
   style="fill:none;stroke:#6d6f71;stroke-width:0.48649999;stroke-miterlimit:10" />
<line
   id="line243"
   y2="313.07275"
   x2="387.48605"
   y1="269.36975"
   x1="398.91806"
   stroke-miterlimit="10"
   style="fill:none;stroke:#6d6f71;stroke-width:0.48649999;stroke-miterlimit:10" />
<line
   id="line245"
   y2="259.62973"
   x2="362.57706"
   y1="258.21674"
   x1="402.89102"
   stroke-miterlimit="10"
   style="fill:none;stroke:#6d6f71;stroke-width:0.48649999;stroke-miterlimit:10" />
<line
   id="line247"
   y2="268.64374"
   x2="398.06406"
   y1="246.02174"
   x1="359.42905"
   stroke-miterlimit="10"
   style="fill:none;stroke:#6d6f71;stroke-width:0.48649999;stroke-miterlimit:10" />
<polyline
   id="polyline249"
   points="679.262,244.322 652.019,252.251   657.288,240.981 "
   stroke-miterlimit="10"
   style="fill:none;stroke:#6d6f71;stroke-width:0.48649999;stroke-miterlimit:10"
   transform="translate(-332.07299,0.25675)" />
<line
   id="line251"
   y2="287.74274"
   x2="353.96201"
   y1="241.64474"
   x1="324.86703"
   stroke-miterlimit="10"
   style="fill:none;stroke:#6d6f71;stroke-width:0.48649999;stroke-miterlimit:10" />
<line
   id="line253"
   y2="253.01575"
   x2="319.64206"
   y1="282.26773"
   x1="364.66"
   stroke-miterlimit="10"
   style="fill:none;stroke:#6d6f71;stroke-width:0.48649999;stroke-miterlimit:10" />
<polyline
   id="polyline255"
   points="685.922,286.17 694.437,259.373   680.802,244.952 691.502,246.169 693.045,257.458 "
   stroke-miterlimit="10"
   style="fill:none;stroke:#6d6f71;stroke-width:0.48649999;stroke-miterlimit:10"
   transform="translate(-332.07299,0.25675)" />
<line
   id="line257"
   y2="333.07574"
   x2="354.77902"
   y1="281.53476"
   x1="365.298"
   stroke-miterlimit="10"
   style="fill:none;stroke:#6d6f71;stroke-width:0.48649999;stroke-miterlimit:10" />
<line
   id="line259"
   y2="337.89676"
   x2="364.66"
   y1="287.37674"
   x1="353.96506"
   stroke-miterlimit="10"
   style="fill:none;stroke:#6d6f71;stroke-width:0.48649999;stroke-miterlimit:10" />
<line
   id="line261"
   y2="340.22375"
   x2="365.298"
   y1="370.96475"
   x1="321.24203"
   stroke-miterlimit="10"
   style="fill:none;stroke:#6d6f71;stroke-width:0.48649999;stroke-miterlimit:10" />
<path
   d="M 355.54601,336.76375"
   id="path263"
   style="fill:none;stroke:#6d6f71;stroke-width:0.48649999;stroke-miterlimit:10" />
<line
   id="line265"
   y2="370.96475"
   x2="319.70206"
   y1="380.30875"
   x1="266.75705"
   stroke-miterlimit="10"
   style="fill:none;stroke:#6d6f71;stroke-width:0.48649999;stroke-miterlimit:10" />
<line
   id="line267"
   y2="382.56274"
   x2="324.86703"
   y1="370.41675"
   x1="270.85202"
   stroke-miterlimit="10"
   style="fill:none;stroke:#6d6f71;stroke-width:0.48649999;stroke-miterlimit:10" />
<path
   d="M 239.50901,366.61475"
   id="path269"
   style="fill:none;stroke:#6d6f71;stroke-width:0.48649999;stroke-miterlimit:10" />
<polyline
   id="polyline271"
   points="562.259,364.053 568.263,335.034   558.045,340.55 "
   stroke-miterlimit="10"
   style="fill:none;stroke:#6d6f71;stroke-width:0.48649999;stroke-miterlimit:10"
   transform="translate(-332.07299,0.25675)" />
<path
   d="M 262.72801,379.09075"
   id="path273"
   style="fill:none;stroke:#6d6f71;stroke-width:0.48649999;stroke-miterlimit:10" />
<line
   id="line275"
   y2="322.99274"
   x2="209.73402"
   y1="348.57074"
   x1="181.62001"
   stroke-miterlimit="10"
   style="fill:none;stroke:#6d6f71;stroke-width:0.48649999;stroke-miterlimit:10" />
<polyline
   id="polyline277"
   points="522.65,354.252 534.612,311.357   541.66,321.955 542.154,300.738 534.612,310.821 "
   stroke-miterlimit="10"
   style="fill:none;stroke:#6d6f71;stroke-width:0.48649999;stroke-miterlimit:10"
   transform="translate(-332.07299,0.25675)" />
<line
   id="line279"
   y2="300.99475"
   x2="210.683"
   y1="274.05576"
   x1="181.62001"
   stroke-miterlimit="10"
   style="fill:none;stroke:#6d6f71;stroke-width:0.48649999;stroke-miterlimit:10" />
<line
   id="line281"
   y2="268.43173"
   x2="192.56801"
   y1="311.32175"
   x1="203.63503"
   stroke-miterlimit="10"
   style="fill:none;stroke:#6d6f71;stroke-width:0.48649999;stroke-miterlimit:10" />
<polyline
   id="polyline283"
   points="557.234,340.021 557.234,342.169   602.16,370.16 "
   stroke-miterlimit="10"
   style="fill:none;stroke:#6d6f71;stroke-width:0.48649999;stroke-miterlimit:10"
   transform="translate(-332.07299,0.25675)" />
<line
   id="line285"
   y2="336.28876"
   x2="236.57506"
   y1="379.96674"
   x1="265.39603"
   stroke-miterlimit="10"
   style="fill:none;stroke:#6d6f71;stroke-width:0.48649999;stroke-miterlimit:10" />
<line
   id="line287"
   y2="287.31375"
   x2="236.57506"
   y1="341.37375"
   x1="225.38902"
   stroke-miterlimit="10"
   style="fill:none;stroke:#6d6f71;stroke-width:0.48649999;stroke-miterlimit:10" />
<line
   id="line289"
   y2="335.29074"
   x2="235.81303"
   y1="282.26773"
   x1="223.67204"
   stroke-miterlimit="10"
   style="fill:none;stroke:#6d6f71;stroke-width:0.48649999;stroke-miterlimit:10" />
<line
   id="line291"
   y2="302.27975"
   x2="209.58699"
   y1="289.36075"
   x1="234.59508"
   stroke-miterlimit="10"
   style="fill:none;stroke:#6d6f71;stroke-width:0.48649999;stroke-miterlimit:10" />
<line
   id="line293"
   y2="322.99274"
   x2="212.21504"
   y1="336.28876"
   x1="235.81303"
   stroke-miterlimit="10"
   style="fill:none;stroke:#6d6f71;stroke-width:0.48649999;stroke-miterlimit:10" />
<line
   id="line295"
   y2="287.31375"
   x2="236.57506"
   y1="282.26773"
   x1="223.67204"
   stroke-miterlimit="10"
   style="fill:none;stroke:#6d6f71;stroke-width:0.48649999;stroke-miterlimit:10" />
<line
   id="line297"
   y2="253.33875"
   x2="270.548"
   y1="281.90173"
   x1="223.67204"
   stroke-miterlimit="10"
   style="fill:none;stroke:#6d6f71;stroke-width:0.48649999;stroke-miterlimit:10" />
<line
   id="line299"
   y2="242.40175"
   x2="265.39603"
   y1="287.31375"
   x1="236.57506"
   stroke-miterlimit="10"
   style="fill:none;stroke:#6d6f71;stroke-width:0.48649999;stroke-miterlimit:10" />
<polyline
   id="polyline301"
   points="558.677,259.373 559.938,258.242   575.446,244.322 563.154,245.765 "
   stroke-miterlimit="10"
   style="fill:none;stroke:#6d6f71;stroke-width:0.48649999;stroke-miterlimit:10"
   transform="translate(-332.07299,0.25675)" />
<line
   id="line303"
   y2="246.29875"
   x2="230.12004"
   y1="258.92374"
   x1="227.81602"
   stroke-miterlimit="10"
   style="fill:none;stroke:#6d6f71;stroke-width:0.48649999;stroke-miterlimit:10" />
<polyline
   id="polyline305"
   points="575.446,246.042 601.382,253.672   598.18,242.145 "
   stroke-miterlimit="10"
   style="fill:none;stroke:#6d6f71;stroke-width:0.48649999;stroke-miterlimit:10"
   transform="translate(-332.07299,0.25675)" />
<line
   id="line307"
   y2="287.01276"
   x2="236.63402"
   y1="259.96576"
   x1="227.23003"
   stroke-miterlimit="10"
   style="fill:none;stroke:#6d6f71;stroke-width:0.48649999;stroke-miterlimit:10" />
<line
   id="line309"
   y2="379.62875"
   x2="244.07103"
   y1="363.50674"
   x1="229.54002"
   stroke-miterlimit="10"
   style="fill:none;stroke:#6d6f71;stroke-width:0.48649999;stroke-miterlimit:10" />
<line
   id="line311"
   y2="227.77974"
   x2="284.69803"
   y1="253.01575"
   x1="271.80905"
   stroke-miterlimit="10"
   style="fill:none;stroke:#6d6f71;stroke-width:0.48649999;stroke-miterlimit:10" />
<line
   id="line313"
   y2="252.10475"
   x2="319.64206"
   y1="228.23775"
   x1="304.94504"
   stroke-miterlimit="10"
   style="fill:none;stroke:#6d6f71;stroke-width:0.48649999;stroke-miterlimit:10" />
<line
   id="line315"
   y2="241.23775"
   x2="324.55002"
   y1="253.33875"
   x1="271.26102"
   stroke-miterlimit="10"
   style="fill:none;stroke:#6d6f71;stroke-width:0.48649999;stroke-miterlimit:10" />
<line
   id="line317"
   y2="252.61076"
   x2="319.00204"
   y1="241.64474"
   x1="266.75705"
   stroke-miterlimit="10"
   style="fill:none;stroke:#6d6f71;stroke-width:0.48649999;stroke-miterlimit:10" />
<polyline
   id="polyline319"
   points="616.771,225.869 637.506,226.549   628.871,217.793 616.343,227.523 "
   stroke-miterlimit="10"
   style="fill:none;stroke:#6d6f71;stroke-width:0.48649999;stroke-miterlimit:10"
   transform="translate(-332.07299,0.25675)" />
<line
   id="line321"
   y2="204.34674"
   x2="348.72903"
   y1="244.57875"
   x1="347.76602"
   stroke-miterlimit="10"
   style="fill:none;stroke:#6d6f71;stroke-width:0.48649999;stroke-miterlimit:10" />
<line
   id="line323"
   y2="244.57875"
   x2="359.07401"
   y1="207.18375"
   x1="338.673"
   stroke-miterlimit="10"
   style="fill:none;stroke:#6d6f71;stroke-width:0.48649999;stroke-miterlimit:10" />
<line
   id="line325"
   y2="203.53674"
   x2="349.86301"
   y1="209.61574"
   x1="336.97006"
   stroke-miterlimit="10"
   style="fill:none;stroke:#6d6f71;stroke-width:0.48649999;stroke-miterlimit:10" />
<line
   id="line327"
   y2="207.50674"
   x2="336.97006"
   y1="195.68575"
   x1="333.16306"
   stroke-miterlimit="10"
   style="fill:none;stroke:#6d6f71;stroke-width:0.48649999;stroke-miterlimit:10" />
<path
   d="m 336.97001,209.14975 c -0.563,-0.182 -40.801,9.388 -40.801,9.388"
   id="path329"
   style="fill:none;stroke:#6d6f71;stroke-width:0.48649999;stroke-miterlimit:10" />
<path
   d="M 252.17901,208.57775"
   id="path331"
   style="fill:none;stroke:#6d6f71;stroke-width:0.48649999;stroke-miterlimit:10" />
<line
   id="line333"
   y2="218.94174"
   x2="297.07706"
   y1="208.23874"
   x1="252.64806"
   stroke-miterlimit="10"
   style="fill:none;stroke:#6d6f71;stroke-width:0.48649999;stroke-miterlimit:10" />
<polyline
   id="polyline335"
   points="615.694,227.197 589.423,194.602   584.252,208.321 573.531,203.768 575.446,243.905 "
   stroke-miterlimit="10"
   style="fill:none;stroke:#6d6f71;stroke-width:0.48649999;stroke-miterlimit:10"
   transform="translate(-332.07299,0.25675)" />
<line
   id="line337"
   y2="209.14975"
   x2="250.53807"
   y1="245.61774"
   x1="229.54002"
   stroke-miterlimit="10"
   style="fill:none;stroke:#6d6f71;stroke-width:0.48649999;stroke-miterlimit:10" />
<line
   id="line339"
   y2="259.62973"
   x2="226.60405"
   y1="260.64975"
   x1="187.06905"
   stroke-miterlimit="10"
   style="fill:none;stroke:#6d6f71;stroke-width:0.48649999;stroke-miterlimit:10" />
<line
   id="line341"
   y2="245.61774"
   x2="228.96806"
   y1="267.64273"
   x1="192.56801"
   stroke-miterlimit="10"
   style="fill:none;stroke:#6d6f71;stroke-width:0.48649999;stroke-miterlimit:10" />
<polygon
   points="603.882,286.17 593.049,310.04 603.334,333.912 627.189,345.1 651.075,333.909 660.963,310.04 651.075,286.17 627.189,277.615 "
   transform="translate(-332.07299,0.25675)"
   id="polygon343"
   style="fill:none;stroke:#6d6f71;stroke-width:0.48649999;stroke-miterlimit:10" />
<polyline
   id="polyline345"
   points="612.764,310.04 627.189,295.564   640.434,310.04 612.126,310.04 604.666,285.899 "
   stroke-miterlimit="10"
   style="fill:none;stroke:#6d6f71;stroke-width:0.48649999;stroke-miterlimit:10"
   transform="translate(-332.07299,0.25675)" />
<polyline
   id="polyline347"
   points="612.764,310.04 626.398,323.696   640.434,311.065 "
   stroke-miterlimit="10"
   style="fill:none;stroke:#6d6f71;stroke-width:0.48649999;stroke-miterlimit:10"
   transform="translate(-332.07299,0.25675)" />
<line
   id="line349"
   y2="323.95276"
   x2="294.32504"
   y1="296.96475"
   x1="296.16904"
   stroke-miterlimit="10"
   style="fill:none;stroke:#6d6f71;stroke-width:0.48649999;stroke-miterlimit:10" />
<polyline
   id="polyline351"
   points="613.408,310.04 603.882,332.691   627.189,323.696 627.672,346.714 "
   stroke-miterlimit="10"
   style="fill:none;stroke:#6d6f71;stroke-width:0.48649999;stroke-miterlimit:10"
   transform="translate(-332.07299,0.25675)" />
<line
   id="line353"
   y2="323.95276"
   x2="296.16904"
   y1="333.35474"
   x1="319.00204"
   stroke-miterlimit="10"
   style="fill:none;stroke:#6d6f71;stroke-width:0.48649999;stroke-miterlimit:10" />
<line
   id="line355"
   y2="332.47873"
   x2="319.70206"
   y1="310.29675"
   x1="308.36105"
   stroke-miterlimit="10"
   style="fill:none;stroke:#6d6f71;stroke-width:0.48649999;stroke-miterlimit:10" />
<line
   id="line357"
   y2="311.32175"
   x2="308.89005"
   y1="311.32175"
   x1="327.07706"
   stroke-miterlimit="10"
   style="fill:none;stroke:#6d6f71;stroke-width:0.48649999;stroke-miterlimit:10" />
<line
   id="line359"
   y2="310.45874"
   x2="308.89005"
   y1="287.52774"
   x1="317.98605"
   stroke-miterlimit="10"
   style="fill:none;stroke:#6d6f71;stroke-width:0.48649999;stroke-miterlimit:10" />
<line
   id="line361"
   y2="288.06274"
   x2="316.57303"
   y1="295.82074"
   x1="295.11606"
   stroke-miterlimit="10"
   style="fill:none;stroke:#6d6f71;stroke-width:0.48649999;stroke-miterlimit:10" />
<line
   id="line363"
   y2="279.33374"
   x2="294.15201"
   y1="294.35974"
   x1="294.93301"
   stroke-miterlimit="10"
   style="fill:none;stroke:#6d6f71;stroke-width:0.48649999;stroke-miterlimit:10" />
<line
   id="line365"
   y2="296.34375"
   x2="295.59903"
   y1="285.36374"
   x1="270.85202"
   stroke-miterlimit="10"
   style="fill:none;stroke:#6d6f71;stroke-width:0.48649999;stroke-miterlimit:10" />
<line
   id="line367"
   y2="311.32175"
   x2="263.34805"
   y1="310.45874"
   x1="278.91605"
   stroke-miterlimit="10"
   style="fill:none;stroke:#6d6f71;stroke-width:0.48649999;stroke-miterlimit:10" />
<polyline
   id="polyline369"
   points="650.059,334.386 604.666,333.912   602.925,288.28 650.321,285.899 652.019,332.819 "
   stroke-miterlimit="10"
   style="fill:none;stroke:#6d6f71;stroke-width:0.48649999;stroke-miterlimit:10"
   transform="translate(-332.07299,0.25675)" />
<polyline
   id="polyline371"
   points="593.447,309.158 626.881,276.82   662.299,310.633 626.615,345.1 594.534,310.633 "
   stroke-miterlimit="10"
   style="fill:none;stroke:#6d6f71;stroke-width:0.48649999;stroke-miterlimit:10"
   transform="translate(-332.07299,0.25675)" />
<path
   d="m 295.14701,148.05075 c -19.306,0 -36.558,16.921 -49.228,44.771 -28.658,-10.733 -52.828,-10.5 -66.463,3.14 -7.191,7.216 -10.836,17.315 -10.836,30.058 0,10.804 2.704,23.156 7.704,36.392 -27.842,12.667 -44.766,29.911 -44.766,49.2 0,19.292 16.924,36.536 44.766,49.203 -5.003,13.236 -7.704,25.579 -7.704,36.382 0,12.756 3.645,22.867 10.836,30.084 13.648,13.629 37.816,13.865 66.469,3.129 12.667,27.85 29.916,44.77 49.222,44.77 19.278,0 36.524,-16.916 49.194,-44.77 28.65,10.736 52.82,10.5 66.457,-3.129 7.2,-7.217 10.831,-17.328 10.831,-30.084 0,-10.803 -2.698,-23.151 -7.698,-36.385 27.842,-12.664 44.75,-29.911 44.75,-49.2 0,-19.286 -16.908,-36.53 -44.753,-49.194 5.003,-13.239 7.701,-25.594 7.701,-36.397 0,-12.743 -3.631,-22.842 -10.831,-30.058 -13.637,-13.638 -37.807,-13.874 -66.457,-3.143 -12.67,-27.848 -29.916,-44.769 -49.194,-44.769 z"
   id="path373"
   style="fill:none;stroke:#6d6e71;stroke-width:0.97299999;stroke-miterlimit:10" />
<polyline
   id="polyline375"
   points="820.176,530.18 748.922,458.859   625.568,474.922 "
   stroke-miterlimit="10"
   style="fill:none;stroke:#d1d3d4;stroke-width:0.69419998;stroke-miterlimit:10"
   transform="translate(-332.07299,0.25675)" />
<line
   id="line377"
   y2="459.19073"
   x2="419.07504"
   y1="529.17871"
   x1="485.18906"
   stroke-miterlimit="10"
   style="fill:none;stroke:#d1d3d4;stroke-width:0.48649999;stroke-miterlimit:10" />
<line
   id="line379"
   y2="21.841736"
   x2="306.08005"
   y1="61.93576"
   x1="233.58904"
   stroke-miterlimit="10"
   style="fill:none;stroke:#a7a9ac;stroke-width:0.69419998;stroke-miterlimit:10" />
<line
   id="line381"
   y2="64.35675"
   x2="632.52203"
   y1="50.27475"
   x1="562.05109"
   stroke-miterlimit="10"
   style="fill:none;stroke:#d1d3d4;stroke-width:0.69419998;stroke-miterlimit:10" />
<path
   d="m 556.93901,195.12675 c 0,-2.82 2.287,-5.111 5.106,-5.111 2.826,0 5.117,2.292 5.117,5.111 0,2.82 -2.291,5.109 -5.117,5.109 -2.819,0 -5.106,-2.289 -5.106,-5.109 z"
   id="path383"
   style="fill:#d0d1d2" />
<path
   d="m 361.29501,41.75675 c 0,-4.697 3.808,-8.512 8.515,-8.512 4.699,0 8.521,3.815 8.521,8.512 0,4.702 -3.821,8.518 -8.521,8.518 -4.707,0 -8.515,-3.816 -8.515,-8.518 z"
   id="path385"
   style="fill:#bbbcbe" />
<path
   d="m 104.75201,46.59975 c 0,-4.697 3.811,-8.515 8.513,-8.515 4.702,0 8.521,3.818 8.521,8.515 0,4.702 -3.818,8.518 -8.521,8.518 -4.703,0 -8.513,-3.816 -8.513,-8.518 z"
   id="path387"
   style="fill:#d0d1d2" />
<path
   d="m 479.58801,530.43275 c 0,-4.695 3.808,-8.514 8.513,-8.514 4.705,0 8.523,3.818 8.523,8.514 0,4.703 -3.818,8.52 -8.523,8.52 -4.705,0 -8.513,-3.817 -8.513,-8.52 z"
   id="path389"
   style="fill:#a5a8ab" />
<path
   d="m 231.17001,61.93575 c 0,-1.337 1.085,-2.422 2.419,-2.422 1.34,0 2.424,1.085 2.424,2.422 0,1.337 -1.084,2.421 -2.424,2.421 -1.334,0 -2.419,-1.084 -2.419,-2.421 z"
   id="path391"
   style="fill:#6d6e71" />
<path
   d="m 503.19501,382.89075 c 0,-1.334 1.088,-2.419 2.427,-2.419 1.335,0 2.416,1.085 2.416,2.419 0,1.337 -1.081,2.422 -2.416,2.422 -1.34,0.001 -2.427,-1.085 -2.427,-2.422 z"
   id="path393"
   style="fill:#6d6f71" />
<circle
   cx="334.49399"
   cy="171.636"
   r="2.421"
   transform="translate(-332.07299,0.25675)"
   id="circle395"
   style="fill:#6d6e71" />
<path
   d="m 644.93401,256.32975 c 0,-4.697 3.81,-8.513 8.513,-8.513 4.705,0 8.522,3.815 8.522,8.513 0,4.702 -3.817,8.518 -8.522,8.518 -4.704,-0.001 -8.513,-3.816 -8.513,-8.518 z"
   id="path397"
   style="fill:#6d6e71" />
<path
   d="m 555.14201,50.27175 c 0,-3.807 3.088,-6.899 6.903,-6.899 3.815,0 6.913,3.092 6.913,6.899 0,3.815 -3.098,6.907 -6.913,6.907 -3.815,0 -6.903,-3.091 -6.903,-6.907 z"
   id="path399"
   style="fill:#6d6e71" />
<path
   d="m 409.94501,459.11375 c 0,-3.809 3.092,-6.902 6.898,-6.902 3.815,0 6.912,3.094 6.912,6.902 0,3.812 -3.097,6.906 -6.912,6.906 -3.807,0.001 -6.898,-3.093 -6.898,-6.906 z"
   id="path401"
   style="fill:#6d6e71" />
<path
   d="m 617.03801,447.86375 c 2.312,0 4.191,1.883 4.191,4.199 0,2.32 -1.879,4.199 -4.191,4.199 -2.322,0 -4.204,-1.879 -4.204,-4.199 0,-2.316 1.882,-4.199 4.204,-4.199 z"
   id="path403"
   style="fill:#d0d1d2" />
<path
   d="m 100.55701,115.11075 c 2.316,0 4.195,1.882 4.195,4.2 0,2.319 -1.879,4.198 -4.195,4.198 -2.321,0 -4.201,-1.879 -4.201,-4.198 0.001,-2.318 1.88,-4.2 4.201,-4.2 z"
   id="path405"
   style="fill:#a5a8ab" />
<path
   d="m 471.65901,113.14975 c 2.312,0 4.197,1.879 4.197,4.198 0,2.321 -1.885,4.201 -4.197,4.201 -2.321,0 -4.201,-1.879 -4.201,-4.201 0,-2.319 1.88,-4.198 4.201,-4.198 z"
   id="path407"
   style="fill:#a5a8ab" />
<path
   d="m 385.94301,504.05875 c 2.316,0 4.201,1.881 4.201,4.197 0,2.32 -1.885,4.199 -4.201,4.199 -2.315,0 -4.197,-1.879 -4.197,-4.199 -0.001,-2.316 1.881,-4.197 4.197,-4.197 z"
   id="path409"
   style="fill:#d0d1d2" />
<path
   d="m 306.08001,17.64375 c 2.319,0 4.198,1.879 4.198,4.198 0,2.318 -1.879,4.198 -4.198,4.198 -2.315,0 -4.198,-1.879 -4.198,-4.198 0,-2.319 1.883,-4.198 4.198,-4.198 z"
   id="path411"
   style="fill:#d0d1d2" />
<path
   d="m 632.52501,60.15875 c 2.316,0 4.195,1.879 4.195,4.198 0,2.319 -1.879,4.198 -4.195,4.198 -2.318,0 -4.203,-1.879 -4.203,-4.198 0,-2.319 1.884,-4.198 4.203,-4.198 z"
   id="path413"
   style="fill:#d0d1d2" />
<path
   d="M 181.94101,429.91275"
   id="path415"
   style="fill:#059a4c" />
<path
   d="M 181.62001,348.57075"
   id="path417"
   style="fill:#059a4c" />
<circle
   cx="593.44702"
   cy="310.04099"
   r="2.9330001"
   transform="translate(-332.07299,0.25675)"
   id="circle419"
   style="fill:#fc4c02" />
<path
   d="m 280.68501,308.67975 c 0.895,0 1.616,0.724 1.616,1.616 0,0.892 -0.722,1.616 -1.616,1.616 -0.89,0 -1.611,-0.724 -1.611,-1.616 0,-0.892 0.721,-1.616 1.611,-1.616 z"
   id="path421"
   style="fill:#fc4c02" />
<path
   d="m 131.55801,304.57475 c 3.162,0 5.722,2.562 5.722,5.722 0,3.16 -2.56,5.722 -5.722,5.722 -3.157,0 -5.722,-2.563 -5.722,-5.722 0,-3.159 2.566,-5.722 5.722,-5.722 z"
   id="path423"
   style="fill:#fc4c02" />
<path
   d="m 176.07301,358.44475 c 1.619,0 2.937,1.315 2.937,2.937 0,1.616 -1.318,2.929 -2.937,2.929 -1.619,0 -2.935,-1.312 -2.935,-2.929 0,-1.623 1.315,-2.937 2.935,-2.937 z"
   id="path425"
   style="fill:#fc4c02" />
<path
   d="m 176.07301,259.63175 c 1.619,0 2.937,1.312 2.937,2.932 0,1.622 -1.318,2.934 -2.937,2.934 -1.619,0 -2.935,-1.312 -2.935,-2.934 0,-1.619 1.315,-2.932 2.935,-2.932 z"
   id="path427"
   style="fill:#fc4c02" />
<path
   d="m 245.34701,189.81975 c 1.625,0 2.938,1.312 2.938,2.937 0,1.617 -1.312,2.929 -2.938,2.929 -1.615,0 -2.931,-1.312 -2.931,-2.929 0,-1.624 1.316,-2.937 2.931,-2.937 z"
   id="path429"
   style="fill:#fc4c02" />
<circle
   cx="573.20599"
   cy="202.957"
   r="2.934"
   transform="translate(-332.07299,0.25675)"
   id="circle431"
   style="fill:#fc4c02" />
<path
   d="m 292.18801,145.11875 c 1.619,0 2.929,1.312 2.929,2.932 0,1.622 -1.31,2.934 -2.929,2.934 -1.624,0 -2.934,-1.312 -2.934,-2.934 0,-1.619 1.31,-2.932 2.934,-2.932 z"
   id="path433"
   style="fill:#fc4c02" />
<path
   d="m 344.83401,189.81975 c 1.622,0 2.932,1.312 2.932,2.937 0,1.617 -1.31,2.929 -2.932,2.929 -1.616,0 -2.929,-1.312 -2.929,-2.929 10e-4,-1.624 1.313,-2.937 2.929,-2.937 z"
   id="path435"
   style="fill:#fc4c02" />
<path
   d="m 406.86101,189.81975 c 1.622,0 2.938,1.312 2.938,2.937 0,1.617 -1.315,2.929 -2.938,2.929 -1.615,0 -2.931,-1.312 -2.931,-2.929 0,-1.624 1.315,-2.937 2.931,-2.937 z"
   id="path437"
   style="fill:#fc4c02" />
<path
   d="m 413.91701,254.68875 c 4.081,0 7.393,3.306 7.393,7.392 0,4.079 -3.312,7.384 -7.393,7.384 -4.081,0 -7.39,-3.306 -7.39,-7.384 10e-4,-4.086 3.309,-7.392 7.39,-7.392 z"
   id="path439"
   style="fill:#fc4c02" />
<path
   d="m 458.68101,307.36475 c 1.621,0 2.932,1.312 2.932,2.931 0,1.622 -1.311,2.934 -2.932,2.934 -1.616,0 -2.929,-1.312 -2.929,-2.934 0,-1.618 1.313,-2.931 2.929,-2.931 z"
   id="path441"
   style="fill:#fc4c02" />
<circle
   cx="745.98999"
   cy="360.63501"
   r="2.9330001"
   transform="translate(-332.07299,0.25675)"
   id="circle443"
   style="fill:#fc4c02" />
<path
   d="m 344.83401,424.04975 c 3.913,0 7.083,3.17 7.083,7.084 0,3.908 -3.17,7.082 -7.083,7.082 -3.91,0 -7.077,-3.174 -7.077,-7.082 0,-3.914 3.167,-7.084 7.077,-7.084 z"
   id="path445"
   style="fill:#fc4c02" />
<path
   d="m 415.65801,419.45575 c 1.621,0 2.937,1.312 2.937,2.936 0,1.617 -1.315,2.934 -2.937,2.934 -1.622,0 -2.932,-1.316 -2.932,-2.934 0.001,-1.623 1.31,-2.936 2.932,-2.936 z"
   id="path447"
   style="fill:#fc4c02" />
<path
   d="m 293.49501,472.24875 c 1.621,0 2.937,1.312 2.937,2.932 0,1.62 -1.315,2.934 -2.937,2.934 -1.616,0 -2.932,-1.314 -2.932,-2.934 0,-1.62 1.316,-2.932 2.932,-2.932 z"
   id="path449"
   style="fill:#fc4c02" />
<path
   d="m 246.30501,421.16475 c 5.51,0 9.968,4.463 9.968,9.969 0,5.502 -4.458,9.965 -9.968,9.965 -5.5,0 -9.964,-4.463 -9.964,-9.965 0,-5.506 4.464,-9.969 9.964,-9.969 z"
   id="path451"
   style="fill:#fc4c02" />
<path
   d="m 181.93501,426.98175 c 1.622,0 2.938,1.312 2.938,2.934 0,1.619 -1.315,2.932 -2.938,2.932 -1.616,0 -2.926,-1.312 -2.926,-2.932 0,-1.622 1.31,-2.934 2.926,-2.934 z"
   id="path453"
   style="fill:#fc4c02" />
<path
   d="m 168.61701,377.68675 c 8.965,0 16.23,7.265 16.23,16.236 0,8.957 -7.265,16.221 -16.23,16.221 -8.965,0 -16.227,-7.264 -16.227,-16.221 0,-8.971 7.263,-16.236 16.227,-16.236 z"
   id="path455"
   style="fill:#fc4c02" />
<circle
   cx="512.96399"
   cy="393.659"
   r="2.9330001"
   transform="translate(-332.07299,0.25675)"
   id="circle457"
   style="fill:#fc4c02" />
<path
   d="m 146.79301,339.49175 c 1.616,0 2.932,1.312 2.932,2.934 0,1.619 -1.315,2.931 -2.932,2.931 -1.622,0 -2.934,-1.312 -2.934,-2.931 0,-1.622 1.313,-2.934 2.934,-2.934 z"
   id="path459"
   style="fill:#fc4c02" />
<path
   d="m 154.86401,331.23675 c 1.622,0 2.934,1.31 2.934,2.934 0,1.616 -1.312,2.929 -2.934,2.929 -1.619,0 -2.935,-1.312 -2.935,-2.929 0,-1.624 1.315,-2.934 2.935,-2.934 z"
   id="path461"
   style="fill:#fc4c02" />
<circle
   cx="489.871"
   cy="286.17001"
   r="2.934"
   transform="translate(-332.07299,0.25675)"
   id="circle463"
   style="fill:#fc4c02" />
<path
   d="m 151.92901,273.80975 c 1.622,0 2.935,1.312 2.935,2.934 0,1.619 -1.312,2.932 -2.935,2.932 -1.616,0 -2.931,-1.312 -2.931,-2.932 0,-1.622 1.315,-2.934 2.931,-2.934 z"
   id="path465"
   style="fill:#fc4c02" />
<path
   d="m 168.61701,226.80575 c 1.622,0 2.935,1.315 2.935,2.934 0,1.619 -1.312,2.934 -2.935,2.934 -1.616,0 -2.929,-1.315 -2.929,-2.934 0.001,-1.618 1.313,-2.934 2.929,-2.934 z"
   id="path467"
   style="fill:#fc4c02" />
<circle
   cx="511.88199"
   cy="229.483"
   r="5.0630002"
   transform="translate(-332.07299,0.25675)"
   id="circle469"
   style="fill:#fc4c02" />
<path
   d="m 215.94401,192.01975 c 2.669,0 4.827,2.159 4.827,4.827 0,2.663 -2.158,4.825 -4.827,4.825 -2.663,0 -4.824,-2.162 -4.824,-4.825 -0.001,-2.669 2.161,-4.827 4.824,-4.827 z"
   id="path471"
   style="fill:#fc4c02" />
<path
   d="m 215.14601,182.25675 c 1.622,0 2.935,1.312 2.935,2.935 0,1.616 -1.312,2.931 -2.935,2.931 -1.618,0 -2.931,-1.315 -2.931,-2.931 0,-1.623 1.313,-2.935 2.931,-2.935 z"
   id="path473"
   style="fill:#fc4c02" />
<path
   d="m 262.46101,158.97675 c 3.895,0 7.051,3.154 7.051,7.05 0,3.892 -3.156,7.048 -7.051,7.048 -3.894,0 -7.05,-3.156 -7.05,-7.048 0,-3.896 3.157,-7.05 7.05,-7.05 z"
   id="path475"
   style="fill:#fc4c02" />
<circle
   cx="603.33398"
   cy="171.636"
   r="2.934"
   transform="translate(-332.07299,0.25675)"
   id="circle477"
   style="fill:#fc4c02" />
<path
   d="m 319.00201,170.66175 c 1.622,0 2.932,1.315 2.932,2.934 0,1.619 -1.31,2.934 -2.932,2.934 -1.619,0 -2.937,-1.315 -2.937,-2.934 0.001,-1.619 1.318,-2.934 2.937,-2.934 z"
   id="path479"
   style="fill:#fc4c02" />
<path
   d="m 327.79901,163.09275 c 1.622,0 2.932,1.315 2.932,2.934 0,1.619 -1.31,2.932 -2.932,2.932 -1.616,0 -2.932,-1.312 -2.932,-2.932 0,-1.619 1.316,-2.934 2.932,-2.934 z"
   id="path481"
   style="fill:#fc4c02" />
<path
   d="m 374.23901,182.25675 c 1.619,0 2.932,1.312 2.932,2.935 0,1.616 -1.312,2.931 -2.932,2.931 -1.622,0 -2.932,-1.315 -2.932,-2.931 0,-1.623 1.309,-2.935 2.932,-2.935 z"
   id="path483"
   style="fill:#fc4c02" />
<path
   d="m 375.48401,193.91175 c 1.621,0 2.934,1.312 2.934,2.934 0,1.619 -1.312,2.932 -2.934,2.932 -1.614,0 -2.935,-1.312 -2.935,-2.932 0,-1.621 1.32,-2.934 2.935,-2.934 z"
   id="path485"
   style="fill:#fc4c02" />
<path
   d="m 409.79801,226.80575 c 1.616,0 2.929,1.315 2.929,2.934 0,1.619 -1.312,2.934 -2.929,2.934 -1.622,0 -2.938,-1.315 -2.938,-2.934 0.001,-1.618 1.316,-2.934 2.938,-2.934 z"
   id="path487"
   style="fill:#fc4c02" />
<path
   d="m 421.62901,226.80575 c 1.622,0 2.94,1.315 2.94,2.934 0,1.619 -1.318,2.934 -2.94,2.934 -1.613,0 -2.926,-1.315 -2.926,-2.934 0,-1.618 1.313,-2.934 2.926,-2.934 z"
   id="path489"
   style="fill:#fc4c02" />
<path
   d="m 434.10701,331.23175 c 1.619,0 2.932,1.312 2.932,2.937 0,1.619 -1.312,2.931 -2.932,2.931 -1.622,0 -2.935,-1.312 -2.935,-2.931 0,-1.625 1.313,-2.937 2.935,-2.937 z"
   id="path491"
   style="fill:#fc4c02" />
<path
   d="m 442.13001,339.49175 c 1.619,0 2.938,1.315 2.938,2.934 0,1.619 -1.318,2.934 -2.938,2.934 -1.615,0 -2.931,-1.315 -2.931,-2.934 0,-1.619 1.316,-2.934 2.931,-2.934 z"
   id="path493"
   style="fill:#fc4c02" />
<path
   d="m 434.10701,285.20175 c 1.619,0 2.932,1.312 2.932,2.934 0,1.616 -1.312,2.932 -2.932,2.932 -1.622,0 -2.935,-1.315 -2.935,-2.932 0,-1.622 1.313,-2.934 2.935,-2.934 z"
   id="path495"
   style="fill:#fc4c02" />
<circle
   cx="772.50299"
   cy="279.078"
   r="2.9330001"
   transform="translate(-332.07299,0.25675)"
   id="circle497"
   style="fill:#fc4c02" />
<path
   d="m 409.79801,388.06175 c 1.616,0 2.929,1.312 2.929,2.936 0,1.619 -1.312,2.932 -2.929,2.932 -1.622,0 -2.938,-1.312 -2.938,-2.932 0.001,-1.624 1.316,-2.936 2.938,-2.936 z"
   id="path499"
   style="fill:#fc4c02" />
<path
   d="m 421.62901,381.43975 c 5.929,0 10.72,4.797 10.72,10.719 0,5.918 -4.791,10.717 -10.72,10.717 -5.914,0 -10.711,-4.799 -10.711,-10.717 0,-5.922 4.797,-10.719 10.711,-10.719 z"
   id="path501"
   style="fill:#fc4c02" />
<circle
   cx="713.42401"
   cy="426.724"
   r="4.5929999"
   transform="translate(-332.07299,0.25675)"
   id="circle503"
   style="fill:#fc4c02" />
<path
   d="m 380.10401,435.10875 c 1.622,0 2.935,1.312 2.935,2.936 0,1.617 -1.312,2.93 -2.935,2.93 -1.618,0 -2.934,-1.312 -2.934,-2.93 0,-1.624 1.316,-2.936 2.934,-2.936 z"
   id="path505"
   style="fill:#fc4c02" />
<path
   d="m 328.89001,453.25075 c 1.621,0 2.934,1.312 2.934,2.934 0,1.619 -1.312,2.932 -2.934,2.932 -1.617,0 -2.932,-1.312 -2.932,-2.932 0,-1.621 1.315,-2.934 2.932,-2.934 z"
   id="path507"
   style="fill:#fc4c02" />
<path
   d="m 318.99901,444.76875 c 3.067,0 5.551,2.484 5.551,5.551 0,3.064 -2.483,5.549 -5.551,5.549 -3.062,0 -5.545,-2.484 -5.545,-5.549 0,-3.067 2.484,-5.551 5.545,-5.551 z"
   id="path509"
   style="fill:#fc4c02" />
<path
   d="m 271.25901,444.80575 c 3.048,0 5.513,2.469 5.513,5.514 0,3.039 -2.465,5.508 -5.513,5.508 -3.041,0 -5.506,-2.469 -5.506,-5.508 0,-3.045 2.465,-5.514 5.506,-5.514 z"
   id="path511"
   style="fill:#fc4c02" />
<circle
   cx="597.46899"
   cy="460.29199"
   r="2.9330001"
   transform="translate(-332.07299,0.25675)"
   id="circle513"
   style="fill:#fc4c02" />
<path
   d="m 215.94401,435.11175 c 1.622,0 2.932,1.312 2.932,2.934 0,1.619 -1.31,2.932 -2.932,2.932 -1.619,0 -2.932,-1.312 -2.932,-2.932 0,-1.621 1.312,-2.934 2.932,-2.934 z"
   id="path515"
   style="fill:#fc4c02" />
<path
   d="m 215.94401,424.04775 c 1.622,0 2.932,1.314 2.932,2.934 0,1.62 -1.31,2.932 -2.932,2.932 -1.619,0 -2.932,-1.312 -2.932,-2.932 0,-1.62 1.312,-2.934 2.932,-2.934 z"
   id="path517"
   style="fill:#fc4c02" />
<path
   d="m 240.43901,416.52275 c 1.622,0 2.938,1.312 2.938,2.934 0,1.619 -1.315,2.932 -2.938,2.932 -1.618,0 -2.931,-1.312 -2.931,-2.932 0,-1.622 1.313,-2.934 2.931,-2.934 z"
   id="path519"
   style="fill:#fc4c02" />
<path
   d="m 190.57701,418.22575 c 1.622,0 2.932,1.312 2.932,2.934 0,1.619 -1.31,2.932 -2.932,2.932 -1.621,0 -2.934,-1.312 -2.934,-2.932 0.001,-1.622 1.313,-2.934 2.934,-2.934 z"
   id="path521"
   style="fill:#fc4c02" />
<circle
   cx="519.71698"
   cy="366.987"
   r="1.2690001"
   transform="translate(-332.07299,0.25675)"
   id="circle523"
   style="fill:#fc4c02" />
<circle
   cx="475.93201"
   cy="310.04099"
   r="2.9330001"
   transform="translate(-332.07299,0.25675)"
   id="circle525"
   style="fill:#fc4c02" />
<path
   d="m 180.89101,268.28775 c 3.054,0 5.521,2.476 5.521,5.524 0,3.048 -2.468,5.521 -5.521,5.521 -3.051,0 -5.521,-2.473 -5.521,-5.521 0,-3.048 2.47,-5.524 5.521,-5.524 z"
   id="path527"
   style="fill:#fc4c02" />
<path
   d="m 187.64401,258.09475 c 0.852,0 1.534,0.686 1.534,1.538 0,0.843 -0.683,1.532 -1.534,1.532 -0.847,0 -1.538,-0.689 -1.538,-1.532 0,-0.852 0.691,-1.538 1.538,-1.538 z"
   id="path529"
   style="fill:#fc4c02" />
<path
   d="m 190.57701,199.77775 c 1.622,0 2.932,1.315 2.932,2.934 0,1.619 -1.31,2.932 -2.932,2.932 -1.621,0 -2.934,-1.312 -2.934,-2.932 0.001,-1.619 1.313,-2.934 2.934,-2.934 z"
   id="path531"
   style="fill:#fc4c02" />
<path
   d="m 292.18801,157.22775 c 1.622,0 2.935,1.312 2.935,2.934 0,1.616 -1.312,2.931 -2.935,2.931 -1.618,0 -2.931,-1.315 -2.931,-2.931 0,-1.622 1.313,-2.934 2.931,-2.934 z"
   id="path533"
   style="fill:#fc4c02" />
<path
   d="m 296.42901,216.75075 c 0.984,0 1.79,0.8 1.79,1.787 0,0.987 -0.806,1.787 -1.79,1.787 -0.986,0 -1.784,-0.8 -1.784,-1.787 0,-0.987 0.798,-1.787 1.784,-1.787 z"
   id="path535"
   style="fill:#fc4c02" />
<path
   d="m 229.54001,244.16175 c 1.025,0 1.86,0.835 1.86,1.863 0,1.028 -0.835,1.86 -1.86,1.86 -1.03,0 -1.863,-0.833 -1.863,-1.86 0,-1.027 0.833,-1.863 1.863,-1.863 z"
   id="path537"
   style="fill:#fc4c02" />
<path
   d="m 202.53601,309.82675 c 0.987,0 1.79,0.8 1.79,1.79 0,0.984 -0.803,1.787 -1.79,1.787 -0.986,0 -1.784,-0.803 -1.784,-1.787 0,-0.989 0.798,-1.79 1.784,-1.79 z"
   id="path539"
   style="fill:#fc4c02" />
<path
   d="m 229.54001,374.44075 c 1.616,0 2.932,1.312 2.932,2.935 0,1.618 -1.315,2.934 -2.932,2.934 -1.621,0 -2.937,-1.315 -2.937,-2.934 10e-4,-1.622 1.316,-2.935 2.937,-2.935 z"
   id="path541"
   style="fill:#fc4c02" />
<path
   d="m 295.13301,401.93875 c 1.077,0 1.95,0.873 1.95,1.953 0,1.072 -0.873,1.947 -1.95,1.947 -1.074,0 -1.947,-0.875 -1.947,-1.947 0,-1.08 0.873,-1.953 1.947,-1.953 z"
   id="path543"
   style="fill:#fc4c02" />
<path
   d="m 243.37601,376.69175 c 1.621,0 2.932,1.312 2.932,2.937 0,1.619 -1.311,2.932 -2.932,2.932 -1.622,0 -2.932,-1.312 -2.932,-2.932 0.001,-1.624 1.31,-2.937 2.932,-2.937 z"
   id="path545"
   style="fill:#fc4c02" />
<path
   d="m 252.17301,412.35675 c 1.621,0 2.932,1.312 2.932,2.936 0,1.621 -1.311,2.934 -2.932,2.934 -1.616,0 -2.932,-1.312 -2.932,-2.934 0,-1.624 1.316,-2.936 2.932,-2.936 z"
   id="path547"
   style="fill:#fc4c02" />
<path
   d="m 284.26101,392.65475 c 2.97,0 5.373,2.404 5.373,5.367 0,2.965 -2.403,5.363 -5.373,5.363 -2.958,0 -5.357,-2.398 -5.357,-5.363 0,-2.962 2.399,-5.367 5.357,-5.367 z"
   id="path549"
   style="fill:#fc4c02" />
<path
   d="m 265.39601,377.37275 c 1.621,0 2.934,1.315 2.934,2.937 0,1.616 -1.312,2.932 -2.934,2.932 -1.622,0 -2.935,-1.315 -2.935,-2.932 0,-1.622 1.313,-2.937 2.935,-2.937 z"
   id="path551"
   style="fill:#fc4c02" />
<circle
   cx="602.62097"
   cy="369.92099"
   r="2.934"
   transform="translate(-332.07299,0.25675)"
   id="circle553"
   style="fill:#fc4c02" />
<circle
   cx="568.64801"
   cy="336.02899"
   r="5.8520002"
   transform="translate(-332.07299,0.25675)"
   id="circle555"
   style="fill:#fc4c02" />
<path
   d="m 236.57501,284.38275 c 1.621,0 2.934,1.312 2.934,2.934 0,1.616 -1.312,2.932 -2.934,2.932 -1.622,0 -2.938,-1.315 -2.938,-2.932 0.001,-1.622 1.316,-2.934 2.938,-2.934 z"
   id="path557"
   style="fill:#fc4c02" />
<path
   d="m 270.54801,251.45375 c 1.039,0 1.888,0.843 1.888,1.887 0,1.044 -0.849,1.885 -1.888,1.885 -1.044,0 -1.888,-0.84 -1.888,-1.885 0,-1.044 0.844,-1.887 1.888,-1.887 z"
   id="path559"
   style="fill:#fc4c02" />
<path
   d="m 319.00201,250.08375 c 1.622,0 2.932,1.312 2.932,2.932 0,1.619 -1.31,2.931 -2.932,2.931 -1.619,0 -2.937,-1.312 -2.937,-2.931 0.001,-1.619 1.318,-2.932 2.937,-2.932 z"
   id="path561"
   style="fill:#fc4c02" />
<path
   d="m 353.63401,282.23775 c 2.764,0 4.998,2.237 4.998,4.998 0,2.755 -2.234,4.993 -4.998,4.993 -2.755,0 -4.992,-2.237 -4.992,-4.993 0,-2.761 2.237,-4.998 4.992,-4.998 z"
   id="path563"
   style="fill:#fc4c02" />
<circle
   cx="686.03497"
   cy="335.62399"
   r="2.9330001"
   transform="translate(-332.07299,0.25675)"
   id="circle565"
   style="fill:#fc4c02" />
<circle
   cx="651.07202"
   cy="369.922"
   r="1.8049999"
   transform="translate(-332.07299,0.25675)"
   id="circle567"
   style="fill:#fc4c02" />
<path
   d="m 190.57701,351.57475 c 1.622,0 2.932,1.312 2.932,2.934 0,1.619 -1.31,2.932 -2.932,2.932 -1.621,0 -2.934,-1.312 -2.934,-2.932 0.001,-1.621 1.313,-2.934 2.934,-2.934 z"
   id="path569"
   style="fill:#fc4c02" />
<path
   d="m 180.76601,346.71075 c 1.622,0 2.934,1.312 2.934,2.934 0,1.619 -1.312,2.931 -2.934,2.931 -1.616,0 -2.931,-1.312 -2.931,-2.931 0,-1.622 1.315,-2.934 2.931,-2.934 z"
   id="path571"
   style="fill:#fc4c02" />
<circle
   cx="560.39301"
   cy="364.05301"
   r="2.934"
   transform="translate(-332.07299,0.25675)"
   id="circle573"
   style="fill:#fc4c02" />
<path
   d="m 210.07801,319.46775 c 1.616,0 2.934,1.312 2.934,2.931 0,1.622 -1.317,2.935 -2.934,2.935 -1.619,0 -2.932,-1.312 -2.932,-2.935 0.001,-1.619 1.313,-2.931 2.932,-2.931 z"
   id="path575"
   style="fill:#fc4c02" />
<path
   d="m 225.38601,338.43975 c 1.621,0 2.934,1.312 2.934,2.934 0,1.619 -1.312,2.934 -2.934,2.934 -1.616,0 -2.934,-1.315 -2.934,-2.934 0,-1.622 1.318,-2.934 2.934,-2.934 z"
   id="path577"
   style="fill:#fc4c02" />
<path
   d="m 210.07801,299.02375 c 1.087,0 1.972,0.881 1.972,1.972 0,1.087 -0.885,1.971 -1.972,1.971 -1.085,0 -1.972,-0.884 -1.972,-1.971 0.001,-1.091 0.887,-1.972 1.972,-1.972 z"
   id="path579"
   style="fill:#fc4c02" />
<circle
   cx="523.909"
   cy="268.17499"
   r="2.934"
   transform="translate(-332.07299,0.25675)"
   id="circle581"
   style="fill:#fc4c02" />
<path
   d="m 226.60401,256.69775 c 1.616,0 2.937,1.312 2.937,2.934 0,1.619 -1.32,2.932 -2.937,2.932 -1.622,0 -2.932,-1.312 -2.932,-2.932 0,-1.621 1.31,-2.934 2.932,-2.934 z"
   id="path583"
   style="fill:#fc4c02" />
<path
   d="m 222.79901,271.64275 c 5.396,0 9.763,4.369 9.763,9.757 0,5.388 -4.366,9.757 -9.763,9.757 -5.383,0 -9.752,-4.369 -9.752,-9.757 0,-5.389 4.369,-9.757 9.752,-9.757 z"
   id="path585"
   style="fill:#fc4c02" />
<circle
   cx="597.46899"
   cy="241.388"
   r="2.934"
   transform="translate(-332.07299,0.25675)"
   id="circle587"
   style="fill:#fc4c02" />
<path
   d="m 243.37301,238.71075 c 3.24,0 5.868,2.627 5.868,5.871 0,3.24 -2.628,5.865 -5.868,5.865 -3.24,0 -5.865,-2.625 -5.865,-5.865 0,-3.243 2.625,-5.871 5.865,-5.871 z"
   id="path589"
   style="fill:#fc4c02" />
<path
   d="m 252.17301,205.64375 c 1.621,0 2.932,1.315 2.932,2.934 0,1.622 -1.311,2.934 -2.932,2.934 -1.616,0 -2.932,-1.312 -2.932,-2.934 0,-1.619 1.316,-2.934 2.932,-2.934 z"
   id="path591"
   style="fill:#fc4c02" />
<circle
   cx="616.34003"
   cy="226.549"
   r="2.934"
   transform="translate(-332.07299,0.25675)"
   id="circle593"
   style="fill:#fc4c02" />
<circle
   cx="588.854"
   cy="195.42999"
   r="2.9330001"
   transform="translate(-332.07299,0.25675)"
   id="circle595"
   style="fill:#fc4c02" />
<path
   d="m 333.15701,192.75475 c 1.622,0 2.935,1.312 2.935,2.932 0,1.622 -1.312,2.934 -2.935,2.934 -1.616,0 -2.932,-1.312 -2.932,-2.934 10e-4,-1.62 1.316,-2.932 2.932,-2.932 z"
   id="path597"
   style="fill:#fc4c02" />
<path
   d="m 324.86701,239.66275 c 1.096,0 1.979,0.887 1.979,1.982 0,1.095 -0.884,1.985 -1.979,1.985 -1.098,0 -1.981,-0.889 -1.981,-1.985 0,-1.096 0.884,-1.982 1.981,-1.982 z"
   id="path599"
   style="fill:#fc4c02" />
<path
   d="m 305.43301,223.87175 c 1.618,0 2.928,1.312 2.928,2.934 0,1.619 -1.31,2.934 -2.928,2.934 -1.622,0 -2.938,-1.315 -2.938,-2.934 0,-1.621 1.316,-2.934 2.938,-2.934 z"
   id="path601"
   style="fill:#fc4c02" />
<path
   d="m 347.76601,241.64475 c 1.622,0 2.937,1.312 2.937,2.934 0,1.616 -1.314,2.932 -2.937,2.932 -1.613,0 -2.926,-1.315 -2.926,-2.932 0,-1.621 1.313,-2.934 2.926,-2.934 z"
   id="path603"
   style="fill:#fc4c02" />
<path
   d="m 337.53701,204.67475 c 2.155,0 3.905,1.749 3.905,3.902 0,2.156 -1.75,3.899 -3.905,3.899 -2.156,0 -3.899,-1.744 -3.899,-3.899 0,-2.153 1.743,-3.902 3.899,-3.902 z"
   id="path605"
   style="fill:#fc4c02" />
<circle
   cx="680.802"
   cy="202.45399"
   r="2.9330001"
   transform="translate(-332.07299,0.25675)"
   id="circle607"
   style="fill:#fc4c02" />
<path
   d="m 359.42901,241.86775 c 2.295,0 4.157,1.86 4.157,4.16 0,2.294 -1.862,4.154 -4.157,4.154 -2.294,0 -4.154,-1.86 -4.154,-4.154 0,-2.3 1.86,-4.16 4.154,-4.16 z"
   id="path609"
   style="fill:#fc4c02" />
<circle
   cx="736.00299"
   cy="257.45801"
   r="2.934"
   transform="translate(-332.07299,0.25675)"
   id="circle611"
   style="fill:#fc4c02" />
<circle
   cx="697.37097"
   cy="282.01099"
   r="1.641"
   transform="translate(-332.07299,0.25675)"
   id="circle613"
   style="fill:#fc4c02" />
<path
   d="m 380.09901,294.36175 c 3.939,0 7.132,3.187 7.132,7.127 0,3.932 -3.192,7.121 -7.132,7.121 -3.927,0 -7.119,-3.189 -7.119,-7.121 0,-3.94 3.192,-7.127 7.119,-7.127 z"
   id="path615"
   style="fill:#fc4c02" />
<circle
   cx="694.43701"
   cy="259.37399"
   r="2.9330001"
   transform="translate(-332.07299,0.25675)"
   id="circle617"
   style="fill:#fc4c02" />
<circle
   cx="730.13702"
   cy="268.388"
   r="2.9330001"
   transform="translate(-332.07299,0.25675)"
   id="circle619"
   style="fill:#fc4c02" />
<path
   d="m 387.88701,310.31575 c 0.722,0 1.302,0.581 1.302,1.299 0,0.719 -0.58,1.302 -1.302,1.302 -0.716,0 -1.299,-0.583 -1.299,-1.302 0,-0.719 0.583,-1.299 1.299,-1.299 z"
   id="path621"
   style="fill:#fc4c02" />
<path
   d="m 409.79801,348.29175 c 1.616,0 2.929,1.312 2.929,2.934 0,1.619 -1.312,2.931 -2.929,2.931 -1.622,0 -2.938,-1.312 -2.938,-2.931 0.001,-1.622 1.316,-2.934 2.938,-2.934 z"
   id="path623"
   style="fill:#fc4c02" />
<path
   d="m 408.05201,270.32975 c 1.615,0 2.934,1.312 2.934,2.934 0,1.622 -1.318,2.935 -2.934,2.935 -1.619,0 -2.935,-1.312 -2.935,-2.935 0,-1.621 1.316,-2.934 2.935,-2.934 z"
   id="path625"
   style="fill:#fc4c02" />
<circle
   cx="778.58301"
   cy="310.04099"
   r="2.9330001"
   transform="translate(-332.07299,0.25675)"
   id="circle627"
   style="fill:#fc4c02" />
<path
   d="m 400.99501,199.77775 c 1.622,0 2.935,1.315 2.935,2.934 0,1.619 -1.312,2.932 -2.935,2.932 -1.616,0 -2.932,-1.312 -2.932,-2.932 10e-4,-1.619 1.316,-2.934 2.932,-2.934 z"
   id="path629"
   style="fill:#fc4c02" />
<circle
   cx="694.43701"
   cy="364.05499"
   r="2.931"
   transform="translate(-332.07299,0.25675)"
   id="circle631"
   style="fill:#fc4c02" />
<circle
   cx="730.13702"
   cy="354.25101"
   r="2.9330001"
   transform="translate(-332.07299,0.25675)"
   id="circle633"
   style="fill:#fc4c02" />
<circle
   cx="697.37097"
   cy="339.23499"
   r="2.934"
   transform="translate(-332.07299,0.25675)"
   id="circle635"
   style="fill:#fc4c02" />
<circle
   cx="712.177"
   cy="322.14401"
   r="2.9330001"
   transform="translate(-332.07299,0.25675)"
   id="circle637"
   style="fill:#fc4c02" />
<path
   d="m 406.86101,412.35675 c 1.622,0 2.938,1.312 2.938,2.936 0,1.621 -1.315,2.934 -2.938,2.934 -1.615,0 -2.931,-1.312 -2.931,-2.934 0,-1.624 1.315,-2.936 2.931,-2.936 z"
   id="path639"
   style="fill:#fc4c02" />
<circle
   cx="680.802"
   cy="419.198"
   r="2.9330001"
   transform="translate(-332.07299,0.25675)"
   id="circle641"
   style="fill:#fc4c02" />
<path
   d="m 402.18101,363.82375 c 1.621,0 2.937,1.312 2.937,2.934 0,1.619 -1.315,2.935 -2.937,2.935 -1.613,0 -2.926,-1.315 -2.926,-2.935 0,-1.621 1.313,-2.934 2.926,-2.934 z"
   id="path643"
   style="fill:#fc4c02" />
<path
   d="m 359.42901,370.89375 c 3.206,0 5.804,2.595 5.804,5.798 0,3.205 -2.598,5.801 -5.804,5.801 -3.202,0 -5.797,-2.596 -5.797,-5.801 0,-3.203 2.595,-5.798 5.797,-5.798 z"
   id="path645"
   style="fill:#fc4c02" />
<path
   d="m 337.53701,412.35675 c 1.622,0 2.937,1.312 2.937,2.936 0,1.621 -1.314,2.934 -2.937,2.934 -1.616,0 -2.932,-1.312 -2.932,-2.934 0.001,-1.624 1.316,-2.936 2.932,-2.936 z"
   id="path647"
   style="fill:#fc4c02" />
<path
   d="m 305.43301,395.08875 c 1.618,0 2.928,1.312 2.928,2.934 0,1.622 -1.31,2.934 -2.928,2.934 -1.622,0 -2.938,-1.312 -2.938,-2.934 0,-1.622 1.316,-2.934 2.938,-2.934 z"
   id="path649"
   style="fill:#fc4c02" />
<path
   d="m 324.86701,379.62875 c 1.622,0 2.932,1.312 2.932,2.935 0,1.619 -1.31,2.932 -2.932,2.932 -1.618,0 -2.934,-1.313 -2.934,-2.932 10e-4,-1.623 1.316,-2.935 2.934,-2.935 z"
   id="path651"
   style="fill:#fc4c02" />
<path
   d="m 347.76601,378.02275 c 0.893,0 1.608,0.719 1.608,1.605 0,0.884 -0.716,1.603 -1.608,1.603 -0.881,0 -1.597,-0.719 -1.597,-1.603 0,-0.886 0.716,-1.605 1.597,-1.605 z"
   id="path653"
   style="fill:#fc4c02" />
<path
   d="m 293.49501,460.54775 c 1.621,0 2.937,1.312 2.937,2.934 0,1.619 -1.315,2.932 -2.937,2.932 -1.616,0 -2.932,-1.312 -2.932,-2.932 10e-4,-1.621 1.316,-2.934 2.932,-2.934 z"
   id="path655"
   style="fill:#fc4c02" />
<path
   d="m 258.04101,424.04975 c 1.622,0 2.935,1.312 2.935,2.936 0,1.617 -1.312,2.93 -2.935,2.93 -1.619,0 -2.937,-1.312 -2.937,-2.93 0.001,-1.624 1.318,-2.936 2.937,-2.936 z"
   id="path657"
   style="fill:#fc4c02" />
<path
   d="m 333.15701,424.04975 c 1.622,0 2.935,1.312 2.935,2.936 0,1.617 -1.312,2.93 -2.935,2.93 -1.616,0 -2.932,-1.312 -2.932,-2.93 10e-4,-1.624 1.316,-2.936 2.932,-2.936 z"
   id="path659"
   style="fill:#fc4c02" />
<circle
   cx="512.96399"
   cy="194.44299"
   r="2.9330001"
   transform="translate(-332.07299,0.25675)"
   id="circle661"
   style="fill:#fc4c02" />
<path
   d="m 328.88601,301.76475 c 4.714,0 8.532,3.824 8.532,8.534 0,4.705 -3.818,8.526 -8.532,8.526 -4.707,0 -8.525,-3.821 -8.525,-8.526 0,-4.71 3.818,-8.534 8.525,-8.534 z"
   id="path663"
   style="fill:#fc4c02" />
<path
   d="m 308.36101,307.36475 c 1.628,0 2.938,1.312 2.938,2.931 0,1.622 -1.31,2.934 -2.938,2.934 -1.615,0 -2.928,-1.312 -2.928,-2.934 0,-1.618 1.312,-2.931 2.928,-2.931 z"
   id="path665"
   style="fill:#fc4c02" />
<path
   d="m 265.75601,328.65475 c 3.04,-3.037 7.976,-3.037 11.016,0 3.042,3.045 3.042,7.973 -0.006,11.018 -3.034,3.042 -7.97,3.042 -11.01,0.002 -3.04,-3.047 -3.04,-7.974 0,-11.02 z"
   id="path667"
   style="fill:#fc4c02" />
<path
   d="m 316.92501,284.35275 c 1.149,-1.147 3.005,-1.145 4.151,0 1.147,1.144 1.147,3.002 -0.003,4.146 -1.144,1.15 -2.999,1.15 -4.148,0 -1.144,-1.144 -1.144,-3.002 0,-4.146 z"
   id="path669"
   style="fill:#fc4c02" />
<path
   d="m 275.44601,282.23975 c 2.321,2.308 2.321,6.064 0,8.379 -2.311,2.316 -6.056,2.316 -8.374,-0.002 -2.316,-2.313 -2.316,-6.069 0,-8.377 2.313,-2.316 6.063,-2.316 8.374,0 z"
   id="path671"
   style="fill:#fc4c02" />
<path
   d="m 321.07301,332.09375 c 1.15,1.145 1.15,3 0,4.146 -1.144,1.147 -2.999,1.147 -4.148,-0.003 -1.137,-1.144 -1.145,-2.999 0,-4.144 1.149,-1.144 3.005,-1.144 4.148,10e-4 z"
   id="path673"
   style="fill:#fc4c02" />
<path
   d="m 295.11601,341.40075 c 2.191,0 3.962,1.771 3.962,3.959 0,2.186 -1.771,3.957 -3.962,3.957 -2.18,0 -3.953,-1.771 -3.953,-3.957 0,-2.188 1.774,-3.959 3.953,-3.959 z"
   id="path675"
   style="fill:#fc4c02" />
<path
   d="m 295.11601,321.01875 c 1.622,0 2.938,1.315 2.938,2.934 0,1.619 -1.315,2.934 -2.938,2.934 -1.616,0 -2.929,-1.315 -2.929,-2.934 0.001,-1.619 1.313,-2.934 2.929,-2.934 z"
   id="path677"
   style="fill:#fc4c02" />
<path
   d="m 295.11601,274.94075 c 1.622,0 2.938,1.312 2.938,2.934 0,1.619 -1.315,2.931 -2.938,2.931 -1.616,0 -2.929,-1.312 -2.929,-2.931 0.001,-1.622 1.313,-2.934 2.929,-2.934 z"
   id="path679"
   style="fill:#fc4c02" />
<path
   d="m 295.11601,290.24875 c 3.084,0 5.573,2.495 5.573,5.575 0,3.072 -2.489,5.57 -5.573,5.57 -3.072,0 -5.572,-2.498 -5.572,-5.57 0,-3.081 2.5,-5.575 5.572,-5.575 z"
   id="path681"
   style="fill:#fc4c02" />
<path
   d="m 295.11601,305.41575 c 2.698,0 4.882,2.186 4.882,4.881 0,2.696 -2.184,4.876 -4.882,4.876 -2.689,0 -4.878,-2.18 -4.878,-4.876 0.001,-2.696 2.189,-4.881 4.878,-4.881 z"
   id="path683"
   style="fill:#fc4c02" />
<path
   d="M 244.13201,379.96675"
   id="path685"
   style="fill:#fc4c02" />
<path
   d="M 180.76601,349.64475"
   id="path687"
   style="fill:#059a4c" />
</svg>